CommissionerLoud-Bold.ufo
<glyph name="numbersign" format="2">
  <advance width="699.2894736842105"/>
  <unicode hex="0023"/>
  <outline>
    <contour>
      <point x="13.421052631578947" y="123.60526315789474" type="line"/>
      <point x="82.60526315789474" y="125.92105263157895"/>
      <point x="155.52631578947367" y="128.23684210526315"/>
      <point x="205.0" y="129.55263157894737" type="curve"/>
      <point x="444.4736842105263" y="129.55263157894737" type="line"/>
      <point x="493.94736842105266" y="128.23684210526315"/>
      <point x="566.8684210526316" y="125.92105263157895"/>
      <point x="636.0526315789474" y="123.60526315789474" type="curve"/>
      <point x="636.0526315789474" y="250.3421052631579" type="line"/>
      <point x="566.8684210526316" y="248.0263157894737"/>
      <point x="493.94736842105266" y="245.71052631578948"/>
      <point x="444.4736842105263" y="244.39473684210526" type="curve"/>
      <point x="205.0" y="244.39473684210526" type="line"/>
      <point x="155.52631578947367" y="245.71052631578948"/>
      <point x="82.60526315789474" y="248.0263157894737"/>
      <point x="13.421052631578947" y="250.3421052631579" type="curve"/>
    </contour>
    <contour>
      <point x="93.78947368421052" y="0.0" type="curve"/>
      <point x="233.39473684210526" y="0.0" type="line"/>
      <point x="242.13157894736844" y="68.31578947368422"/>
      <point x="250.18421052631578" y="130.92105263157896"/>
      <point x="261.2631578947369" y="215.57894736842104" type="curve"/>
      <point x="302.36842105263156" y="445.1842105263158" type="line"/>
      <point x="322.0263157894737" y="534.8157894736842"/>
      <point x="335.36842105263156" y="593.1578947368421"/>
      <point x="351.36842105263156" y="666.1578947368421" type="curve"/>
      <point x="213.07894736842104" y="666.1578947368421" type="line"/>
      <point x="203.68421052631575" y="590.8947368421053"/>
      <point x="196.94736842105263" y="534.5263157894738"/>
      <point x="185.18421052631578" y="445.86842105263156" type="curve"/>
      <point x="144.07894736842104" y="215.57894736842104" type="line"/>
      <point x="123.76315789473685" y="129.60526315789474"/>
      <point x="108.78947368421052" y="65.6842105263158"/>
    </contour>
    <contour>
      <point x="63.23684210526316" y="412.81578947368416" type="line"/>
      <point x="132.42105263157896" y="415.13157894736844"/>
      <point x="205.3421052631579" y="417.4473684210526"/>
      <point x="254.81578947368422" y="418.7631578947368" type="curve"/>
      <point x="494.2894736842105" y="418.7631578947368" type="line"/>
      <point x="543.7631578947368" y="417.4473684210526"/>
      <point x="616.6842105263158" y="415.13157894736844"/>
      <point x="685.8684210526316" y="412.81578947368416" type="curve"/>
      <point x="685.8684210526316" y="539.5526315789474" type="line"/>
      <point x="616.6842105263158" y="537.2368421052632"/>
      <point x="543.7631578947368" y="534.921052631579"/>
      <point x="494.2894736842105" y="533.6052631578948" type="curve"/>
      <point x="254.81578947368422" y="533.6052631578948" type="line"/>
      <point x="205.3421052631579" y="534.921052631579"/>
      <point x="132.42105263157896" y="537.2368421052632"/>
      <point x="63.23684210526316" y="539.5526315789474" type="curve"/>
    </contour>
    <contour>
      <point x="343.5263157894737" y="0.0" type="curve"/>
      <point x="483.13157894736844" y="0.0" type="line"/>
      <point x="491.86842105263156" y="68.31578947368422"/>
      <point x="499.92105263157896" y="130.92105263157896"/>
      <point x="511.0" y="215.57894736842104" type="curve"/>
      <point x="552.1052631578948" y="445.1842105263158" type="line"/>
      <point x="571.7631578947368" y="534.8157894736842"/>
      <point x="585.1052631578948" y="593.1578947368421"/>
      <point x="601.1052631578948" y="666.1578947368421" type="curve"/>
      <point x="462.8157894736842" y="666.1578947368421" type="line"/>
      <point x="453.42105263157896" y="590.8947368421053"/>
      <point x="446.6842105263158" y="534.5263157894738"/>
      <point x="434.92105263157896" y="445.86842105263156" type="curve"/>
      <point x="393.8157894736842" y="215.57894736842104" type="line"/>
      <point x="373.49999999999994" y="129.60526315789474"/>
      <point x="358.5263157894737" y="65.6842105263158"/>
    </contour>
  </outline>
</glyph>
<glyph name="ampersand" format="2">
  <advance width="770.4466019417476"/>
  <unicode hex="0026"/>
  <outline>
    <contour>
      <point x="556.5436893203885" y="0.0" type="curve"/>
      <point x="774.3495145631067" y="0.0" type="line"/>
      <point x="703.5533980582525" y="71.90291262135922"/>
      <point x="632.757281553398" y="143.80582524271844"/>
      <point x="561.3300970873787" y="215.70873786407768" type="curve"/>
      <point x="352.5533980582524" y="438.75728155339806" type="line" smooth="yes"/>
      <point x="307.93203883495147" y="485.4854368932039"/>
      <point x="288.77669902912623" y="516.9514563106796"/>
      <point x="288.77669902912623" y="554.5242718446602" type="curve" smooth="yes"/>
      <point x="288.77669902912623" y="594.6699029126214"/>
      <point x="315.71844660194176" y="620.5048543689321"/>
      <point x="354.75728155339806" y="623.873786407767" type="curve"/>
      <point x="392.6407766990291" y="620.5048543689321"/>
      <point x="420.8932038834951" y="594.3009708737865"/>
      <point x="420.8932038834951" y="556.9417475728155" type="curve" smooth="yes"/>
      <point x="420.8932038834951" y="534.2135922330098"/>
      <point x="375.59223300970876" y="486.2718446601941"/>
      <point x="331.6601941747573" y="444.06796116504853" type="curve"/>
      <point x="409.5728155339806" y="367.26213592233006" type="line"/>
      <point x="479.9805825242719" y="434.04854368932035"/>
      <point x="553.5048543689321" y="503.1067961165049"/>
      <point x="553.5048543689321" y="562.8932038834952" type="curve" smooth="yes"/>
      <point x="553.5048543689321" y="668.0"/>
      <point x="465.7669902912621" y="727.7378640776699"/>
      <point x="346.9126213592233" y="727.7378640776699" type="curve" smooth="yes"/>
      <point x="230.3203883495146" y="727.7378640776699"/>
      <point x="136.20388349514565" y="666.4757281553399"/>
      <point x="136.20388349514565" y="550.9417475728155" type="curve" smooth="yes"/>
      <point x="136.20388349514565" y="483.15533980582524"/>
      <point x="170.62135922330097" y="428.15533980582524"/>
      <point x="224.93203883495144" y="369.36893203883494" type="curve" smooth="yes"/>
      <point x="441.92233009708735" y="136.0" type="line"/>
      <point x="480.3398058252427" y="91.0"/>
      <point x="518.757281553398" y="44.36893203883495"/>
    </contour>
    <contour>
      <point x="258.83495145631065" y="-12.106796116504855" type="curve" smooth="yes"/>
      <point x="319.50485436893206" y="-12.106796116504855"/>
      <point x="388.83495145631076" y="26.203883495145636"/>
      <point x="478.19417475728153" y="81.08737864077669" type="curve"/>
      <point x="492.3009708737863" y="81.08737864077669" type="line"/>
      <point x="488.1456310679612" y="108.51456310679612" type="line"/>
      <point x="422.49514563106794" y="183.7378640776699" type="line"/>
      <point x="361.57281553398064" y="143.126213592233"/>
      <point x="307.79611650485447" y="112.0873786407767"/>
      <point x="290.22330097087377" y="112.0873786407767" type="curve"/>
      <point x="224.92233009708738" y="115.0873786407767"/>
      <point x="185.77669902912623" y="153.18446601941747"/>
      <point x="185.77669902912623" y="208.48543689320388" type="curve" smooth="yes"/>
      <point x="185.77669902912623" y="259.7281553398058"/>
      <point x="218.60194174757282" y="300.71844660194176"/>
      <point x="273.5825242718447" y="328.7669902912621" type="curve"/>
      <point x="207.8252427184466" y="415.7864077669903" type="line"/>
      <point x="116.45631067961163" y="375.41747572815535"/>
      <point x="33.88349514563106" y="306.41747572815535"/>
      <point x="33.88349514563106" y="186.63106796116506" type="curve" smooth="yes"/>
      <point x="33.88349514563106" y="73.52427184466019"/>
      <point x="108.99029126213591" y="-12.106796116504855"/>
    </contour>
    <contour>
      <point x="582.3398058252427" y="171.94174757281553" type="line"/>
      <point x="635.6601941747573" y="229.09708737864077"/>
      <point x="687.3495145631067" y="284.99029126213594"/>
      <point x="740.0388349514564" y="343.1456310679612" type="curve"/>
      <point x="599.8349514563106" y="434.28155339805824" type="line"/>
      <point x="565.3106796116506" y="374.3883495145632"/>
      <point x="532.0485436893205" y="316.3883495145631"/>
      <point x="497.5242718446602" y="255.86407766990294" type="curve"/>
    </contour>
  </outline>
</glyph>
<glyph name="quotesingle" format="2">
  <advance width="228.39473684210526"/>
  <unicode hex="0027"/>
  <outline>
    <contour>
      <point x="50.526315789473685" y="395.60526315789474" type="curve"/>
      <point x="164.6842105263158" y="396.60526315789474" type="line"/>
      <point x="171.92105263157896" y="513.9473684210526"/>
      <point x="181.8684210526316" y="629.9736842105264"/>
      <point x="190.5" y="744.6578947368421" type="curve"/>
      <point x="23.710526315789473" y="741.0263157894736" type="line"/>
      <point x="33.34210526315789" y="627.0"/>
      <point x="43.28947368421052" y="511.9736842105263"/>
    </contour>
  </outline>
</glyph>
<glyph name="parenleft" format="2">
  <advance width="414.6578947368421"/>
  <unicode hex="0028"/>
  <outline>
    <contour>
      <point x="268.1842105263158" y="-133.71052631578948" type="curve"/>
      <point x="394.60526315789474" y="-87.78947368421052" type="line"/>
      <point x="293.2631578947369" y="46.6578947368421"/>
      <point x="202.0" y="170.57894736842107"/>
      <point x="202.0" y="323.3421052631579" type="curve" smooth="yes"/>
      <point x="202.0" y="476.44736842105266"/>
      <point x="293.2631578947369" y="600.0263157894736"/>
      <point x="394.60526315789474" y="734.4736842105264" type="curve"/>
      <point x="268.1842105263158" y="780.3947368421053" type="line"/>
      <point x="178.73684210526315" y="664.6315789473684"/>
      <point x="43.68421052631579" y="519.3157894736842"/>
      <point x="43.68421052631579" y="323.3421052631579" type="curve" smooth="yes"/>
      <point x="43.68421052631579" y="127.71052631578947"/>
      <point x="178.73684210526315" y="-17.947368421052637"/>
    </contour>
  </outline>
</glyph>
<glyph name="asterisk" format="2">
  <advance width="494.1842105263158"/>
  <unicode hex="002A"/>
  <outline>
    <contour>
      <point x="418.5526315789474" y="352.1052631578947" type="curve"/>
      <point x="473.07894736842104" y="445.2631578947369" type="line"/>
      <point x="403.1578947368421" y="478.0"/>
      <point x="332.2368421052632" y="509.42105263157896"/>
      <point x="262.3157894736842" y="542.1578947368421" type="curve"/>
      <point x="199.97368421052633" y="588.1052631578948"/>
      <point x="137.63157894736844" y="635.0263157894736"/>
      <point x="75.63157894736842" y="680.6315789473684" type="curve"/>
      <point x="21.105263157894733" y="586.8157894736842" type="line"/>
      <point x="91.02631578947368" y="554.0789473684212"/>
      <point x="161.28947368421052" y="522.6578947368421"/>
      <point x="232.21052631578948" y="489.57894736842104" type="curve"/>
      <point x="294.2105263157895" y="443.97368421052636"/>
      <point x="356.5526315789474" y="397.7105263157895"/>
    </contour>
    <contour>
      <point x="76.28947368421052" y="351.4473684210526" type="line"/>
      <point x="138.28947368421055" y="397.71052631578954"/>
      <point x="199.97368421052633" y="443.97368421052636"/>
      <point x="262.3157894736842" y="490.57894736842104" type="curve"/>
      <point x="332.2368421052632" y="522.6578947368421"/>
      <point x="402.5" y="555.3947368421053"/>
      <point x="472.42105263157896" y="587.4736842105264" type="curve"/>
      <point x="417.8947368421053" y="681.2894736842105" type="line"/>
      <point x="355.89473684210526" y="635.0263157894736"/>
      <point x="294.2105263157895" y="588.7631578947369"/>
      <point x="232.21052631578948" y="542.5" type="curve"/>
      <point x="161.94736842105263" y="510.07894736842104"/>
      <point x="91.02631578947368" y="478.0"/>
      <point x="21.105263157894733" y="445.92105263157896" type="curve"/>
    </contour>
    <contour>
      <point x="192.57894736842104" y="285.4473684210526" type="curve"/>
      <point x="301.60526315789474" y="285.4473684210526" type="line"/>
      <point x="293.6842105263158" y="362.42105263157896"/>
      <point x="285.10526315789474" y="439.39473684210526"/>
      <point x="277.1842105263158" y="516.7105263157895" type="curve"/>
      <point x="285.10526315789474" y="593.3421052631579"/>
      <point x="293.02631578947364" y="670.3157894736842"/>
      <point x="300.94736842105266" y="747.2894736842105" type="curve"/>
      <point x="192.57894736842104" y="747.2894736842105" type="line"/>
      <point x="200.49999999999997" y="670.3157894736842"/>
      <point x="209.07894736842104" y="593.3421052631579"/>
      <point x="217.0" y="516.7105263157895" type="curve"/>
      <point x="209.07894736842104" y="439.39473684210526"/>
      <point x="200.49999999999997" y="362.42105263157896"/>
    </contour>
  </outline>
</glyph>
<glyph name="plus" format="2">
  <advance width="599.7368421052631"/>
  <unicode hex="002B"/>
  <outline>
    <contour>
      <point x="224.3157894736842" y="51.18421052631579" type="curve"/>
      <point x="375.42105263157896" y="51.18421052631579" type="line"/>
      <point x="373.1052631578947" y="120.36842105263158"/>
      <point x="370.7894736842105" y="193.28947368421052"/>
      <point x="369.4736842105263" y="242.76315789473685" type="curve"/>
      <point x="369.4736842105263" y="365.6578947368421" type="line"/>
      <point x="370.7894736842105" y="415.13157894736844"/>
      <point x="373.1052631578947" y="488.0526315789474"/>
      <point x="375.42105263157896" y="557.2368421052631" type="curve"/>
      <point x="224.3157894736842" y="557.2368421052631" type="line"/>
      <point x="226.63157894736838" y="488.0526315789474"/>
      <point x="228.9473684210526" y="415.13157894736844"/>
      <point x="230.26315789473682" y="365.6578947368421" type="curve"/>
      <point x="230.26315789473682" y="242.76315789473685" type="line"/>
      <point x="228.9473684210526" y="193.28947368421052"/>
      <point x="226.63157894736838" y="120.36842105263158"/>
    </contour>
    <contour>
      <point x="50.26315789473684" y="230.6315789473684" type="line"/>
      <point x="119.44736842105263" y="232.9473684210526"/>
      <point x="192.3684210526316" y="235.26315789473682"/>
      <point x="241.8421052631579" y="236.57894736842104" type="curve"/>
      <point x="357.89473684210526" y="236.57894736842104" type="line"/>
      <point x="407.36842105263156" y="235.26315789473682"/>
      <point x="480.2894736842105" y="232.9473684210526"/>
      <point x="549.4736842105264" y="230.6315789473684" type="curve"/>
      <point x="549.4736842105264" y="377.7894736842106" type="line"/>
      <point x="480.2894736842105" y="375.4736842105263"/>
      <point x="407.36842105263156" y="373.15789473684214"/>
      <point x="357.89473684210526" y="371.8421052631579" type="curve"/>
      <point x="241.8421052631579" y="371.8421052631579" type="line"/>
      <point x="192.3684210526316" y="373.15789473684214"/>
      <point x="119.44736842105263" y="375.4736842105263"/>
      <point x="50.26315789473684" y="377.7894736842106" type="curve"/>
    </contour>
  </outline>
</glyph>
<glyph name="comma" format="2">
  <advance width="254.13157894736844"/>
  <unicode hex="002C"/>
  <outline>
    <contour>
      <point x="26.421052631578945" y="-157.0" type="curve"/>
      <point x="102.05263157894736" y="-155.3421052631579" type="line"/>
      <point x="135.97368421052633" y="-102.1578947368421"/>
      <point x="216.47368421052633" y="18.868421052631582"/>
      <point x="216.47368421052633" y="72.28947368421052" type="curve" smooth="yes"/>
      <point x="216.47368421052633" y="125.89473684210526"/>
      <point x="192.31578947368422" y="167.23684210526318"/>
      <point x="135.44736842105266" y="174.1578947368421" type="curve"/>
      <point x="50.89473684210526" y="167.89473684210526" type="line"/>
      <point x="56.5" y="123.5"/>
      <point x="61.78947368421053" y="79.10526315789474"/>
      <point x="65.42105263157895" y="38.65789473684211" type="curve"/>
      <point x="54.73684210526316" y="-22.28947368421052"/>
      <point x="39.44736842105263" y="-98.65789473684211"/>
    </contour>
  </outline>
</glyph>
<glyph name="hyphen" format="2">
  <advance width="426.57894736842104"/>
  <unicode hex="002D"/>
  <outline>
    <contour>
      <point x="50.26315789473684" y="227.3421052631579" type="line"/>
      <point x="109.15789473684211" y="229.65789473684208"/>
      <point x="171.10526315789474" y="231.9736842105263"/>
      <point x="213.28947368421052" y="233.28947368421052" type="curve"/>
      <point x="255.47368421052633" y="231.9736842105263"/>
      <point x="317.42105263157896" y="229.65789473684208"/>
      <point x="376.3157894736842" y="227.3421052631579" type="curve"/>
      <point x="376.3157894736842" y="374.50000000000006" type="line"/>
      <point x="317.42105263157896" y="372.1842105263158"/>
      <point x="255.47368421052633" y="369.8684210526316"/>
      <point x="213.28947368421052" y="368.5526315789474" type="curve"/>
      <point x="171.10526315789474" y="369.8684210526316"/>
      <point x="109.15789473684211" y="372.1842105263158"/>
      <point x="50.26315789473684" y="374.50000000000006" type="curve"/>
    </contour>
  </outline>
</glyph>
<glyph name="slash" format="2">
  <advance width="468.92105263157896"/>
  <unicode hex="002F"/>
  <outline>
    <contour>
      <point x="10.368421052631579" y="0.0" type="curve"/>
      <point x="183.55263157894737" y="0.0" type="line"/>
      <point x="208.65789473684214" y="74.0"/>
      <point x="229.42105263157893" y="136.0"/>
      <point x="260.5526315789474" y="228.0" type="curve"/>
      <point x="355.44736842105266" y="474.0" type="line"/>
      <point x="396.15789473684214" y="569.0"/>
      <point x="423.5263157894737" y="632.3421052631579"/>
      <point x="458.55263157894734" y="713.0" type="curve"/>
      <point x="286.0263157894737" y="713.0" type="line"/>
      <point x="259.9210526315789" y="636.3421052631579"/>
      <point x="238.15789473684208" y="571.3421052631579"/>
      <point x="205.68421052631578" y="476.0" type="curve"/>
      <point x="109.78947368421053" y="228.0" type="line"/>
      <point x="70.07894736842105" y="137.97368421052633"/>
      <point x="43.05263157894737" y="74.97368421052632"/>
    </contour>
  </outline>
</glyph>
<glyph name="one" format="2">
  <advance width="461.9473684210526"/>
  <unicode hex="0031"/>
  <outline>
    <contour>
      <point x="61.184210526315795" y="425.63157894736844" type="line"/>
      <point x="137.13157894736844" y="466.65789473684214"/>
      <point x="212.10526315789474" y="507.0263157894737"/>
      <point x="289.36842105263156" y="548.7105263157895" type="curve"/>
      <point x="295.2894736842105" y="692.578947368421" type="line"/>
      <point x="202.18421052631578" y="651.5526315789474"/>
      <point x="110.39473684210526" y="611.5263157894736"/>
      <point x="17.289473684210527" y="570.5" type="curve"/>
    </contour>
    <contour>
      <point x="199.0263157894737" y="0.0" type="curve"/>
      <point x="386.0" y="0.0" type="line"/>
      <point x="381.71052631578954" y="71.71052631578948"/>
      <point x="378.0789473684211" y="132.76315789473685"/>
      <point x="373.13157894736844" y="215.73684210526315" type="curve"/>
      <point x="373.13157894736844" y="448.3157894736842" type="line"/>
      <point x="377.42105263157896" y="529.3684210526316"/>
      <point x="381.7105263157895" y="608.7105263157895"/>
      <point x="386.0" y="687.9473684210526" type="curve"/>
      <point x="295.2894736842105" y="692.578947368421" type="line"/>
      <point x="204.6315789473684" y="621.2894736842105" type="line"/>
      <point x="206.60526315789474" y="552.5526315789474"/>
      <point x="209.57894736842104" y="481.05263157894734"/>
      <point x="211.55263157894737" y="416.07894736842104" type="curve"/>
      <point x="211.55263157894737" y="215.73684210526315" type="line"/>
      <point x="206.60526315789474" y="132.76315789473685"/>
      <point x="203.31578947368422" y="71.71052631578948"/>
    </contour>
  </outline>
</glyph>
<glyph name="two" format="2">
  <advance width="570.6315789473684"/>
  <unicode hex="0032"/>
  <outline>
    <contour>
      <point x="42.473684210526315" y="0.0" type="line"/>
      <point x="527.078947368421" y="0.0" type="line"/>
      <point x="527.078947368421" y="153.39473684210526" type="line"/>
      <point x="460.86842105263156" y="148.44736842105263"/>
      <point x="394.9736842105263" y="143.5"/>
      <point x="326.13157894736844" y="137.89473684210526" type="curve"/>
      <point x="203.42105263157896" y="137.89473684210526" type="line"/>
      <point x="223.26315789473685" y="106.86842105263159" type="line"/>
      <point x="320.57894736842104" y="182.63157894736844" type="line"/>
      <point x="455.60526315789474" y="287.5"/>
      <point x="519.2894736842105" y="389.0"/>
      <point x="519.2894736842105" y="494.8421052631579" type="curve" smooth="yes"/>
      <point x="519.2894736842105" y="624.3157894736842"/>
      <point x="435.10526315789474" y="702.578947368421"/>
      <point x="281.13157894736844" y="702.578947368421" type="curve" smooth="yes"/>
      <point x="238.76315789473682" y="702.578947368421"/>
      <point x="101.02631578947368" y="668.1578947368421"/>
      <point x="38.815789473684205" y="650.7894736842105" type="curve"/>
      <point x="52.71052631578947" y="494.7105263157895" type="line"/>
      <point x="124.28947368421052" y="525.7894736842104"/>
      <point x="231.44736842105263" y="566.6315789473684"/>
      <point x="248.23684210526315" y="566.6315789473684" type="curve"/>
      <point x="317.8157894736842" y="564.3157894736843"/>
      <point x="352.7631578947368" y="535.3421052631579"/>
      <point x="352.7631578947368" y="473.4473684210526" type="curve" smooth="yes"/>
      <point x="352.7631578947368" y="387.07894736842104"/>
      <point x="273.2631578947369" y="307.3684210526316"/>
      <point x="150.4736842105263" y="199.60526315789474" type="curve"/>
      <point x="114.36842105263158" y="172.78947368421052"/>
      <point x="78.57894736842105" y="146.28947368421055"/>
      <point x="42.473684210526315" y="119.47368421052632" type="curve"/>
    </contour>
  </outline>
</glyph>
<glyph name="four" format="2">
  <advance width="615.1165048543689"/>
  <unicode hex="0034"/>
  <outline>
    <contour>
      <point x="318.55339805825236" y="0.0" type="curve"/>
      <point x="505.6699029126214" y="0.0" type="line"/>
      <point x="501.56310679611653" y="66.47572815533981"/>
      <point x="497.8252427184466" y="121.05825242718447"/>
      <point x="492.71844660194176" y="202.27184466019418" type="curve"/>
      <point x="492.71844660194176" y="447.1067961165048" type="line"/>
      <point x="497.45631067961165" y="525.1067961165049"/>
      <point x="501.5631067961165" y="605.1067961165049"/>
      <point x="505.6699029126214" y="688.1067961165049" type="curve"/>
      <point x="323.02912621359224" y="688.1067961165049" type="line"/>
      <point x="296.873786407767" y="646.5825242718446"/>
      <point x="269.7184466019417" y="603.4271844660194"/>
      <point x="243.56310679611653" y="561.9029126213593" type="curve"/>
      <point x="161.51456310679612" y="445.33009708737865" type="line"/>
      <point x="119.35922330097088" y="389.6504854368932"/>
      <point x="62.834951456310684" y="315.33980582524276"/>
      <point x="23.679611650485434" y="263.2912621359223" type="curve"/>
      <point x="23.679611650485434" y="143.252427184466" type="line"/>
      <point x="388.20388349514565" y="143.252427184466" type="line"/>
      <point x="447.8932038834951" y="140.51456310679612"/>
      <point x="534.4271844660194" y="137.40776699029124"/>
      <point x="588.7475728155339" y="135.03883495145627" type="curve"/>
      <point x="588.7475728155339" y="289.93203883495147" type="line"/>
      <point x="534.4271844660194" y="287.5631067961165"/>
      <point x="447.8932038834951" y="283.82524271844665"/>
      <point x="388.20388349514565" y="281.0873786407767" type="curve"/>
      <point x="372.09708737864077" y="273.70873786407765" type="line"/>
      <point x="150.56310679611653" y="273.70873786407765" type="line"/>
      <point x="162.7766990291262" y="242.4077669902913" type="line"/>
      <point x="189.93203883495144" y="283.56310679611653"/>
      <point x="215.08737864077673" y="323.7184466019417"/>
      <point x="242.24271844660194" y="365.873786407767" type="curve"/>
      <point x="351.7087378640777" y="521.495145631068" type="line"/>
      <point x="385.2330097087379" y="564.8058252427185"/>
      <point x="418.3883495145631" y="608.1165048543689"/>
      <point x="452.9126213592233" y="652.4271844660195" type="curve"/>
      <point x="330.8252427184466" y="619.0873786407767" type="line"/>
      <point x="334.56310679611653" y="550.5631067961165"/>
      <point x="338.30097087378635" y="481.7766990291262"/>
      <point x="341.40776699029124" y="414.5145631067961" type="curve"/>
      <point x="341.40776699029124" y="224.59223300970874" type="line"/>
      <point x="331.504854368932" y="202.27184466019418" type="line"/>
      <point x="326.3980582524272" y="121.05825242718447"/>
      <point x="322.66019417475724" y="66.47572815533981"/>
    </contour>
  </outline>
</glyph>
<glyph name="five" format="2">
  <advance width="584.1650485436893"/>
  <unicode hex="0035"/>
  <outline>
    <contour>
      <point x="276.47572815533977" y="-13.475728155339805" type="curve" smooth="yes"/>
      <point x="459.06796116504853" y="-13.475728155339805"/>
      <point x="545.4368932038835" y="82.36893203883494"/>
      <point x="545.4368932038835" y="221.4757281553398" type="curve" smooth="yes"/>
      <point x="545.4368932038835" y="361.8932038834951"/>
      <point x="454.75728155339806" y="441.7281553398058"/>
      <point x="341.3398058252427" y="441.7281553398058" type="curve" smooth="yes"/>
      <point x="310.873786407767" y="441.7281553398058"/>
      <point x="267.3495145631069" y="429.5728155339806"/>
      <point x="232.0873786407767" y="416.5728155339806" type="curve"/>
      <point x="219.873786407767" y="416.5728155339806" type="line"/>
      <point x="220.24271844660194" y="451.1456310679612" type="line"/>
      <point x="224.34951456310682" y="499.30097087378647"/>
      <point x="228.0873786407767" y="548.7669902912621"/>
      <point x="232.19417475728156" y="600.7087378640776" type="curve"/>
      <point x="175.81553398058253" y="550.2718446601941" type="line"/>
      <point x="274.70873786407765" y="550.2718446601941" type="line"/>
      <point x="352.6019417475728" y="545.1650485436892"/>
      <point x="432.86407766990294" y="540.0582524271844"/>
      <point x="510.75728155339806" y="534.9514563106795" type="curve"/>
      <point x="510.75728155339806" y="688.1067961165049" type="line"/>
      <point x="63.14563106796115" y="688.1067961165049" type="line"/>
      <point x="66.88349514563104" y="605.1553398058252"/>
      <point x="70.62135922330094" y="513.4660194174758"/>
      <point x="74.72815533980581" y="415.77669902912623" type="curve"/>
      <point x="74.72815533980581" y="299.9805825242719" type="line"/>
      <point x="143.96116504854368" y="294.873786407767" type="line"/>
      <point x="177.84466019417474" y="312.3398058252427"/>
      <point x="226.5728155339806" y="326.126213592233"/>
      <point x="260.252427184466" y="326.126213592233" type="curve"/>
      <point x="331.29126213592235" y="323.75728155339806"/>
      <point x="379.11650485436894" y="295.6601941747573"/>
      <point x="379.11650485436894" y="225.58252427184468" type="curve" smooth="yes"/>
      <point x="379.11650485436894" y="159.55339805825244"/>
      <point x="342.0776699029126" y="124.62135922330098"/>
      <point x="260.6796116504854" y="122.25242718446604" type="curve"/>
      <point x="234.6893203883495" y="122.25242718446604"/>
      <point x="125.09708737864077" y="156.46601941747574"/>
      <point x="49.15533980582524" y="182.8834951456311" type="curve"/>
      <point x="35.94174757281554" y="31.83495145631068" type="line"/>
      <point x="107.62135922330097" y="13.15533980582524"/>
      <point x="233.68932038834953" y="-13.475728155339805"/>
    </contour>
  </outline>
</glyph>
<glyph name="six" format="2">
  <advance width="617.9029126213593"/>
  <unicode hex="0036"/>
  <outline>
    <contour>
      <point x="324.6893203883495" y="-13.475728155339805" type="curve" smooth="yes"/>
      <point x="500.54368932038835" y="-13.475728155339805"/>
      <point x="579.1747572815534" y="106.26213592233009"/>
      <point x="579.1747572815534" y="232.15533980582524" type="curve" smooth="yes"/>
      <point x="579.1747572815534" y="362.15533980582524"/>
      <point x="494.06796116504853" y="443.3592233009708"/>
      <point x="370.86407766990294" y="443.3592233009708" type="curve" smooth="yes"/>
      <point x="313.1359223300971" y="443.3592233009708"/>
      <point x="258.03883495145635" y="416.4757281553398"/>
      <point x="213.20388349514565" y="384.2718446601942" type="curve"/>
      <point x="195.72815533980585" y="384.9029126213592" type="line"/>
      <point x="160.02912621359224" y="336.1067961165049"/>
      <point x="158.6601941747573" y="320.84466019417476"/>
      <point x="197.09708737864077" y="274.09708737864077" type="curve"/>
      <point x="234.9223300970874" y="308.6601941747573"/>
      <point x="282.2718446601941" y="328.8640776699029"/>
      <point x="319.73786407766994" y="329.49514563106794" type="curve"/>
      <point x="386.07766990291265" y="325.757281553398"/>
      <point x="419.06796116504853" y="286.66990291262135"/>
      <point x="419.06796116504853" y="229.58252427184468" type="curve" smooth="yes"/>
      <point x="419.06796116504853" y="171.49514563106797"/>
      <point x="385.07766990291265" y="125.62135922330098"/>
      <point x="317.47572815533977" y="122.25242718446604" type="curve"/>
      <point x="244.50485436893206" y="130.0970873786408"/>
      <point x="199.35922330097088" y="183.97087378640776"/>
      <point x="199.35922330097088" y="333.6893203883495" type="curve" smooth="yes"/>
      <point x="199.35922330097088" y="492.24271844660194"/>
      <point x="238.76699029126215" y="561.3786407766991"/>
      <point x="348.8543689320388" y="566.4854368932039" type="curve"/>
      <point x="363.6407766990291" y="566.4854368932039"/>
      <point x="459.54368932038835" y="537.009708737864"/>
      <point x="522.8543689320388" y="513.2233009708739" type="curve"/>
      <point x="537.0679611650486" y="661.5339805825244" type="line"/>
      <point x="486.22330097087377" y="675.4271844660194"/>
      <point x="373.1650485436893" y="702.8446601941748"/>
      <point x="337.90291262135923" y="702.8446601941748" type="curve" smooth="yes"/>
      <point x="163.4271844660194" y="702.8446601941748"/>
      <point x="41.99029126213591" y="594.5436893203884"/>
      <point x="41.99029126213591" y="337.4271844660194" type="curve" smooth="yes"/>
      <point x="41.99029126213591" y="106.26213592233009"/>
      <point x="137.0970873786408" y="-13.475728155339805"/>
    </contour>
  </outline>
</glyph>
<glyph name="less" format="2">
  <advance width="579.7368421052631"/>
  <unicode hex="003C"/>
  <outline>
    <contour>
      <point x="529.4736842105264" y="44.55263157894736" type="curve"/>
      <point x="529.4736842105264" y="201.9736842105263" type="line"/>
      <point x="471.5263157894737" y="221.5"/>
      <point x="410.84210526315786" y="242.3947368421053"/>
      <point x="352.2105263157895" y="262.2631578947368" type="curve"/>
      <point x="258.7105263157895" y="297.57894736842104" type="line"/>
      <point x="258.7105263157895" y="310.1578947368421" type="line"/>
      <point x="352.2105263157895" y="345.4736842105263" type="line"/>
      <point x="410.84210526315786" y="365.3421052631579"/>
      <point x="471.5263157894737" y="386.2368421052631"/>
      <point x="529.4736842105264" y="405.7631578947368" type="curve"/>
      <point x="529.4736842105264" y="563.1842105263158" type="line"/>
      <point x="458.97368421052636" y="533.5526315789474"/>
      <point x="393.7368421052631" y="505.8947368421053"/>
      <point x="337.5526315789474" y="482.2631578947369" type="curve"/>
      <point x="241.5" y="445.1578947368421" type="line"/>
      <point x="184.28947368421055" y="425.4736842105263"/>
      <point x="119.10526315789474" y="402.7894736842105"/>
      <point x="50.26315789473684" y="379.10526315789474" type="curve"/>
      <point x="50.26315789473684" y="228.6315789473684" type="line"/>
      <point x="119.10526315789474" y="205.28947368421052"/>
      <point x="184.97368421052633" y="182.26315789473682"/>
      <point x="241.5" y="162.57894736842104" type="curve"/>
      <point x="337.5526315789474" y="125.47368421052632" type="line"/>
      <point x="394.4210526315789" y="101.5"/>
      <point x="459.65789473684214" y="73.84210526315789"/>
    </contour>
  </outline>
</glyph>
<glyph name="equal" format="2">
  <advance width="579.7368421052631"/>
  <unicode hex="003D"/>
  <outline>
    <contour>
      <point x="56.84210526315789" y="109.18421052631578" type="line"/>
      <point x="126.02631578947368" y="111.49999999999999"/>
      <point x="198.94736842105263" y="113.8157894736842"/>
      <point x="248.42105263157896" y="115.13157894736841" type="curve"/>
      <point x="331.3157894736842" y="115.13157894736841" type="line"/>
      <point x="380.7894736842105" y="113.8157894736842"/>
      <point x="453.7105263157895" y="111.49999999999999"/>
      <point x="522.8947368421053" y="109.18421052631578" type="curve"/>
      <point x="522.8947368421053" y="256.3421052631579" type="line"/>
      <point x="453.7105263157895" y="254.0263157894737"/>
      <point x="380.7894736842105" y="251.71052631578948"/>
      <point x="331.3157894736842" y="250.39473684210526" type="curve"/>
      <point x="248.42105263157896" y="250.39473684210526" type="line"/>
      <point x="198.94736842105263" y="251.71052631578948"/>
      <point x="126.02631578947368" y="254.0263157894737"/>
      <point x="56.84210526315789" y="256.3421052631579" type="curve"/>
    </contour>
    <contour>
      <point x="56.84210526315789" y="352.07894736842104" type="line"/>
      <point x="126.02631578947368" y="354.3947368421053"/>
      <point x="198.94736842105263" y="356.7105263157895"/>
      <point x="248.42105263157896" y="358.0263157894737" type="curve"/>
      <point x="331.3157894736842" y="358.0263157894737" type="line"/>
      <point x="380.7894736842105" y="356.7105263157895"/>
      <point x="453.7105263157895" y="354.3947368421053"/>
      <point x="522.8947368421053" y="352.07894736842104" type="curve"/>
      <point x="522.8947368421053" y="499.2368421052632" type="line"/>
      <point x="453.7105263157895" y="496.9210526315789"/>
      <point x="380.7894736842105" y="494.60526315789474"/>
      <point x="331.3157894736842" y="493.2894736842105" type="curve"/>
      <point x="248.42105263157896" y="493.2894736842105" type="line"/>
      <point x="198.94736842105263" y="494.60526315789474"/>
      <point x="126.02631578947368" y="496.9210526315789"/>
      <point x="56.84210526315789" y="499.2368421052632" type="curve"/>
    </contour>
  </outline>
</glyph>
<glyph name="greater" format="2">
  <advance width="579.7368421052631"/>
  <unicode hex="003E"/>
  <outline>
    <contour>
      <point x="50.26315789473684" y="44.55263157894736" type="line"/>
      <point x="120.76315789473685" y="74.1842105263158"/>
      <point x="186.0" y="101.84210526315789"/>
      <point x="242.18421052631578" y="125.47368421052632" type="curve"/>
      <point x="338.2368421052632" y="162.57894736842104" type="line"/>
      <point x="395.4473684210526" y="182.26315789473682"/>
      <point x="460.63157894736844" y="204.94736842105263"/>
      <point x="529.4736842105264" y="228.6315789473684" type="curve"/>
      <point x="529.4736842105264" y="379.10526315789474" type="line"/>
      <point x="460.63157894736844" y="402.44736842105266"/>
      <point x="394.7631578947368" y="425.4736842105263"/>
      <point x="338.2368421052632" y="445.1578947368421" type="curve"/>
      <point x="242.18421052631578" y="482.2631578947369" type="line"/>
      <point x="185.31578947368422" y="506.2368421052632"/>
      <point x="120.07894736842105" y="533.8947368421053"/>
      <point x="50.26315789473684" y="563.1842105263158" type="curve"/>
      <point x="50.26315789473684" y="405.7631578947368" type="line"/>
      <point x="108.21052631578948" y="386.2368421052631"/>
      <point x="168.89473684210526" y="365.3421052631579"/>
      <point x="227.52631578947367" y="345.4736842105263" type="curve"/>
      <point x="321.02631578947364" y="310.1578947368421" type="line"/>
      <point x="321.02631578947364" y="297.57894736842104" type="line"/>
      <point x="227.52631578947367" y="262.2631578947368" type="line"/>
      <point x="168.89473684210526" y="242.3947368421053"/>
      <point x="108.21052631578948" y="221.5"/>
      <point x="50.26315789473684" y="201.9736842105263" type="curve"/>
    </contour>
  </outline>
</glyph>
<glyph name="at" format="2">
  <advance width="892.7631578947369"/>
  <unicode hex="0040"/>
  <outline>
    <contour>
      <point x="476.57894736842104" y="-145.0263157894737" type="curve" smooth="yes"/>
      <point x="541.8947368421052" y="-145.0263157894737"/>
      <point x="666.921052631579" y="-104.63157894736842"/>
      <point x="759.8947368421053" y="-78.23684210526316" type="curve"/>
      <point x="759.8947368421053" y="26.52631578947369" type="line"/>
      <point x="640.9999999999999" y="-18.76315789473684"/>
      <point x="517.0526315789473" y="-52.815789473684205"/>
      <point x="476.57894736842104" y="-55.473684210526315" type="curve"/>
      <point x="213.26315789473685" y="-51.1578947368421"/>
      <point x="94.47368421052632" y="118.3157894736842"/>
      <point x="142.10526315789474" y="336.2894736842105" type="curve" smooth="yes"/>
      <point x="178.21052631578948" y="502.86842105263156"/>
      <point x="291.0" y="603.6315789473684"/>
      <point x="471.57894736842104" y="607.9473684210526" type="curve"/>
      <point x="674.2105263157895" y="603.6315789473684"/>
      <point x="788.3684210526317" y="474.07894736842104"/>
      <point x="752.0" y="273.6578947368421" type="curve" smooth="yes"/>
      <point x="747.2894736842105" y="248.10526315789474"/>
      <point x="681.8421052631579" y="168.00000000000003"/>
      <point x="651.1315789473684" y="158.78947368421052" type="curve"/>
      <point x="610.2631578947369" y="162.44736842105266"/>
      <point x="596.7894736842105" y="194.73684210526315"/>
      <point x="607.8157894736842" y="247.23684210526315" type="curve"/>
      <point x="627.0" y="339.13157894736844" type="line"/>
      <point x="642.2631578947369" y="387.3157894736842"/>
      <point x="658.5526315789473" y="438.60526315789474"/>
      <point x="674.5000000000001" y="485.89473684210526" type="curve"/>
      <point x="551.7105263157895" y="479.60526315789474" type="line"/>
      <point x="534.7368421052631" y="429.8421052631579" type="line"/>
      <point x="524.4736842105264" y="429.8421052631579" type="line"/>
      <point x="490.13157894736844" y="464.10526315789474"/>
      <point x="443.2631578947369" y="491.2368421052632"/>
      <point x="412.07894736842104" y="491.2368421052632" type="curve" smooth="yes"/>
      <point x="319.39473684210526" y="491.2368421052632"/>
      <point x="253.94736842105263" y="411.05263157894734"/>
      <point x="233.23684210526315" y="309.2105263157895" type="curve" smooth="yes"/>
      <point x="207.57894736842104" y="182.6578947368421"/>
      <point x="261.4736842105263" y="69.05263157894737"/>
      <point x="373.2631578947368" y="69.05263157894737" type="curve" smooth="yes"/>
      <point x="398.05263157894734" y="69.05263157894737"/>
      <point x="444.8684210526316" y="96.44736842105264"/>
      <point x="491.84210526315786" y="131.84210526315792" type="curve"/>
      <point x="501.4473684210526" y="131.84210526315792" type="line"/>
      <point x="520.2894736842105" y="94.13157894736841"/>
      <point x="571.2894736842105" y="60.368421052631575"/>
      <point x="656.1578947368421" y="60.368421052631575" type="curve" smooth="yes"/>
      <point x="698.3947368421052" y="60.368421052631575"/>
      <point x="831.1842105263158" y="176.02631578947364"/>
      <point x="846.4736842105264" y="254.5" type="curve" smooth="yes"/>
      <point x="894.078947368421" y="499.2631578947368"/>
      <point x="732.9473684210526" y="697.5"/>
      <point x="473.2368421052632" y="697.5" type="curve" smooth="yes"/>
      <point x="277.9736842105263" y="697.5"/>
      <point x="97.55263157894737" y="592.5526315789474"/>
      <point x="47.94736842105263" y="356.7368421052632" type="curve" smooth="yes"/>
      <point x="-8.263157894736842" y="91.21052631578948"/>
      <point x="151.18421052631578" y="-145.0263157894737"/>
    </contour>
    <contour>
      <point x="410.8157894736842" y="178.6578947368421" type="curve"/>
      <point x="362.44736842105266" y="180.6578947368421"/>
      <point x="342.5526315789474" y="230.10526315789474"/>
      <point x="354.36842105263156" y="287.13157894736844" type="curve" smooth="yes"/>
      <point x="365.4736842105263" y="339.9473684210526"/>
      <point x="396.10526315789474" y="376.65789473684214"/>
      <point x="443.6842105263158" y="379.3157894736842" type="curve"/>
      <point x="464.57894736842104" y="377.0"/>
      <point x="488.6842105263158" y="363.7631578947368"/>
      <point x="505.65789473684214" y="348.52631578947364" type="curve"/>
      <point x="478.7894736842105" y="223.60526315789474" type="line"/>
      <point x="456.7894736842105" y="196.57894736842107"/>
      <point x="430.3157894736842" y="182.63157894736844"/>
    </contour>
  </outline>
</glyph>
<glyph name="B" format="2">
  <advance width="667.6990291262135"/>
  <unicode hex="0042"/>
  <outline>
    <contour>
      <point x="324.42718446601947" y="-6.475728155339807" type="curve"/>
      <point x="564.7572815533981" y="-6.475728155339807"/>
      <point x="636.8640776699029" y="80.15533980582525"/>
      <point x="636.8640776699029" y="200.2135922330097" type="curve" smooth="yes"/>
      <point x="636.8640776699029" y="305.26213592233006"/>
      <point x="576.7669902912621" y="352.36893203883494"/>
      <point x="489.7572815533981" y="371.58252427184465" type="curve"/>
      <point x="489.7572815533981" y="384.4271844660194" type="line"/>
      <point x="564.2330097087379" y="402.9514563106796"/>
      <point x="620.3398058252427" y="458.2135922330097"/>
      <point x="620.3398058252427" y="549.5825242718447" type="curve" smooth="yes"/>
      <point x="620.3398058252427" y="654.1067961165049"/>
      <point x="554.0776699029126" y="718.1067961165049"/>
      <point x="362.3203883495146" y="718.1067961165049" type="curve"/>
      <point x="258.8932038834952" y="718.1067961165049"/>
      <point x="152.14563106796115" y="713.0"/>
      <point x="57.87378640776698" y="713.0" type="curve"/>
      <point x="61.980582524271846" y="634.7378640776699"/>
      <point x="65.71844660194175" y="568.8446601941748"/>
      <point x="71.19417475728156" y="474.63106796116506" type="curve"/>
      <point x="71.19417475728156" y="232.15533980582524" type="line"/>
      <point x="66.0873786407767" y="142.04854368932038"/>
      <point x="61.980582524271846" y="75.52427184466019"/>
      <point x="57.87378640776698" y="0.0" type="curve"/>
      <point x="140.66990291262138" y="0.0"/>
      <point x="216.0" y="-6.475728155339807"/>
    </contour>
    <contour>
      <point x="243.99029126213594" y="127.873786407767" type="line"/>
      <point x="242.9902912621359" y="170.23300970873788"/>
      <point x="241.62135922330097" y="213.33009708737862"/>
      <point x="240.25242718446603" y="269.37864077669906" type="curve"/>
      <point x="240.25242718446603" y="436.5145631067961" type="line"/>
      <point x="241.62135922330097" y="496.56310679611653"/>
      <point x="242.9902912621359" y="541.7669902912621"/>
      <point x="243.99029126213594" y="586.6019417475727" type="curve"/>
      <point x="349.00000000000006" y="586.6019417475727" type="line" smooth="yes"/>
      <point x="412.3980582524272" y="586.6019417475727"/>
      <point x="442.80582524271847" y="557.8155339805826"/>
      <point x="442.80582524271847" y="504.7766990291262" type="curve" smooth="yes"/>
      <point x="442.80582524271847" y="453.4174757281553"/>
      <point x="409.4466019417476" y="418.11650485436894"/>
      <point x="339.8446601941748" y="418.11650485436894" type="curve" smooth="yes"/>
      <point x="199.55339805825244" y="418.11650485436894" type="line"/>
      <point x="199.55339805825244" y="299.4077669902913" type="line"/>
      <point x="347.5339805825243" y="299.4077669902913" type="line" smooth="yes"/>
      <point x="419.24271844660194" y="299.4077669902913"/>
      <point x="457.9611650485437" y="271.99029126213594"/>
      <point x="457.9611650485437" y="214.9029126213592" type="curve" smooth="yes"/>
      <point x="457.9611650485437" y="158.12621359223303"/>
      <point x="422.0776699029126" y="127.873786407767"/>
      <point x="340.8543689320388" y="127.873786407767" type="curve" smooth="yes"/>
    </contour>
  </outline>
</glyph>
<glyph name="C" format="2">
  <advance width="682.7105263157895"/>
  <unicode hex="0043"/>
  <anchor x="395.7368421052632" y="0.0" name="bottom"/>
  <anchor x="392.3157894736842" y="713.0" name="top"/>
  <outline>
    <contour>
      <point x="413.7105263157895" y="-13.605263157894736" type="curve" smooth="yes"/>
      <point x="455.1315789473684" y="-13.605263157894736"/>
      <point x="575.5" y="8.815789473684209"/>
      <point x="636.1842105263158" y="27.86842105263158" type="curve"/>
      <point x="626.8947368421053" y="190.55263157894737" type="line"/>
      <point x="560.7894736842105" y="161.1578947368421"/>
      <point x="461.8157894736842" y="127.94736842105264"/>
      <point x="435.39473684210526" y="127.94736842105264" type="curve"/>
      <point x="288.2105263157895" y="131.60526315789477"/>
      <point x="216.0263157894737" y="232.8684210526316"/>
      <point x="216.0263157894737" y="356.0263157894737" type="curve" smooth="yes"/>
      <point x="216.0263157894737" y="501.4473684210526"/>
      <point x="302.57894736842104" y="577.8157894736842"/>
      <point x="399.36842105263156" y="581.4736842105262" type="curve"/>
      <point x="421.44736842105266" y="581.4736842105262"/>
      <point x="529.3421052631578" y="551.8421052631579"/>
      <point x="627.3157894736843" y="515.8684210526316" type="curve"/>
      <point x="640.2105263157895" y="678.2105263157895" type="line"/>
      <point x="563.7894736842106" y="700.1578947368422"/>
      <point x="442.7631578947368" y="727.6315789473684"/>
      <point x="401.0263157894737" y="727.6315789473684" type="curve" smooth="yes"/>
      <point x="171.4736842105263" y="727.6315789473684"/>
      <point x="36.315789473684205" y="570.078947368421"/>
      <point x="36.315789473684205" y="355.7105263157895" type="curve" smooth="yes"/>
      <point x="36.315789473684205" y="134.57894736842104"/>
      <point x="181.18421052631578" y="-13.605263157894736"/>
    </contour>
  </outline>
</glyph>
<glyph name="D" format="2">
  <advance width="736.3684210526316"/>
  <unicode hex="0044"/>
  <anchor x="353.2894736842105" y="0.0" name="bottom"/>
  <anchor x="368.6842105263158" y="357.0" name="center"/>
  <anchor x="353.2894736842105" y="713.0" name="top"/>
  <outline>
    <contour>
      <point x="58.0" y="0.0" type="curve"/>
      <point x="137.6315789473684" y="-1.3157894736842106"/>
      <point x="218.89473684210526" y="-3.6315789473684212"/>
      <point x="320.92105263157896" y="-6.2631578947368425" type="curve"/>
      <point x="600.7105263157895" y="-6.2631578947368425"/>
      <point x="700.0526315789474" y="157.02631578947367"/>
      <point x="700.0526315789474" y="358.6842105263158" type="curve" smooth="yes"/>
      <point x="700.0526315789474" y="584.6052631578947"/>
      <point x="575.078947368421" y="717.9473684210526"/>
      <point x="358.3421052631579" y="717.9473684210526" type="curve"/>
      <point x="250.4736842105263" y="715.9736842105262"/>
      <point x="145.1052631578947" y="714.3157894736842"/>
      <point x="58.0" y="713.0" type="curve"/>
      <point x="62.28947368421053" y="634.6315789473684"/>
      <point x="65.57894736842104" y="568.578947368421"/>
      <point x="71.18421052631578" y="474.3421052631579" type="curve"/>
      <point x="71.18421052631578" y="232.07894736842104" type="line"/>
      <point x="66.23684210526315" y="141.78947368421052"/>
      <point x="62.28947368421053" y="75.73684210526315"/>
    </contour>
    <contour>
      <point x="247.94736842105263" y="137.57894736842104" type="line"/>
      <point x="246.94736842105263" y="178.60526315789474"/>
      <point x="244.9736842105263" y="219.89473684210526"/>
      <point x="243.9736842105263" y="274.1842105263158" type="curve"/>
      <point x="243.9736842105263" y="433.55263157894734" type="line"/>
      <point x="245.6315789473684" y="490.4736842105263"/>
      <point x="246.94736842105263" y="532.421052631579"/>
      <point x="247.94736842105263" y="575.421052631579" type="curve"/>
      <point x="328.34210526315786" y="575.421052631579" type="line"/>
      <point x="470.7631578947368" y="570.4473684210526"/>
      <point x="520.3421052631579" y="489.5526315789474"/>
      <point x="520.3421052631579" y="361.0" type="curve" smooth="yes"/>
      <point x="520.3421052631579" y="232.8684210526316"/>
      <point x="476.84210526315786" y="143.21052631578945"/>
      <point x="320.60526315789474" y="137.57894736842104" type="curve"/>
    </contour>
  </outline>
</glyph>
<glyph name="E" format="2">
  <advance width="599.9514563106796"/>
  <unicode hex="0045"/>
  <anchor x="310.5242718446602" y="0.0" name="bottom"/>
  <anchor x="548.2718446601942" y="0.0" name="ogonek"/>
  <anchor x="310.5242718446602" y="713.0" name="top"/>
  <anchor x="37.36893203883495" y="713.0" name="topleft"/>
  <outline>
    <contour>
      <point x="57.87378640776698" y="0.0" type="curve"/>
      <point x="253.83495145631068" y="0.0" type="line"/>
      <point x="253.83495145631068" y="27.378640776699033" type="line"/>
      <point x="249.0970873786408" y="103.90291262135923"/>
      <point x="244.99029126213594" y="170.4271844660194"/>
      <point x="239.8834951456311" y="259.5339805825243" type="curve"/>
      <point x="239.8834951456311" y="447.252427184466" type="line"/>
      <point x="244.99029126213594" y="539.0970873786407"/>
      <point x="249.0970873786408" y="607.3592233009708"/>
      <point x="253.83495145631068" y="685.6213592233009" type="curve"/>
      <point x="253.83495145631068" y="713.0" type="line"/>
      <point x="57.87378640776698" y="713.0" type="line"/>
      <point x="61.980582524271846" y="634.7378640776699"/>
      <point x="65.71844660194175" y="568.8446601941748"/>
      <point x="71.19417475728156" y="474.63106796116506" type="curve"/>
      <point x="71.19417475728156" y="232.15533980582524" type="line"/>
      <point x="66.0873786407767" y="142.04854368932038"/>
      <point x="61.980582524271846" y="75.52427184466019"/>
    </contour>
    <contour>
      <point x="220.82524271844662" y="0.0" type="line"/>
      <point x="552.3786407766991" y="0.0" type="line"/>
      <point x="552.3786407766991" y="153.57281553398062" type="line"/>
      <point x="487.0679611650486" y="148.8349514563107"/>
      <point x="417.75728155339806" y="144.72815533980585"/>
      <point x="339.1844660194175" y="139.99029126213594" type="curve"/>
      <point x="220.82524271844662" y="139.99029126213594" type="line"/>
    </contour>
    <contour>
      <point x="200.55339805825244" y="294.3495145631068" type="line"/>
      <point x="330.12621359223306" y="294.3495145631068" type="line"/>
      <point x="414.1747572815534" y="291.24271844660194"/>
      <point x="471.33009708737865" y="288.873786407767"/>
      <point x="533.1165048543689" y="287.1359223300971" type="curve"/>
      <point x="533.1165048543689" y="432.91262135922335" type="line"/>
      <point x="474.33009708737865" y="430.5436893203884"/>
      <point x="417.1747572815534" y="427.8058252427185"/>
      <point x="330.126213592233" y="424.0679611650486" type="curve"/>
      <point x="200.55339805825244" y="424.0679611650486" type="line"/>
    </contour>
    <contour>
      <point x="210.50485436893206" y="573.0097087378641" type="line"/>
      <point x="326.9708737864078" y="573.0097087378641" type="line"/>
      <point x="421.17475728155347" y="566.9029126213592"/>
      <point x="486.8543689320389" y="563.7961165048545"/>
      <point x="547.9029126213592" y="559.4271844660195" type="curve"/>
      <point x="547.9029126213592" y="713.0" type="line"/>
      <point x="210.50485436893206" y="713.0" type="line"/>
    </contour>
  </outline>
</glyph>
<glyph name="F" format="2">
  <advance width="580.8684210526316"/>
  <unicode hex="0046"/>
  <outline>
    <contour>
      <point x="58.0" y="0.0" type="curve"/>
      <point x="253.5526315789474" y="0.0" type="line"/>
      <point x="249.26315789473685" y="76.39473684210526"/>
      <point x="244.97368421052633" y="142.44736842105263"/>
      <point x="240.0263157894737" y="232.07894736842104" type="curve"/>
      <point x="240.0263157894737" y="447.0" type="line"/>
      <point x="244.97368421052633" y="539.2631578947369"/>
      <point x="249.26315789473685" y="607.2894736842105"/>
      <point x="253.5526315789474" y="685.6578947368421" type="curve"/>
      <point x="253.5526315789474" y="713.0" type="line"/>
      <point x="58.0" y="713.0" type="line"/>
      <point x="62.28947368421053" y="634.6315789473684"/>
      <point x="65.57894736842104" y="568.578947368421"/>
      <point x="71.18421052631578" y="474.3421052631579" type="curve"/>
      <point x="71.18421052631578" y="232.07894736842104" type="line"/>
      <point x="66.23684210526315" y="141.78947368421052"/>
      <point x="62.28947368421053" y="75.73684210526315"/>
    </contour>
    <contour>
      <point x="196.5263157894737" y="279.89473684210526" type="line"/>
      <point x="322.63157894736844" y="279.89473684210526" type="line"/>
      <point x="406.7631578947368" y="276.60526315789474"/>
      <point x="463.8421052631579" y="274.2894736842105"/>
      <point x="525.6052631578947" y="272.3157894736842" type="curve"/>
      <point x="525.6052631578947" y="426.39473684210526" type="line"/>
      <point x="467.1842105263158" y="424.07894736842104"/>
      <point x="409.4210526315789" y="421.10526315789474"/>
      <point x="322.9736842105263" y="417.4736842105263" type="curve"/>
      <point x="196.5263157894737" y="417.4736842105263" type="line"/>
    </contour>
    <contour>
      <point x="207.05263157894737" y="569.5" type="line"/>
      <point x="320.5526315789474" y="569.5" type="line"/>
      <point x="414.7631578947368" y="563.8947368421053"/>
      <point x="480.2368421052632" y="559.921052631579"/>
      <point x="541.3684210526316" y="556.2894736842105" type="curve"/>
      <point x="541.3684210526316" y="713.0" type="line"/>
      <point x="207.05263157894737" y="713.0" type="line"/>
    </contour>
  </outline>
</glyph>
<glyph name="G" format="2">
  <advance width="727.1315789473684"/>
  <unicode hex="0047"/>
  <anchor x="395.7368421052632" y="0.0" name="bottom"/>
  <anchor x="395.7368421052632" y="713.0" name="top"/>
  <outline>
    <contour>
      <point x="421.5263157894737" y="-12.947368421052632" type="curve" smooth="yes"/>
      <point x="464.3157894736842" y="-12.947368421052632"/>
      <point x="614.0526315789474" y="6.13157894736842"/>
      <point x="679.7368421052631" y="20.526315789473685" type="curve"/>
      <point x="651.3684210526316" y="177.28947368421052" type="line"/>
      <point x="576.9736842105264" y="151.8947368421053"/>
      <point x="468.3684210526316" y="124.65789473684211"/>
      <point x="436.6578947368421" y="124.65789473684211" type="curve"/>
      <point x="285.1578947368421" y="128.31578947368422"/>
      <point x="214.71052631578948" y="229.21052631578948"/>
      <point x="214.71052631578948" y="355.7105263157895" type="curve" smooth="yes"/>
      <point x="214.71052631578948" y="503.4473684210526"/>
      <point x="306.1842105263158" y="578.4736842105262"/>
      <point x="401.42105263157896" y="581.4736842105262" type="curve"/>
      <point x="425.15789473684214" y="581.4736842105262"/>
      <point x="541.9736842105262" y="552.5"/>
      <point x="647.8947368421053" y="516.5263157894736" type="curve"/>
      <point x="660.7894736842105" y="676.2368421052632" type="line"/>
      <point x="578.421052631579" y="699.5"/>
      <point x="447.7894736842105" y="727.6315789473684"/>
      <point x="402.7368421052631" y="727.6315789473684" type="curve" smooth="yes"/>
      <point x="175.68421052631578" y="727.6315789473684"/>
      <point x="36.315789473684205" y="574.6315789473684"/>
      <point x="36.315789473684205" y="356.36842105263156" type="curve" smooth="yes"/>
      <point x="36.315789473684205" y="141.1578947368421"/>
      <point x="176.4736842105263" y="-12.947368421052632"/>
    </contour>
    <contour>
      <point x="503.60526315789474" y="20.526315789473685" type="curve"/>
      <point x="679.7368421052631" y="20.526315789473685" type="line"/>
      <point x="676.7631578947368" y="93.78947368421052"/>
      <point x="674.1315789473683" y="148.02631578947367"/>
      <point x="671.8157894736842" y="204.60526315789474" type="curve"/>
      <point x="676.7631578947368" y="269.8684210526316"/>
      <point x="680.7105263157894" y="317.13157894736844"/>
      <point x="685.0" y="370.0526315789474" type="curve"/>
      <point x="496.6842105263158" y="370.0526315789474" type="line"/>
      <point x="500.9736842105263" y="317.13157894736844"/>
      <point x="505.2631578947368" y="269.8684210526316"/>
      <point x="510.2105263157895" y="204.60526315789474" type="curve"/>
      <point x="507.89473684210526" y="148.02631578947367"/>
      <point x="506.5789473684211" y="95.10526315789473"/>
    </contour>
  </outline>
</glyph>
<glyph name="H" format="2">
  <advance width="757.2368421052631"/>
  <unicode hex="0048"/>
  <anchor x="378.9473684210526" y="0.0" name="bottom"/>
  <anchor x="378.9473684210526" y="357.0" name="center"/>
  <anchor x="378.9473684210526" y="713.0" name="top"/>
  <anchor x="40.60526315789474" y="713.0" name="topleft"/>
  <outline>
    <contour>
      <point x="499.7368421052632" y="0.0" type="curve"/>
      <point x="699.2368421052631" y="0.0" type="line"/>
      <point x="694.9473684210526" y="76.39473684210526"/>
      <point x="690.6578947368421" y="142.44736842105263"/>
      <point x="685.7105263157895" y="232.07894736842104" type="curve"/>
      <point x="685.7105263157895" y="474.3421052631579" type="line"/>
      <point x="691.3157894736842" y="568.578947368421"/>
      <point x="694.9473684210526" y="634.6315789473684"/>
      <point x="699.2368421052631" y="713.0" type="curve"/>
      <point x="499.7368421052632" y="713.0" type="line"/>
      <point x="504.0263157894737" y="634.6315789473684"/>
      <point x="507.3157894736842" y="568.578947368421"/>
      <point x="512.921052631579" y="474.3421052631579" type="curve"/>
      <point x="512.921052631579" y="232.07894736842104" type="line"/>
      <point x="507.9736842105263" y="141.78947368421052"/>
      <point x="504.0263157894737" y="75.73684210526315"/>
    </contour>
    <contour>
      <point x="58.0" y="0.0" type="curve"/>
      <point x="257.5" y="0.0" type="line"/>
      <point x="253.21052631578945" y="76.39473684210526"/>
      <point x="248.92105263157893" y="142.44736842105263"/>
      <point x="243.9736842105263" y="232.07894736842104" type="curve"/>
      <point x="243.9736842105263" y="474.3421052631579" type="line"/>
      <point x="249.57894736842104" y="568.578947368421"/>
      <point x="253.21052631578945" y="634.6315789473684"/>
      <point x="257.5" y="713.0" type="curve"/>
      <point x="58.0" y="713.0" type="line"/>
      <point x="62.28947368421053" y="634.6315789473684"/>
      <point x="65.57894736842104" y="568.578947368421"/>
      <point x="71.18421052631578" y="474.3421052631579" type="curve"/>
      <point x="71.18421052631578" y="232.07894736842104" type="line"/>
      <point x="66.23684210526315" y="141.78947368421052"/>
      <point x="62.28947368421053" y="75.73684210526315"/>
    </contour>
    <contour>
      <point x="196.6578947368421" y="287.13157894736844" type="line"/>
      <point x="561.921052631579" y="287.13157894736844" type="line"/>
      <point x="561.921052631579" y="430.63157894736844" type="line"/>
      <point x="196.6578947368421" y="430.63157894736844" type="line"/>
    </contour>
  </outline>
</glyph>
<glyph name="J" format="2">
  <advance width="327.57894736842104"/>
  <unicode hex="004A"/>
  <anchor x="164.05263157894737" y="0.0" name="bottom"/>
  <anchor x="164.05263157894737" y="713.0" name="top"/>
  <outline>
    <contour>
      <point x="18.184210526315788" y="-154.73684210526315" type="curve"/>
      <point x="172.65789473684214" y="-154.73684210526315" type="line"/>
      <point x="201.94736842105263" y="-106.02631578947368"/>
      <point x="262.3157894736842" y="8.473684210526315"/>
      <point x="262.3157894736842" y="63.94736842105264" type="curve" smooth="yes"/>
      <point x="262.3157894736842" y="150.1578947368421"/>
      <point x="252.76315789473685" y="241.3421052631579"/>
      <point x="252.76315789473685" y="333.4736842105263" type="curve"/>
      <point x="252.76315789473685" y="474.3421052631579" type="line"/>
      <point x="258.0263157894737" y="568.578947368421"/>
      <point x="261.3157894736842" y="634.6315789473684"/>
      <point x="266.2894736842105" y="713.0" type="curve"/>
      <point x="66.78947368421052" y="713.0" type="line"/>
      <point x="71.42105263157895" y="634.6315789473684"/>
      <point x="74.71052631578948" y="568.578947368421"/>
      <point x="79.97368421052632" y="474.3421052631579" type="curve"/>
      <point x="79.97368421052632" y="322.86842105263156" type="line"/>
      <point x="76.6578947368421" y="63.21052631578948" type="line"/>
      <point x="55.81578947368422" y="-14.342105263157892"/>
      <point x="37.0" y="-84.86842105263158"/>
    </contour>
  </outline>
</glyph>
<glyph name="K" format="2">
  <advance width="704.2368421052631"/>
  <unicode hex="004B"/>
  <anchor x="360.9473684210526" y="0.0" name="bottom"/>
  <anchor x="360.9473684210526" y="713.0" name="top"/>
  <outline>
    <contour>
      <point x="465.60526315789474" y="0.0" type="curve"/>
      <point x="700.2105263157895" y="0.0" type="line"/>
      <point x="648.3421052631579" y="66.89473684210526"/>
      <point x="566.3684210526316" y="173.71052631578948"/>
      <point x="505.7894736842105" y="252.92105263157896" type="curve"/>
      <point x="381.2105263157895" y="427.94736842105266" type="line"/>
      <point x="384.5" y="352.10526315789474" type="line"/>
      <point x="496.3421052631579" y="491.7105263157895" type="line"/>
      <point x="558.578947368421" y="565.3421052631579"/>
      <point x="619.8421052631578" y="636.9999999999999"/>
      <point x="685.4473684210527" y="713.0" type="curve"/>
      <point x="459.7368421052631" y="713.0" type="line"/>
      <point x="416.4736842105263" y="647.4736842105264"/>
      <point x="386.39473684210526" y="600.3684210526317"/>
      <point x="351.9473684210526" y="546.921052631579" type="curve"/>
      <point x="270.07894736842104" y="438.2631578947369" type="line"/>
      <point x="230.05263157894737" y="438.2631578947369" type="line"/>
      <point x="230.05263157894737" y="303.3157894736842" type="line"/>
      <point x="272.36842105263156" y="303.3157894736842" type="line"/>
      <point x="363.4473684210526" y="169.68421052631578" type="line"/>
      <point x="395.2368421052632" y="116.92105263157896"/>
      <point x="427.36842105263156" y="63.473684210526315"/>
    </contour>
    <contour>
      <point x="58.0" y="0.0" type="curve"/>
      <point x="256.8421052631579" y="0.0" type="line"/>
      <point x="252.55263157894737" y="76.39473684210526"/>
      <point x="248.26315789473685" y="142.44736842105263"/>
      <point x="243.31578947368422" y="232.07894736842104" type="curve"/>
      <point x="243.31578947368422" y="474.3421052631579" type="line"/>
      <point x="248.92105263157896" y="568.578947368421"/>
      <point x="252.55263157894737" y="634.6315789473684"/>
      <point x="256.8421052631579" y="713.0" type="curve"/>
      <point x="58.0" y="713.0" type="line"/>
      <point x="62.28947368421053" y="634.6315789473684"/>
      <point x="65.57894736842104" y="568.578947368421"/>
      <point x="71.18421052631578" y="474.3421052631579" type="curve"/>
      <point x="71.18421052631578" y="232.07894736842104" type="line"/>
      <point x="66.23684210526315" y="141.78947368421052"/>
      <point x="62.28947368421053" y="75.73684210526315"/>
    </contour>
  </outline>
</glyph>
<glyph name="L" format="2">
  <advance width="574.5526315789474"/>
  <unicode hex="004C"/>
  <anchor x="305.1842105263158" y="0.0" name="bottom"/>
  <anchor x="440.2894736842105" y="358.9736842105263" name="center"/>
  <anchor x="231.3421052631579" y="713.0" name="top"/>
  <anchor x="306.1578947368421" y="499.2631578947368" name="topright"/>
  <outline>
    <contour>
      <point x="58.0" y="0.0" type="curve"/>
      <point x="257.5" y="0.0" type="line"/>
      <point x="257.5" y="27.342105263157897" type="line"/>
      <point x="253.21052631578945" y="103.73684210526316"/>
      <point x="248.92105263157893" y="169.78947368421052"/>
      <point x="243.9736842105263" y="259.4210526315789" type="curve"/>
      <point x="243.9736842105263" y="474.3421052631579" type="line"/>
      <point x="249.57894736842104" y="568.578947368421"/>
      <point x="253.21052631578945" y="634.6315789473684"/>
      <point x="257.5" y="713.0" type="curve"/>
      <point x="58.0" y="713.0" type="line"/>
      <point x="62.28947368421053" y="634.6315789473684"/>
      <point x="65.57894736842104" y="568.578947368421"/>
      <point x="71.18421052631578" y="474.3421052631579" type="curve"/>
      <point x="71.18421052631578" y="232.07894736842104" type="line"/>
      <point x="66.23684210526315" y="141.78947368421052"/>
      <point x="62.28947368421053" y="75.73684210526315"/>
    </contour>
    <contour>
      <point x="220.86842105263156" y="0.0" type="line"/>
      <point x="545.7631578947369" y="0.0" type="line"/>
      <point x="545.7631578947369" y="167.89473684210526" type="line"/>
      <point x="475.5789473684211" y="162.28947368421052"/>
      <point x="416.42105263157896" y="158.0"/>
      <point x="315.13157894736844" y="150.07894736842104" type="curve"/>
      <point x="220.86842105263156" y="150.07894736842104" type="line"/>
    </contour>
  </outline>
</glyph>
<glyph name="M" format="2">
  <advance width="963.8157894736843"/>
  <unicode hex="004D"/>
  <anchor x="481.57894736842104" y="0.0" name="bottom"/>
  <anchor x="481.57894736842104" y="713.0" name="top"/>
  <outline>
    <contour>
      <point x="35.868421052631575" y="0.0" type="curve"/>
      <point x="226.1842105263158" y="0.0" type="line"/>
      <point x="231.3421052631579" y="97.6842105263158"/>
      <point x="235.81578947368422" y="184.94736842105263"/>
      <point x="239.60526315789474" y="261.13157894736844" type="curve"/>
      <point x="259.7368421052632" y="425.57894736842104" type="line"/>
      <point x="271.2894736842105" y="425.57894736842104" type="line"/>
      <point x="337.57894736842104" y="248.3421052631579" type="line"/>
      <point x="363.92105263157896" y="164.44736842105263"/>
      <point x="392.6578947368421" y="73.07894736842104"/>
      <point x="415.2631578947368" y="0.0" type="curve"/>
      <point x="555.4736842105264" y="0.0" type="line"/>
      <point x="577.1315789473683" y="75.8157894736842"/>
      <point x="603.1842105263157" y="163.42105263157896"/>
      <point x="628.2368421052631" y="249.02631578947367" type="curve"/>
      <point x="687.2894736842105" y="425.57894736842104" type="line"/>
      <point x="698.8421052631578" y="425.57894736842104" type="line"/>
      <point x="718.9736842105262" y="261.13157894736844" type="line"/>
      <point x="722.7631578947369" y="184.60526315789474"/>
      <point x="727.8947368421053" y="96.0"/>
      <point x="732.7105263157895" y="0.0" type="curve"/>
      <point x="927.9473684210527" y="0.0" type="line"/>
      <point x="914.6578947368422" y="75.73684210526315"/>
      <point x="901.3684210526316" y="145.42105263157896"/>
      <point x="885.7631578947368" y="232.07894736842104" type="curve"/>
      <point x="855.1315789473683" y="472.3421052631579" type="line"/>
      <point x="847.7631578947368" y="559.0263157894738"/>
      <point x="841.7368421052631" y="633.9736842105264"/>
      <point x="835.3684210526316" y="713.0" type="curve"/>
      <point x="637.8157894736842" y="713.0" type="line"/>
      <point x="613.1842105263157" y="631.2105263157895"/>
      <point x="591.8684210526316" y="561.6578947368421"/>
      <point x="569.578947368421" y="491.1578947368421" type="curve"/>
      <point x="490.5" y="280.0" type="line"/>
      <point x="479.2631578947369" y="280.0" type="line"/>
      <point x="396.89473684210526" y="491.1578947368421" type="line"/>
      <point x="373.94736842105266" y="562.0"/>
      <point x="351.3157894736843" y="631.8684210526317"/>
      <point x="326.0263157894737" y="713.0" type="curve"/>
      <point x="124.8421052631579" y="713.0" type="line"/>
      <point x="118.47368421052632" y="632.6315789473684"/>
      <point x="113.10526315789473" y="557.3157894736843"/>
      <point x="106.73684210526315" y="472.3421052631579" type="curve"/>
      <point x="77.07894736842105" y="232.07894736842104" type="line"/>
      <point x="61.78947368421053" y="146.39473684210526"/>
      <point x="48.84210526315789" y="74.42105263157896"/>
    </contour>
  </outline>
</glyph>
<glyph name="O" format="2">
  <advance width="813.7368421052631"/>
  <unicode hex="004F"/>
  <anchor x="407.0263157894737" y="0.0" name="bottom"/>
  <anchor x="407.0263157894737" y="357.0" name="center"/>
  <anchor x="517.0263157894738" y="0.0" name="ogonek"/>
  <anchor x="407.0263157894737" y="713.0" name="top"/>
  <anchor x="25.026315789473685" y="713.0" name="topleft"/>
  <anchor x="704.8947368421052" y="713.0" name="topright"/>
  <outline>
    <contour>
      <point x="410.36842105263156" y="-13.605263157894736" type="curve" smooth="yes"/>
      <point x="648.6842105263158" y="-13.605263157894736"/>
      <point x="777.421052631579" y="144.05263157894737"/>
      <point x="777.421052631579" y="356.6842105263158" type="curve" smooth="yes"/>
      <point x="777.421052631579" y="562.0"/>
      <point x="655.3421052631579" y="727.6315789473684"/>
      <point x="405.7368421052632" y="727.6315789473684" type="curve" smooth="yes"/>
      <point x="159.4736842105263" y="727.6315789473684"/>
      <point x="36.315789473684205" y="563.6842105263158"/>
      <point x="36.315789473684205" y="356.0263157894737" type="curve" smooth="yes"/>
      <point x="36.315789473684205" y="159.97368421052633"/>
      <point x="150.76315789473685" y="-13.605263157894736"/>
    </contour>
    <contour>
      <point x="407.7105263157895" y="127.94736842105264" type="curve"/>
      <point x="276.8421052631579" y="134.57894736842107"/>
      <point x="216.0263157894737" y="232.63157894736844"/>
      <point x="216.0263157894737" y="356.6842105263158" type="curve" smooth="yes"/>
      <point x="216.0263157894737" y="482.3684210526316"/>
      <point x="280.18421052631584" y="579.4473684210526"/>
      <point x="407.7105263157895" y="586.078947368421" type="curve"/>
      <point x="530.8684210526316" y="579.4473684210526"/>
      <point x="597.7105263157895" y="486.4736842105263"/>
      <point x="597.7105263157895" y="356.6842105263158" type="curve" smooth="yes"/>
      <point x="597.7105263157895" y="234.0"/>
      <point x="537.921052631579" y="134.57894736842107"/>
    </contour>
  </outline>
</glyph>
<glyph name="R" format="2">
  <advance width="698.9126213592233"/>
  <unicode hex="0052"/>
  <anchor x="350.2718446601942" y="0.0" name="bottom"/>
  <anchor x="341.0485436893204" y="713.0" name="top"/>
  <outline>
    <contour>
      <point x="469.747572815534" y="0.0" type="curve"/>
      <point x="692.1359223300971" y="0.0" type="line"/>
      <point x="650.4563106796115" y="57.0"/>
      <point x="589.1456310679611" y="142.4757281553398"/>
      <point x="541.4660194174756" y="207.84466019417476" type="curve"/>
      <point x="446.3203883495146" y="351.3203883495146" type="line"/>
      <point x="379.39805825242723" y="289.5728155339806" type="line"/>
      <point x="551.3398058252427" y="290.20388349514565"/>
      <point x="620.7669902912621" y="381.56310679611653"/>
      <point x="620.7669902912621" y="505.6213592233009" type="curve" smooth="yes"/>
      <point x="620.7669902912621" y="662.8446601941748"/>
      <point x="524.2815533980582" y="718.1067961165049"/>
      <point x="348.6407766990291" y="718.1067961165049" type="curve"/>
      <point x="246.16504854368932" y="716.73786407767"/>
      <point x="134.88349514563106" y="714.3689320388349"/>
      <point x="57.87378640776698" y="713.0" type="curve"/>
      <point x="185.97087378640776" y="578.8543689320388" type="line"/>
      <point x="342.90291262135923" y="578.8543689320388" type="line" smooth="yes"/>
      <point x="392.3106796116505" y="578.8543689320388"/>
      <point x="443.49514563106794" y="562.4271844660193"/>
      <point x="443.49514563106794" y="485.45631067961165" type="curve" smooth="yes"/>
      <point x="443.49514563106794" y="406.4757281553398"/>
      <point x="401.3495145631068" y="382.22330097087377"/>
      <point x="326.54368932038835" y="382.22330097087377" type="curve" smooth="yes"/>
      <point x="209.1359223300971" y="382.22330097087377" type="line"/>
      <point x="209.1359223300971" y="261.7281553398058" type="line"/>
      <point x="375.242718446602" y="261.7281553398058" type="line"/>
      <point x="272.8932038834952" y="337.84466019417476" type="line"/>
      <point x="387.30097087378635" y="154.252427184466" type="line"/>
      <point x="412.6601941747573" y="106.94174757281554"/>
      <point x="440.01941747572806" y="56.52427184466019"/>
    </contour>
    <contour>
      <point x="57.87378640776698" y="0.0" type="curve"/>
      <point x="254.20388349514562" y="0.0" type="line"/>
      <point x="250.0970873786408" y="76.52427184466019"/>
      <point x="245.35922330097088" y="142.41747572815532"/>
      <point x="240.8834951456311" y="232.15533980582524" type="curve"/>
      <point x="240.8834951456311" y="447.252427184466" type="line"/>
      <point x="245.35922330097088" y="539.0970873786407"/>
      <point x="250.0970873786408" y="607.3592233009709"/>
      <point x="254.20388349514562" y="685.6213592233009" type="curve"/>
      <point x="57.87378640776698" y="713.0" type="line"/>
      <point x="61.980582524271846" y="634.7378640776699"/>
      <point x="65.71844660194175" y="568.8446601941748"/>
      <point x="71.19417475728156" y="474.63106796116506" type="curve"/>
      <point x="71.19417475728156" y="232.15533980582524" type="line"/>
      <point x="66.0873786407767" y="142.04854368932038"/>
      <point x="61.980582524271846" y="75.52427184466019"/>
    </contour>
  </outline>
</glyph>
<glyph name="S" format="2">
  <advance width="602.1165048543689"/>
  <unicode hex="0053"/>
  <anchor x="302.95145631067965" y="0.0" name="bottom"/>
  <anchor x="302.95145631067965" y="713.0" name="top"/>
  <outline>
    <contour>
      <point x="296.8932038834952" y="-13.475728155339805" type="curve" smooth="yes"/>
      <point x="490.33009708737865" y="-13.475728155339805"/>
      <point x="573.0194174757281" y="72.41747572815535"/>
      <point x="573.0194174757281" y="205.27184466019418" type="curve" smooth="yes"/>
      <point x="573.0194174757281" y="323.59223300970876"/>
      <point x="517.6504854368932" y="373.0679611650486"/>
      <point x="347.0194174757281" y="423.4854368932039" type="curve" smooth="yes"/>
      <point x="259.621359223301" y="449.58252427184465"/>
      <point x="220.89320388349518" y="469.41747572815535"/>
      <point x="220.89320388349518" y="516.4563106796116" type="curve" smooth="yes"/>
      <point x="220.89320388349518" y="564.6504854368932"/>
      <point x="262.6116504854369" y="585.009708737864"/>
      <point x="313.59223300970876" y="587.378640776699" type="curve"/>
      <point x="333.4854368932038" y="587.378640776699"/>
      <point x="429.6990291262136" y="562.116504854369"/>
      <point x="519.2815533980582" y="532.4854368932039" type="curve"/>
      <point x="531.495145631068" y="688.1650485436893" type="line"/>
      <point x="461.59223300970876" y="703.0582524271846"/>
      <point x="345.6407766990291" y="727.7378640776699"/>
      <point x="291.84466019417476" y="727.7378640776699" type="curve" smooth="yes"/>
      <point x="120.62135922330097" y="727.7378640776699"/>
      <point x="38.883495145631066" y="640.5242718446601"/>
      <point x="38.883495145631066" y="513.7766990291262" type="curve" smooth="yes"/>
      <point x="38.883495145631066" y="388.0873786407767"/>
      <point x="114.77669902912622" y="338.50485436893206"/>
      <point x="243.71844660194174" y="301.8252427184466" type="curve" smooth="yes"/>
      <point x="335.17475728155335" y="275.62135922330094"/>
      <point x="392.00970873786406" y="253.78640776699032"/>
      <point x="392.00970873786406" y="200.2233009708738" type="curve" smooth="yes"/>
      <point x="392.00970873786406" y="148.24271844660194"/>
      <point x="349.29126213592235" y="127.14563106796118"/>
      <point x="295.15533980582524" y="124.77669902912623" type="curve"/>
      <point x="265.42718446601947" y="124.77669902912623"/>
      <point x="164.7864077669903" y="149.14563106796118"/>
      <point x="62.83495145631067" y="179.77669902912623" type="curve"/>
      <point x="50.62135922330096" y="23.466019417475724" type="line"/>
      <point x="139.46601941747574" y="4.679611650485435"/>
      <point x="246.89320388349515" y="-13.475728155339805"/>
    </contour>
  </outline>
</glyph>
<glyph name="U" format="2">
  <advance width="728.0526315789474"/>
  <unicode hex="0055"/>
  <anchor x="365.0263157894737" y="0.0" name="bottom"/>
  <anchor x="475.9736842105263" y="0.0" name="ogonek"/>
  <anchor x="365.0263157894737" y="713.0" name="top"/>
  <anchor x="706.7631578947369" y="713.0" name="topright"/>
  <outline>
    <contour>
      <point x="365.3421052631579" y="-13.605263157894736" type="curve" smooth="yes"/>
      <point x="574.3684210526316" y="-13.605263157894736"/>
      <point x="669.5263157894738" y="87.5"/>
      <point x="669.5263157894738" y="274.44736842105266" type="curve" smooth="yes"/>
      <point x="669.5263157894738" y="310.5526315789474"/>
      <point x="665.8947368421053" y="397.2105263157895"/>
      <point x="665.8947368421053" y="474.3421052631579" type="curve"/>
      <point x="671.5" y="568.578947368421"/>
      <point x="675.1315789473684" y="634.6315789473684"/>
      <point x="679.421052631579" y="713.0" type="curve"/>
      <point x="480.57894736842104" y="713.0" type="line"/>
      <point x="484.86842105263156" y="634.6315789473684"/>
      <point x="488.1578947368421" y="568.578947368421"/>
      <point x="493.7631578947368" y="474.3421052631579" type="curve"/>
      <point x="493.7631578947368" y="284.44736842105266" type="line" smooth="yes"/>
      <point x="493.7631578947368" y="181.42105263157893"/>
      <point x="459.42105263157896" y="131.57894736842107"/>
      <point x="364.6842105263158" y="127.94736842105264" type="curve"/>
      <point x="272.57894736842104" y="131.57894736842107"/>
      <point x="233.94736842105266" y="181.76315789473685"/>
      <point x="233.94736842105266" y="284.10526315789474" type="curve" smooth="yes"/>
      <point x="233.94736842105266" y="474.3421052631579" type="line"/>
      <point x="239.5526315789474" y="568.578947368421"/>
      <point x="243.1842105263158" y="634.6315789473684"/>
      <point x="247.47368421052636" y="713.0" type="curve"/>
      <point x="48.63157894736841" y="713.0" type="line"/>
      <point x="52.92105263157894" y="634.6315789473684"/>
      <point x="56.210526315789465" y="568.578947368421"/>
      <point x="61.815789473684205" y="474.3421052631579" type="curve"/>
      <point x="61.815789473684205" y="397.2105263157895"/>
      <point x="58.18421052631578" y="313.1842105263158"/>
      <point x="58.18421052631578" y="275.10526315789474" type="curve" smooth="yes"/>
      <point x="58.18421052631578" y="91.44736842105263"/>
      <point x="145.4736842105263" y="-13.605263157894736"/>
    </contour>
  </outline>
</glyph>
<glyph name="V" format="2">
  <advance width="715.3684210526316"/>
  <unicode hex="0056"/>
  <anchor x="358.02631578947364" y="0.0" name="bottom"/>
  <anchor x="358.02631578947364" y="713.0" name="top"/>
  <outline>
    <contour>
      <point x="229.73684210526315" y="0.0" type="curve"/>
      <point x="483.7105263157895" y="0.0" type="line"/>
      <point x="502.5" y="73.34210526315789"/>
      <point x="523.6315789473684" y="155.3421052631579"/>
      <point x="541.7368421052631" y="225.6578947368421" type="curve"/>
      <point x="610.9736842105262" y="450.0" type="line"/>
      <point x="639.3421052631578" y="525.6842105263157"/>
      <point x="677.0263157894736" y="626.6578947368422"/>
      <point x="709.3947368421053" y="713.0" type="curve"/>
      <point x="491.42105263157896" y="713.0" type="line"/>
      <point x="471.7631578947368" y="622.6578947368422"/>
      <point x="450.4210526315789" y="518.3684210526316"/>
      <point x="431.10526315789474" y="430.0263157894737" type="curve"/>
      <point x="363.3421052631579" y="174.81578947368422" type="line"/>
      <point x="350.7631578947369" y="174.81578947368422" type="line"/>
      <point x="286.60526315789474" y="429.0263157894737" type="line"/>
      <point x="267.94736842105266" y="517.3421052631579"/>
      <point x="245.23684210526315" y="623.3684210526316"/>
      <point x="225.92105263157896" y="713.0" type="curve"/>
      <point x="4.973684210526315" y="713.0" type="line"/>
      <point x="37.99999999999999" y="624.3684210526316"/>
      <point x="75.05263157894736" y="525.3421052631578"/>
      <point x="103.42105263157895" y="450.0" type="curve"/>
      <point x="172.0263157894737" y="226.0" type="line"/>
      <point x="189.4736842105263" y="157.3421052631579"/>
      <point x="212.28947368421052" y="70.31578947368422"/>
    </contour>
  </outline>
</glyph>
<glyph name="W" format="2">
  <advance width="1049.657894736842"/>
  <unicode hex="0057"/>
  <anchor x="520.7105263157895" y="0.0" name="bottom"/>
  <anchor x="520.7105263157895" y="713.0" name="top"/>
  <outline>
    <contour>
      <point x="196.6578947368421" y="0.0" type="curve"/>
      <point x="418.47368421052636" y="0.0" type="line"/>
      <point x="431.36842105263156" y="76.42105263157893"/>
      <point x="447.65789473684214" y="168.6578947368421"/>
      <point x="460.89473684210526" y="244.44736842105263" type="curve"/>
      <point x="509.8157894736842" y="465.42105263157896" type="line"/>
      <point x="522.3947368421053" y="465.42105263157896" type="line"/>
      <point x="572.9736842105264" y="245.10526315789474" type="line"/>
      <point x="586.2105263157895" y="169.31578947368422"/>
      <point x="603.1578947368421" y="77.44736842105263"/>
      <point x="616.3947368421052" y="0.0" type="curve"/>
      <point x="850.0526315789474" y="0.0" type="line"/>
      <point x="864.4473684210526" y="68.31578947368422"/>
      <point x="882.8684210526316" y="154.0"/>
      <point x="898.6052631578948" y="225.3421052631579" type="curve"/>
      <point x="959.0526315789474" y="450.0" type="line"/>
      <point x="984.0526315789474" y="526.3684210526316"/>
      <point x="1017.6842105263158" y="626.6578947368421"/>
      <point x="1047.0" y="713.0" type="curve"/>
      <point x="825.078947368421" y="713.0" type="line"/>
      <point x="811.1578947368421" y="628.6315789473684"/>
      <point x="795.1842105263157" y="528.2105263157895"/>
      <point x="781.921052631579" y="446.1578947368421" type="curve"/>
      <point x="734.578947368421" y="204.76315789473685" type="line"/>
      <point x="722.0" y="204.76315789473685" type="line"/>
      <point x="671.421052631579" y="445.1578947368421" type="line"/>
      <point x="657.5" y="528.8947368421052"/>
      <point x="641.236842105263" y="627.9473684210526"/>
      <point x="627.3157894736843" y="713.0" type="curve"/>
      <point x="421.0" y="713.0" type="line"/>
      <point x="407.10526315789474" y="628.3157894736843"/>
      <point x="390.81578947368416" y="527.5263157894738"/>
      <point x="377.57894736842104" y="446.1578947368421" type="curve"/>
      <point x="328.6578947368421" y="204.76315789473685" type="line"/>
      <point x="316.07894736842104" y="204.76315789473685" type="line"/>
      <point x="269.07894736842104" y="444.4736842105263" type="line"/>
      <point x="255.47368421052636" y="528.5526315789474"/>
      <point x="239.18421052631578" y="628.2631578947368"/>
      <point x="225.57894736842107" y="713.0" type="curve"/>
      <point x="2.9999999999999964" y="713.0" type="line"/>
      <point x="31.973684210526308" y="626.0263157894736"/>
      <point x="64.97368421052633" y="526.0"/>
      <point x="89.97368421052632" y="449.3157894736842" type="curve"/>
      <point x="148.76315789473685" y="225.0" type="line"/>
      <point x="163.49999999999997" y="156.6578947368421"/>
      <point x="181.57894736842104" y="71.6578947368421"/>
    </contour>
  </outline>
</glyph>
<glyph name="X" format="2">
  <advance width="724.1315789473684"/>
  <unicode hex="0058"/>
  <outline>
    <contour>
      <point x="14.368421052631579" y="0.0" type="curve"/>
      <point x="234.71052631578948" y="0.0" type="line"/>
      <point x="255.73684210526318" y="50.921052631578945"/>
      <point x="274.02631578947376" y="98.07894736842107"/>
      <point x="292.0" y="142.6315789473684" type="curve"/>
      <point x="345.2894736842105" y="250.78947368421052" type="line"/>
      <point x="357.8684210526316" y="250.78947368421052" type="line"/>
      <point x="414.8684210526316" y="142.9736842105263" type="line"/>
      <point x="434.84210526315786" y="98.44736842105263"/>
      <point x="456.8157894736842" y="50.263157894736835"/>
      <point x="480.1842105263158" y="0.0" type="curve"/>
      <point x="711.7368421052631" y="0.0" type="line"/>
      <point x="660.3157894736842" y="76.0"/>
      <point x="615.2368421052631" y="142.00000000000003"/>
      <point x="562.8157894736843" y="219.6578947368421" type="curve"/>
      <point x="470.18421052631584" y="375.9736842105263" type="line"/>
      <point x="470.18421052631584" y="330.6842105263158" type="line"/>
      <point x="560.7894736842105" y="501.1842105263158" type="line"/>
      <point x="597.1842105263158" y="559.5"/>
      <point x="642.2368421052632" y="631.4473684210526"/>
      <point x="693.2631578947369" y="713.0" type="curve"/>
      <point x="472.57894736842104" y="713.0" type="line"/>
      <point x="449.92105263157896" y="657.5"/>
      <point x="428.2368421052632" y="603.9473684210526"/>
      <point x="408.60526315789474" y="557.078947368421" type="curve"/>
      <point x="363.7631578947369" y="465.0526315789474" type="line"/>
      <point x="351.18421052631584" y="465.0526315789474" type="line"/>
      <point x="304.3421052631579" y="556.7368421052631" type="line"/>
      <point x="284.0526315789474" y="602.9210526315788"/>
      <point x="261.05263157894734" y="657.4473684210526"/>
      <point x="236.71052631578948" y="713.0" type="curve"/>
      <point x="12.736842105263158" y="713.0" type="line"/>
      <point x="65.1578947368421" y="631.0263157894738"/>
      <point x="107.89473684210527" y="563.7105263157895"/>
      <point x="150.9736842105263" y="496.39473684210526" type="curve"/>
      <point x="234.26315789473682" y="348.42105263157896" type="line"/>
      <point x="234.26315789473682" y="388.44736842105266" type="line"/>
      <point x="139.92105263157893" y="208.8684210526316" type="line"/>
      <point x="94.84210526315789" y="133.92105263157893"/>
      <point x="56.07894736842105" y="69.57894736842104"/>
    </contour>
  </outline>
</glyph>
<glyph name="Y" format="2">
  <advance width="685.578947368421"/>
  <unicode hex="0059"/>
  <anchor x="345.2631578947369" y="0.0" name="bottom"/>
  <anchor x="345.2631578947369" y="713.0" name="top"/>
  <anchor x="20.0" y="713.0" name="topleft"/>
  <outline>
    <contour>
      <point x="262.5" y="248.68421052631578" type="line"/>
      <point x="427.3684210526316" y="248.68421052631578" type="line"/>
      <point x="572.6052631578947" y="530.6052631578947" type="line"/>
      <point x="607.921052631579" y="588.8421052631579"/>
      <point x="642.2894736842105" y="646.1578947368421"/>
      <point x="682.2368421052632" y="713.0" type="curve"/>
      <point x="459.94736842105266" y="713.0" type="line"/>
      <point x="432.1052631578947" y="631.6842105263158"/>
      <point x="417.8421052631579" y="588.8684210526316"/>
      <point x="395.42105263157896" y="526.8947368421053" type="curve"/>
      <point x="352.2105263157895" y="427.8157894736842" type="line"/>
      <point x="338.3157894736842" y="427.8157894736842" type="line"/>
      <point x="294.7368421052632" y="529.2631578947369" type="line"/>
      <point x="273.3421052631579" y="589.8684210526316"/>
      <point x="259.42105263157896" y="631.0263157894738"/>
      <point x="231.57894736842107" y="713.0" type="curve"/>
      <point x="3.368421052631577" y="713.0" type="line"/>
      <point x="49.315789473684205" y="639.1315789473684"/>
      <point x="81.3157894736842" y="587.8421052631579"/>
      <point x="116.28947368421052" y="530.6052631578947" type="curve"/>
    </contour>
    <contour>
      <point x="245.68421052631575" y="0.0" type="curve"/>
      <point x="445.18421052631584" y="0.0" type="line"/>
      <point x="440.89473684210526" y="76.39473684210526"/>
      <point x="436.6052631578948" y="142.44736842105263"/>
      <point x="431.65789473684214" y="232.07894736842104" type="curve"/>
      <point x="431.65789473684214" y="393.7631578947369" type="line"/>
      <point x="258.86842105263156" y="393.7631578947369" type="line"/>
      <point x="258.86842105263156" y="232.07894736842104" type="line"/>
      <point x="253.92105263157893" y="141.78947368421052"/>
      <point x="249.9736842105263" y="75.73684210526315"/>
    </contour>
  </outline>
</glyph>
<glyph name="Z" format="2">
  <advance width="688.6052631578948"/>
  <unicode hex="005A"/>
  <anchor x="344.4736842105263" y="0.0" name="bottom"/>
  <anchor x="344.4736842105263" y="357.0" name="center"/>
  <anchor x="344.4736842105263" y="713.0" name="top"/>
  <outline>
    <contour>
      <point x="38.55263157894737" y="0.0" type="line"/>
      <point x="648.3421052631579" y="0.0" type="line"/>
      <point x="648.3421052631579" y="161.65789473684214" type="line"/>
      <point x="578.1052631578948" y="156.7105263157895"/>
      <point x="467.34210526315786" y="148.78947368421055"/>
      <point x="389.7368421052632" y="142.84210526315792" type="curve"/>
      <point x="229.1578947368421" y="142.84210526315792" type="line"/>
      <point x="241.84210526315792" y="87.89473684210527" type="line"/>
      <point x="487.44736842105266" y="398.9473684210526" type="line"/>
      <point x="541.9473684210526" y="462.92105263157896"/>
      <point x="593.4736842105264" y="524.2631578947369"/>
      <point x="642.7105263157895" y="582.9736842105262" type="curve"/>
      <point x="642.7105263157895" y="713.0" type="line"/>
      <point x="49.1578947368421" y="713.0" type="line"/>
      <point x="49.1578947368421" y="549.0526315789473" type="line"/>
      <point x="138.44736842105263" y="556.6315789473684"/>
      <point x="220.07894736842104" y="563.8947368421052"/>
      <point x="293.0" y="570.1578947368421" type="curve"/>
      <point x="469.9473684210526" y="570.1578947368421" type="line"/>
      <point x="450.89473684210526" y="622.3684210526316" type="line"/>
      <point x="213.78947368421052" y="316.2631578947368" type="line"/>
      <point x="157.0" y="249.3421052631579"/>
      <point x="81.76315789473684" y="160.92105263157896"/>
      <point x="38.55263157894737" y="109.57894736842105" type="curve"/>
    </contour>
  </outline>
</glyph>
<glyph name="bracketleft" format="2">
  <advance width="410.7894736842105"/>
  <unicode hex="005B"/>
  <outline>
    <contour>
      <point x="62.94736842105264" y="-123.84210526315789" type="curve"/>
      <point x="229.86842105263162" y="-123.84210526315789" type="line"/>
      <point x="229.86842105263162" y="-96.5" type="line"/>
      <point x="225.57894736842107" y="-20.105263157894736"/>
      <point x="221.28947368421055" y="46.28947368421053"/>
      <point x="216.34210526315792" y="135.92105263157896" type="curve"/>
      <point x="216.34210526315792" y="509.13157894736844" type="line"/>
      <point x="221.28947368421055" y="601.3947368421053"/>
      <point x="225.57894736842107" y="669.421052631579"/>
      <point x="229.86842105263162" y="747.7894736842105" type="curve"/>
      <point x="229.86842105263162" y="775.1315789473684" type="line"/>
      <point x="62.94736842105264" y="775.1315789473684" type="line"/>
      <point x="66.57894736842105" y="695.4473684210527"/>
      <point x="69.21052631578948" y="630.7105263157895"/>
      <point x="74.15789473684211" y="536.4736842105264" type="curve"/>
      <point x="74.15789473684211" y="108.23684210526315" type="line"/>
      <point x="69.86842105263159" y="18.605263157894736"/>
      <point x="66.57894736842105" y="-48.76315789473684"/>
    </contour>
    <contour>
      <point x="197.18421052631578" y="-123.84210526315789" type="line"/>
      <point x="387.2894736842105" y="-123.84210526315789" type="line"/>
      <point x="387.2894736842105" y="9.131578947368428" type="line"/>
      <point x="341.57894736842104" y="6.500000000000007"/>
      <point x="294.5" y="3.526315789473691"/>
      <point x="238.13157894736838" y="0.23684210526316463" type="curve"/>
      <point x="197.18421052631578" y="0.23684210526316463" type="line"/>
    </contour>
    <contour>
      <point x="186.6578947368421" y="651.0526315789474" type="line"/>
      <point x="229.21052631578948" y="651.0526315789474" type="line"/>
      <point x="295.2631578947369" y="647.7631578947369"/>
      <point x="341.3157894736842" y="644.7894736842106"/>
      <point x="384.3421052631579" y="642.1578947368421" type="curve"/>
      <point x="384.3421052631579" y="775.1315789473684" type="line"/>
      <point x="186.6578947368421" y="775.1315789473684" type="line"/>
    </contour>
  </outline>
</glyph>
<glyph name="backslash" format="2">
  <advance width="468.92105263157896"/>
  <unicode hex="005C"/>
  <outline>
    <contour>
      <point x="285.36842105263156" y="0.0" type="curve"/>
      <point x="458.55263157894734" y="0.0" type="line"/>
      <point x="425.86842105263156" y="75.63157894736842"/>
      <point x="398.84210526315786" y="137.97368421052633"/>
      <point x="359.13157894736844" y="228.0" type="curve"/>
      <point x="263.2368421052631" y="476.0" type="line"/>
      <point x="230.76315789473685" y="571.3421052631579"/>
      <point x="209.00000000000003" y="636.3421052631579"/>
      <point x="182.89473684210526" y="713.0" type="curve"/>
      <point x="10.368421052631579" y="713.0" type="line"/>
      <point x="45.39473684210526" y="632.3421052631579"/>
      <point x="72.76315789473685" y="569.0"/>
      <point x="113.47368421052632" y="474.0" type="curve"/>
      <point x="208.36842105263156" y="228.0" type="line"/>
      <point x="239.5" y="136.0"/>
      <point x="260.2631578947368" y="74.0"/>
    </contour>
  </outline>
</glyph>
<glyph name="a" format="2">
  <advance width="533.0000000000001"/>
  <unicode hex="0061"/>
  <anchor x="264.368932038835" y="0.0" name="bottom"/>
  <anchor x="476.06796116504853" y="0.0" name="ogonek"/>
  <anchor x="264.368932038835" y="499.47572815533977" name="top"/>
  <outline>
    <contour>
      <point x="174.76699029126215" y="-12.106796116504855" type="curve" smooth="yes"/>
      <point x="209.504854368932" y="-12.106796116504855"/>
      <point x="273.5533980582524" y="19.05825242718446"/>
      <point x="329.75728155339806" y="62.475728155339795" type="curve"/>
      <point x="340.6019417475728" y="62.475728155339795" type="line"/>
      <point x="358.4951456310679" y="0.0" type="line"/>
      <point x="507.33009708737865" y="0.0" type="line"/>
      <point x="494.33009708737865" y="61.427184466019426"/>
      <point x="483.9611650485437" y="114.69902912621359"/>
      <point x="475.33009708737865" y="166.6504854368932" type="curve"/>
      <point x="475.33009708737865" y="211.36893203883494" type="line" smooth="yes"/>
      <point x="475.33009708737865" y="248.41747572815532"/>
      <point x="478.6990291262136" y="300.52427184466023"/>
      <point x="478.6990291262136" y="333.63106796116506" type="curve" smooth="yes"/>
      <point x="478.6990291262136" y="460.2135922330097"/>
      <point x="395.69902912621353" y="512.9514563106796"/>
      <point x="275.3203883495146" y="512.9514563106796" type="curve" smooth="yes"/>
      <point x="243.79611650485435" y="512.9514563106796"/>
      <point x="103.88349514563106" y="489.58252427184465"/>
      <point x="55.40776699029126" y="479.2135922330097" type="curve"/>
      <point x="61.514563106796125" y="337.96116504854365" type="line"/>
      <point x="124.82524271844663" y="357.2233009708738"/>
      <point x="223.09708737864077" y="385.0679611650485"/>
      <point x="237.8834951456311" y="385.0679611650485" type="curve" smooth="yes"/>
      <point x="292.1941747572815" y="385.0679611650485"/>
      <point x="333.3398058252427" y="366.65048543689323"/>
      <point x="331.07766990291265" y="314.94174757281553" type="curve"/>
      <point x="192.98058252427185" y="292.83495145631065" type="line" smooth="yes"/>
      <point x="123.31067961165049" y="281.5728155339806"/>
      <point x="33.03883495145631" y="247.15533980582526"/>
      <point x="33.03883495145631" y="133.5728155339806" type="curve" smooth="yes"/>
      <point x="33.03883495145631" y="45.689320388349515"/>
      <point x="88.55339805825241" y="-12.106796116504855"/>
    </contour>
    <contour>
      <point x="238.37864077669906" y="108.19417475728156" type="curve" smooth="yes"/>
      <point x="210.495145631068" y="108.19417475728156"/>
      <point x="184.39805825242718" y="121.98058252427185"/>
      <point x="184.39805825242718" y="158.86407766990294" type="curve" smooth="yes"/>
      <point x="184.39805825242718" y="193.59223300970874"/>
      <point x="206.4466019417476" y="214.32038834951456"/>
      <point x="240.37864077669906" y="221.58252427184465" type="curve" smooth="yes"/>
      <point x="299.6116504854369" y="233.7378640776699"/>
      <point x="315.1844660194175" y="239.10679611650485"/>
      <point x="326.97087378640776" y="248.10679611650482" type="curve"/>
      <point x="326.97087378640776" y="161.33009708737862" type="line"/>
      <point x="297.19417475728153" y="134.44660194174756"/>
      <point x="250.32038834951453" y="108.19417475728156"/>
    </contour>
  </outline>
</glyph>
<glyph name="b" format="2">
  <advance width="595.2631578947368"/>
  <unicode hex="0062"/>
  <outline>
    <contour>
      <point x="361.60526315789474" y="-13.605263157894736" type="curve" smooth="yes"/>
      <point x="497.7368421052632" y="-13.605263157894736"/>
      <point x="560.8947368421052" y="111.3157894736842"/>
      <point x="560.8947368421052" y="250.31578947368422" type="curve" smooth="yes"/>
      <point x="560.8947368421052" y="398.63157894736844"/>
      <point x="492.0263157894737" y="513.2105263157895"/>
      <point x="360.2631578947369" y="513.2105263157895" type="curve" smooth="yes"/>
      <point x="323.9473684210527" y="513.2105263157895"/>
      <point x="273.1842105263158" y="483.7368421052632"/>
      <point x="230.78947368421055" y="448.42105263157896" type="curve"/>
      <point x="218.21052631578948" y="448.42105263157896" type="line"/>
      <point x="218.21052631578948" y="493.3421052631579" type="line"/>
      <point x="224.47368421052633" y="585.578947368421"/>
      <point x="230.07894736842104" y="669.1842105263157"/>
      <point x="235.0263157894737" y="747.8947368421052" type="curve"/>
      <point x="36.815789473684205" y="730.9736842105264" type="line"/>
      <point x="46.05263157894737" y="651.7368421052631"/>
      <point x="54.63157894736842" y="574.3947368421053"/>
      <point x="61.89473684210526" y="493.3421052631579" type="curve"/>
      <point x="61.89473684210526" y="215.73684210526315" type="line"/>
      <point x="56.94736842105263" y="132.76315789473685"/>
      <point x="53.65789473684211" y="71.71052631578948"/>
      <point x="49.368421052631575" y="0.0" type="curve"/>
      <point x="183.94736842105266" y="0.0" type="line"/>
      <point x="200.76315789473685" y="58.5" type="line"/>
      <point x="211.3684210526316" y="58.5" type="line"/>
      <point x="269.92105263157896" y="11.236842105263156"/>
      <point x="322.15789473684214" y="-13.605263157894736"/>
    </contour>
    <contour>
      <point x="301.7368421052632" y="119.05263157894737" type="curve"/>
      <point x="275.0263157894737" y="121.71052631578948"/>
      <point x="240.8947368421053" y="143.34210526315792"/>
      <point x="218.21052631578948" y="169.28947368421055" type="curve"/>
      <point x="218.21052631578948" y="336.63157894736844" type="line"/>
      <point x="244.31578947368422" y="361.39473684210526"/>
      <point x="277.7894736842105" y="376.2631578947368"/>
      <point x="301.0526315789474" y="378.57894736842104" type="curve"/>
      <point x="365.60526315789474" y="375.57894736842104"/>
      <point x="400.94736842105266" y="319.36842105263156"/>
      <point x="400.94736842105266" y="249.0" type="curve" smooth="yes"/>
      <point x="400.94736842105266" y="182.31578947368422"/>
      <point x="367.97368421052636" y="122.05263157894737"/>
    </contour>
  </outline>
</glyph>
<glyph name="c" format="2">
  <advance width="483.57894736842104"/>
  <unicode hex="0063"/>
  <anchor x="279.4736842105263" y="0.0" name="bottom"/>
  <anchor x="276.39473684210526" y="499.2631578947368" name="top"/>
  <outline>
    <contour>
      <point x="296.7631578947368" y="-10.973684210526315" type="curve" smooth="yes"/>
      <point x="325.15789473684214" y="-10.973684210526315"/>
      <point x="408.6315789473684" y="2.447368421052631"/>
      <point x="450.3157894736842" y="13.842105263157894" type="curve"/>
      <point x="442.6578947368421" y="146.5526315789474" type="line"/>
      <point x="405.8157894736842" y="132.10526315789474"/>
      <point x="351.0" y="117.07894736842105"/>
      <point x="336.2368421052631" y="117.07894736842105" type="curve" smooth="yes"/>
      <point x="244.8947368421053" y="118.76315789473685"/>
      <point x="192.34210526315792" y="172.0"/>
      <point x="192.34210526315792" y="253.26315789473685" type="curve" smooth="yes"/>
      <point x="192.34210526315792" y="331.05263157894734"/>
      <point x="238.1315789473684" y="377.55263157894734"/>
      <point x="303.89473684210526" y="380.55263157894734" type="curve"/>
      <point x="317.2894736842106" y="380.55263157894734"/>
      <point x="381.63157894736844" y="363.2105263157895"/>
      <point x="439.6842105263158" y="342.1842105263158" type="curve"/>
      <point x="451.2631578947368" y="477.5263157894737" type="line"/>
      <point x="398.13157894736844" y="493.47368421052636"/>
      <point x="314.1578947368421" y="512.5526315789474"/>
      <point x="285.7894736842105" y="512.5526315789474" type="curve" smooth="yes"/>
      <point x="119.73684210526316" y="512.5526315789474"/>
      <point x="33.05263157894737" y="400.2368421052632"/>
      <point x="33.05263157894737" y="248.6578947368421" type="curve" smooth="yes"/>
      <point x="33.05263157894737" y="98.07894736842105"/>
      <point x="129.92105263157896" y="-10.973684210526315"/>
    </contour>
  </outline>
</glyph>
<glyph name="d" format="2">
  <advance width="586.4736842105262"/>
  <unicode hex="0064"/>
  <anchor x="316.5263157894737" y="0.0" name="bottom"/>
  <anchor x="293.60526315789474" y="249.6315789473684" name="center"/>
  <anchor x="316.5263157894737" y="729.578947368421" name="top"/>
  <anchor x="566.0526315789474" y="499.2631578947368" name="topright"/>
  <outline>
    <contour>
      <point x="233.6578947368421" y="-13.605263157894736" type="curve" smooth="yes"/>
      <point x="273.1052631578948" y="-13.605263157894736"/>
      <point x="323.3684210526316" y="10.578947368421051"/>
      <point x="380.60526315789474" y="58.49999999999999" type="curve"/>
      <point x="391.2105263157895" y="58.49999999999999" type="line"/>
      <point x="401.7631578947368" y="0.0" type="line"/>
      <point x="546.2368421052631" y="0.0" type="line"/>
      <point x="541.9473684210526" y="71.71052631578948"/>
      <point x="538.3157894736842" y="132.76315789473685"/>
      <point x="533.3684210526316" y="215.73684210526315" type="curve"/>
      <point x="533.3684210526316" y="493.3421052631579" type="line"/>
      <point x="539.6315789473684" y="585.578947368421"/>
      <point x="545.2368421052631" y="669.1842105263157"/>
      <point x="550.1842105263157" y="747.8947368421052" type="curve"/>
      <point x="351.97368421052636" y="730.9736842105264" type="line"/>
      <point x="361.2105263157895" y="651.7368421052631"/>
      <point x="369.7894736842106" y="574.3947368421053"/>
      <point x="377.0526315789474" y="493.3421052631579" type="curve"/>
      <point x="377.0526315789474" y="448.42105263157896" type="line"/>
      <point x="364.4736842105263" y="448.42105263157896" type="line"/>
      <point x="322.07894736842104" y="483.7368421052632"/>
      <point x="271.3157894736842" y="513.2105263157895"/>
      <point x="235.0" y="513.2105263157895" type="curve" smooth="yes"/>
      <point x="103.23684210526315" y="513.2105263157895"/>
      <point x="34.368421052631575" y="398.63157894736844"/>
      <point x="34.368421052631575" y="250.31578947368422" type="curve" smooth="yes"/>
      <point x="34.368421052631575" y="111.3157894736842"/>
      <point x="97.52631578947368" y="-13.605263157894736"/>
    </contour>
    <contour>
      <point x="293.5263157894737" y="119.05263157894737" type="curve"/>
      <point x="227.28947368421052" y="122.05263157894737"/>
      <point x="194.31578947368422" y="182.31578947368422"/>
      <point x="194.31578947368422" y="249.0" type="curve" smooth="yes"/>
      <point x="194.31578947368422" y="319.36842105263156"/>
      <point x="229.6578947368421" y="375.57894736842104"/>
      <point x="294.2105263157895" y="378.57894736842104" type="curve"/>
      <point x="317.47368421052636" y="376.2631578947368"/>
      <point x="350.9473684210526" y="361.39473684210526"/>
      <point x="377.0526315789474" y="336.63157894736844" type="curve"/>
      <point x="377.0526315789474" y="169.28947368421055" type="line"/>
      <point x="354.3684210526316" y="143.34210526315792"/>
      <point x="320.2368421052632" y="121.71052631578948"/>
    </contour>
  </outline>
</glyph>
<glyph name="h" format="2">
  <advance width="587.7368421052631"/>
  <unicode hex="0068"/>
  <guideline x="134.89473684210526" y="738.8947368421053" angle="4.470799999999997"/>
  <anchor x="297.55263157894734" y="0.0" name="bottom"/>
  <anchor x="297.55263157894734" y="409.0" name="center"/>
  <anchor x="272.6578947368421" y="729.578947368421" name="top"/>
  <outline>
    <contour>
      <point x="49.368421052631575" y="0.0" type="curve"/>
      <point x="231.07894736842107" y="0.0" type="line"/>
      <point x="226.78947368421052" y="71.05263157894737"/>
      <point x="222.5" y="132.76315789473685"/>
      <point x="218.21052631578948" y="207.18421052631578" type="curve"/>
      <point x="218.21052631578948" y="311.5263157894737" type="line"/>
      <point x="249.36842105263162" y="343.36842105263156"/>
      <point x="293.8421052631579" y="370.6842105263158"/>
      <point x="311.8421052631579" y="370.6842105263158" type="curve" smooth="yes"/>
      <point x="359.44736842105266" y="370.6842105263158"/>
      <point x="374.97368421052636" y="337.1315789473684"/>
      <point x="374.97368421052636" y="268.10526315789474" type="curve"/>
      <point x="374.97368421052636" y="207.18421052631578" type="line"/>
      <point x="371.3421052631579" y="132.76315789473682"/>
      <point x="368.0526315789474" y="71.05263157894737"/>
      <point x="364.42105263157896" y="0.0" type="curve"/>
      <point x="544.8157894736843" y="0.0" type="line"/>
      <point x="540.5263157894736" y="71.05263157894737"/>
      <point x="536.2368421052631" y="132.76315789473682"/>
      <point x="531.2894736842105" y="215.73684210526315" type="curve"/>
      <point x="531.2894736842105" y="250.28947368421052"/>
      <point x="534.921052631579" y="292.2105263157895"/>
      <point x="534.921052631579" y="335.8684210526316" type="curve" smooth="yes"/>
      <point x="534.921052631579" y="453.8157894736842"/>
      <point x="480.42105263157896" y="513.2105263157895"/>
      <point x="379.2894736842106" y="513.2105263157895" type="curve" smooth="yes"/>
      <point x="339.0263157894737" y="513.2105263157895"/>
      <point x="277.05263157894734" y="471.2105263157895"/>
      <point x="231.44736842105263" y="430.578947368421" type="curve"/>
      <point x="218.21052631578948" y="430.578947368421" type="line"/>
      <point x="218.21052631578948" y="493.3421052631579" type="line"/>
      <point x="224.47368421052633" y="585.578947368421"/>
      <point x="230.07894736842104" y="669.1842105263157"/>
      <point x="235.0263157894737" y="747.8947368421052" type="curve"/>
      <point x="36.815789473684205" y="730.9736842105264" type="line"/>
      <point x="46.05263157894737" y="651.7368421052632"/>
      <point x="54.63157894736842" y="574.3947368421053"/>
      <point x="61.89473684210526" y="493.3421052631579" type="curve"/>
      <point x="61.89473684210526" y="215.73684210526315" type="line"/>
      <point x="56.94736842105263" y="132.76315789473685"/>
      <point x="53.65789473684211" y="71.71052631578948"/>
    </contour>
  </outline>
</glyph>
<glyph name="k" format="2">
  <advance width="582.4473684210526"/>
  <unicode hex="006B"/>
  <anchor x="291.6842105263158" y="0.0" name="bottom"/>
  <anchor x="291.6842105263158" y="729.578947368421" name="top"/>
  <outline>
    <contour>
      <point x="368.57894736842104" y="0.0" type="curve"/>
      <point x="582.1315789473684" y="0.0" type="line"/>
      <point x="530.8684210526316" y="60.94736842105263"/>
      <point x="479.63157894736844" y="122.21052631578948"/>
      <point x="428.3684210526316" y="183.1578947368421" type="curve"/>
      <point x="340.7368421052632" y="299.7894736842105" type="line"/>
      <point x="347.97368421052636" y="230.78947368421052" type="line"/>
      <point x="417.3421052631579" y="319.05263157894734" type="line"/>
      <point x="467.92105263157896" y="379.3421052631579"/>
      <point x="517.1315789473684" y="438.6315789473684"/>
      <point x="568.7105263157895" y="499.2631578947368" type="curve"/>
      <point x="367.0263157894737" y="499.2631578947368" type="line"/>
      <point x="341.28947368421046" y="456.1842105263158"/>
      <point x="315.8684210526316" y="413.42105263157896"/>
      <point x="290.13157894736844" y="370.3421052631579" type="curve"/>
      <point x="241.8684210526316" y="300.2105263157895" type="line"/>
      <point x="205.28947368421055" y="300.2105263157895" type="line"/>
      <point x="205.28947368421055" y="197.21052631578948" type="line"/>
      <point x="239.47368421052633" y="197.21052631578948" type="line"/>
      <point x="293.92105263157896" y="121.34210526315789" type="line"/>
      <point x="319.0263157894737" y="80.89473684210526"/>
      <point x="344.1315789473684" y="40.44736842105263"/>
    </contour>
    <contour>
      <point x="49.368421052631575" y="0.0" type="curve"/>
      <point x="231.07894736842107" y="0.0" type="line"/>
      <point x="226.78947368421052" y="63.1578947368421"/>
      <point x="222.5" y="118.28947368421052"/>
      <point x="218.21052631578948" y="184.81578947368422" type="curve"/>
      <point x="218.21052631578948" y="493.3421052631579" type="line"/>
      <point x="224.47368421052633" y="585.578947368421"/>
      <point x="230.07894736842104" y="669.1842105263157"/>
      <point x="235.0263157894737" y="747.8947368421052" type="curve"/>
      <point x="36.815789473684205" y="730.9736842105264" type="line"/>
      <point x="46.05263157894737" y="651.7368421052632"/>
      <point x="54.63157894736842" y="574.3947368421053"/>
      <point x="61.89473684210526" y="493.3421052631579" type="curve"/>
      <point x="61.89473684210526" y="215.73684210526315" type="line"/>
      <point x="56.94736842105263" y="132.76315789473685"/>
      <point x="53.65789473684211" y="71.71052631578948"/>
    </contour>
  </outline>
</glyph>
<glyph name="l" format="2">
  <advance width="280.10526315789474"/>
  <unicode hex="006C"/>
  <anchor x="140.05263157894737" y="0.0" name="bottom"/>
  <anchor x="143.3421052631579" y="409.0" name="center"/>
  <anchor x="140.05263157894737" y="729.578947368421" name="top"/>
  <anchor x="247.94736842105263" y="499.2631578947368" name="topright"/>
  <outline>
    <contour>
      <point x="49.368421052631575" y="0.0" type="curve"/>
      <point x="231.07894736842107" y="0.0" type="line"/>
      <point x="226.78947368421052" y="71.71052631578948"/>
      <point x="223.1578947368421" y="132.76315789473685"/>
      <point x="218.21052631578948" y="215.73684210526315" type="curve"/>
      <point x="218.21052631578948" y="493.3421052631579" type="line"/>
      <point x="224.47368421052633" y="585.578947368421"/>
      <point x="230.07894736842104" y="669.1842105263157"/>
      <point x="235.0263157894737" y="747.8947368421052" type="curve"/>
      <point x="36.815789473684205" y="730.9736842105264" type="line"/>
      <point x="46.05263157894737" y="651.7368421052631"/>
      <point x="54.63157894736842" y="574.3947368421053"/>
      <point x="61.89473684210526" y="493.3421052631579" type="curve"/>
      <point x="61.89473684210526" y="215.73684210526315" type="line"/>
      <point x="56.94736842105263" y="132.76315789473685"/>
      <point x="53.65789473684211" y="71.71052631578948"/>
    </contour>
  </outline>
</glyph>
<glyph name="m" format="2">
  <advance width="886.2105263157895"/>
  <unicode hex="006D"/>
  <anchor x="449.0263157894737" y="0.0" name="bottom"/>
  <anchor x="449.0263157894737" y="499.2631578947368" name="top"/>
  <outline>
    <contour>
      <point x="54.05263157894737" y="0.0" type="curve"/>
      <point x="235.76315789473685" y="0.0" type="line"/>
      <point x="231.4736842105263" y="71.05263157894737"/>
      <point x="227.18421052631578" y="132.76315789473685"/>
      <point x="222.89473684210526" y="207.18421052631578" type="curve"/>
      <point x="222.89473684210526" y="311.5263157894737" type="line"/>
      <point x="254.05263157894734" y="343.3684210526316"/>
      <point x="293.7894736842105" y="370.6842105263158"/>
      <point x="312.10526315789474" y="370.6842105263158" type="curve" smooth="yes"/>
      <point x="356.0263157894737" y="370.6842105263158"/>
      <point x="370.86842105263156" y="337.1315789473684"/>
      <point x="370.86842105263156" y="268.10526315789474" type="curve"/>
      <point x="370.86842105263156" y="207.18421052631578" type="line"/>
      <point x="367.2368421052631" y="132.76315789473682"/>
      <point x="363.9473684210526" y="71.05263157894737"/>
      <point x="360.31578947368416" y="0.0" type="curve"/>
      <point x="540.7105263157895" y="0.0" type="line"/>
      <point x="536.421052631579" y="71.05263157894737"/>
      <point x="532.1315789473684" y="132.76315789473682"/>
      <point x="527.1842105263158" y="215.73684210526315" type="curve"/>
      <point x="527.1842105263158" y="250.28947368421052"/>
      <point x="530.8157894736843" y="292.2105263157895"/>
      <point x="530.8157894736843" y="335.8684210526316" type="curve" smooth="yes"/>
      <point x="530.8157894736843" y="359.47368421052636"/>
      <point x="528.5" y="381.07894736842104"/>
      <point x="524.1842105263158" y="400.0526315789474" type="curve"/>
      <point x="512.0" y="401.42105263157896" type="line"/>
      <point x="495.39473684210526" y="476.4736842105263"/>
      <point x="449.42105263157896" y="513.2105263157895"/>
      <point x="379.2368421052632" y="513.2105263157895" type="curve" smooth="yes"/>
      <point x="336.3421052631579" y="513.2105263157895"/>
      <point x="270.5526315789474" y="469.2368421052632"/>
      <point x="217.71052631578945" y="426.63157894736844" type="curve"/>
      <point x="204.4736842105263" y="426.63157894736844" type="line"/>
      <point x="195.8421052631579" y="506.86842105263156" type="line"/>
      <point x="44.421052631578945" y="499.2631578947368" type="line"/>
      <point x="52.68421052631579" y="427.2105263157895"/>
      <point x="59.973684210526315" y="358.42105263157896"/>
      <point x="66.57894736842105" y="290.0263157894737" type="curve"/>
      <point x="66.57894736842105" y="215.73684210526315" type="line"/>
      <point x="61.631578947368425" y="132.76315789473685"/>
      <point x="58.34210526315789" y="71.71052631578948"/>
    </contour>
    <contour>
      <point x="662.8947368421052" y="0.0" type="curve"/>
      <point x="843.2894736842105" y="0.0" type="line"/>
      <point x="839.0" y="71.05263157894737"/>
      <point x="834.7105263157895" y="132.76315789473682"/>
      <point x="829.7631578947369" y="215.73684210526315" type="curve"/>
      <point x="829.7631578947369" y="250.28947368421052"/>
      <point x="833.3947368421053" y="292.2105263157895"/>
      <point x="833.3947368421053" y="335.8684210526316" type="curve" smooth="yes"/>
      <point x="833.3947368421053" y="453.8157894736842"/>
      <point x="778.8947368421052" y="513.2105263157895"/>
      <point x="681.8157894736843" y="513.2105263157895" type="curve" smooth="yes"/>
      <point x="638.2631578947369" y="513.2105263157895"/>
      <point x="571.1578947368422" y="469.2631578947368"/>
      <point x="516.6315789473684" y="423.63157894736844" type="curve"/>
      <point x="502.07894736842104" y="423.63157894736844" type="line"/>
      <point x="524.8157894736843" y="311.5263157894737" type="line"/>
      <point x="555.9736842105262" y="343.36842105263156"/>
      <point x="596.3684210526316" y="370.6842105263158"/>
      <point x="614.6842105263157" y="370.6842105263158" type="curve" smooth="yes"/>
      <point x="658.6052631578948" y="370.6842105263158"/>
      <point x="673.4473684210526" y="337.1315789473684"/>
      <point x="673.4473684210526" y="268.10526315789474" type="curve"/>
      <point x="673.4473684210526" y="207.18421052631578" type="line"/>
      <point x="669.8157894736842" y="132.76315789473682"/>
      <point x="666.5263157894736" y="71.05263157894737"/>
    </contour>
  </outline>
</glyph>
<glyph name="n" format="2">
  <advance width="592.421052631579"/>
  <unicode hex="006E"/>
  <anchor x="297.2894736842105" y="0.0" name="bottom"/>
  <anchor x="297.2894736842105" y="499.2631578947368" name="top"/>
  <outline>
    <contour>
      <point x="54.05263157894737" y="0.0" type="curve"/>
      <point x="235.76315789473685" y="0.0" type="line"/>
      <point x="231.4736842105263" y="71.05263157894737"/>
      <point x="227.18421052631578" y="132.76315789473685"/>
      <point x="222.89473684210526" y="207.18421052631578" type="curve"/>
      <point x="222.89473684210526" y="311.5263157894737" type="line"/>
      <point x="254.05263157894734" y="343.36842105263156"/>
      <point x="298.5263157894737" y="370.6842105263158"/>
      <point x="316.5263157894737" y="370.6842105263158" type="curve" smooth="yes"/>
      <point x="364.13157894736844" y="370.6842105263158"/>
      <point x="379.65789473684214" y="337.1315789473684"/>
      <point x="379.65789473684214" y="268.10526315789474" type="curve"/>
      <point x="379.65789473684214" y="207.18421052631578" type="line"/>
      <point x="376.0263157894737" y="132.76315789473682"/>
      <point x="372.7368421052632" y="71.05263157894737"/>
      <point x="369.10526315789474" y="0.0" type="curve"/>
      <point x="549.5" y="0.0" type="line"/>
      <point x="545.2105263157895" y="71.05263157894737"/>
      <point x="540.921052631579" y="132.76315789473682"/>
      <point x="535.9736842105264" y="215.73684210526315" type="curve"/>
      <point x="535.9736842105264" y="250.28947368421052"/>
      <point x="539.6052631578948" y="292.2105263157895"/>
      <point x="539.6052631578948" y="335.8684210526316" type="curve" smooth="yes"/>
      <point x="539.6052631578948" y="453.8157894736842"/>
      <point x="485.10526315789474" y="513.2105263157895"/>
      <point x="383.97368421052636" y="513.2105263157895" type="curve" smooth="yes"/>
      <point x="339.7631578947368" y="513.2105263157895"/>
      <point x="270.5526315789474" y="469.2368421052632"/>
      <point x="217.71052631578945" y="426.63157894736844" type="curve"/>
      <point x="204.4736842105263" y="426.63157894736844" type="line"/>
      <point x="195.8421052631579" y="506.86842105263156" type="line"/>
      <point x="44.421052631578945" y="499.2631578947368" type="line"/>
      <point x="52.68421052631579" y="427.2105263157895"/>
      <point x="59.973684210526315" y="358.42105263157896"/>
      <point x="66.57894736842105" y="290.0263157894737" type="curve"/>
      <point x="66.57894736842105" y="215.73684210526315" type="line"/>
      <point x="61.631578947368425" y="132.76315789473685"/>
      <point x="58.34210526315789" y="71.71052631578948"/>
    </contour>
  </outline>
</glyph>
<glyph name="o" format="2">
  <advance width="597.6578947368421"/>
  <unicode hex="006F"/>
  <anchor x="298.6578947368421" y="0.0" name="bottom"/>
  <anchor x="298.6578947368421" y="249.6315789473684" name="center"/>
  <anchor x="390.63157894736844" y="0.0" name="ogonek"/>
  <anchor x="298.6578947368421" y="499.2631578947368" name="top"/>
  <anchor x="524.8421052631579" y="499.2631578947368" name="topright"/>
  <outline>
    <contour>
      <point x="301.3157894736842" y="-13.605263157894736" type="curve" smooth="yes"/>
      <point x="469.60526315789474" y="-13.605263157894736"/>
      <point x="564.6052631578948" y="100.07894736842105"/>
      <point x="564.6052631578948" y="251.0" type="curve" smooth="yes"/>
      <point x="564.6052631578948" y="398.2894736842105"/>
      <point x="476.2368421052632" y="513.2105263157895"/>
      <point x="298.0263157894737" y="513.2105263157895" type="curve" smooth="yes"/>
      <point x="124.47368421052632" y="513.2105263157895"/>
      <point x="33.05263157894737" y="400.3157894736842"/>
      <point x="33.05263157894737" y="251.0" type="curve" smooth="yes"/>
      <point x="33.05263157894737" y="111.6842105263158"/>
      <point x="117.10526315789474" y="-13.605263157894736"/>
    </contour>
    <contour>
      <point x="300.6578947368421" y="113.78947368421053" type="curve"/>
      <point x="229.71052631578948" y="117.44736842105264"/>
      <point x="192.34210526315792" y="178.07894736842104"/>
      <point x="192.34210526315792" y="251.0" type="curve" smooth="yes"/>
      <point x="192.34210526315792" y="327.2894736842105"/>
      <point x="229.76315789473685" y="381.5"/>
      <point x="300.6578947368421" y="385.8157894736842" type="curve"/>
      <point x="368.47368421052636" y="379.5263157894737"/>
      <point x="405.3157894736842" y="330.02631578947364"/>
      <point x="405.3157894736842" y="251.0" type="curve" smooth="yes"/>
      <point x="405.3157894736842" y="176.10526315789474"/>
      <point x="370.60526315789474" y="117.44736842105264"/>
    </contour>
  </outline>
</glyph>
<glyph name="p" format="2">
  <advance width="599.9473684210526"/>
  <unicode hex="0070"/>
  <outline>
    <contour>
      <point x="53.71052631578947" y="-196.6315789473684" type="curve"/>
      <point x="239.05263157894737" y="-192.0" type="line"/>
      <point x="233.44736842105263" y="-120.94736842105263"/>
      <point x="229.1578947368421" y="-59.23684210526316"/>
      <point x="222.89473684210526" y="15.184210526315788" type="curve"/>
      <point x="222.89473684210526" y="49.94736842105263" type="line"/>
      <point x="232.18421052631578" y="49.94736842105263" type="line"/>
      <point x="284.15789473684214" y="8.605263157894738"/>
      <point x="330.7894736842106" y="-13.605263157894736"/>
      <point x="366.2894736842105" y="-13.605263157894736" type="curve" smooth="yes"/>
      <point x="502.42105263157896" y="-13.605263157894736"/>
      <point x="565.578947368421" y="111.3157894736842"/>
      <point x="565.578947368421" y="250.31578947368422" type="curve" smooth="yes"/>
      <point x="565.578947368421" y="398.63157894736844"/>
      <point x="496.7105263157895" y="513.2105263157895"/>
      <point x="364.94736842105266" y="513.2105263157895" type="curve" smooth="yes"/>
      <point x="326.00000000000006" y="513.2105263157895"/>
      <point x="268.63157894736844" y="479.44736842105266"/>
      <point x="221.6315789473684" y="438.5263157894737" type="curve"/>
      <point x="209.05263157894737" y="438.5263157894737" type="line"/>
      <point x="201.10526315789474" y="506.86842105263156" type="line"/>
      <point x="44.421052631578945" y="499.2631578947368" type="line"/>
      <point x="52.68421052631579" y="427.2105263157895"/>
      <point x="59.973684210526315" y="358.42105263157896"/>
      <point x="66.57894736842105" y="290.0263157894737" type="curve"/>
      <point x="66.57894736842105" y="23.736842105263158" type="line"/>
      <point x="61.631578947368425" y="-59.23684210526316"/>
      <point x="58.0" y="-125.57894736842105"/>
    </contour>
    <contour>
      <point x="306.42105263157896" y="119.05263157894737" type="curve"/>
      <point x="279.7105263157895" y="121.71052631578948"/>
      <point x="245.57894736842107" y="143.34210526315792"/>
      <point x="222.89473684210526" y="169.28947368421055" type="curve"/>
      <point x="222.89473684210526" y="336.63157894736844" type="line"/>
      <point x="249.00000000000003" y="361.39473684210526"/>
      <point x="282.4736842105263" y="376.2631578947368"/>
      <point x="305.7368421052632" y="378.57894736842104" type="curve"/>
      <point x="370.2894736842105" y="375.57894736842104"/>
      <point x="405.63157894736844" y="319.36842105263156"/>
      <point x="405.63157894736844" y="249.0" type="curve" smooth="yes"/>
      <point x="405.63157894736844" y="182.31578947368422"/>
      <point x="372.65789473684214" y="122.05263157894737"/>
    </contour>
  </outline>
</glyph>
<glyph name="q" format="2">
  <advance width="588.6315789473684"/>
  <unicode hex="0071"/>
  <outline>
    <contour>
      <point x="364.18421052631584" y="-196.6315789473684" type="curve"/>
      <point x="546.2368421052631" y="-192.0" type="line"/>
      <point x="541.9473684210526" y="-120.28947368421052"/>
      <point x="538.3157894736842" y="-59.23684210526316"/>
      <point x="533.3684210526316" y="23.736842105263158" type="curve"/>
      <point x="533.3684210526316" y="290.0263157894737" type="line"/>
      <point x="539.3157894736842" y="360.7368421052632"/>
      <point x="545.2894736842105" y="432.5"/>
      <point x="552.2368421052631" y="506.86842105263156" type="curve"/>
      <point x="398.8421052631579" y="499.2631578947368" type="line"/>
      <point x="390.89473684210526" y="438.5263157894737" type="line"/>
      <point x="378.3157894736842" y="438.5263157894737" type="line"/>
      <point x="331.3157894736842" y="479.44736842105266"/>
      <point x="273.9473684210526" y="513.2105263157895"/>
      <point x="235.0" y="513.2105263157895" type="curve" smooth="yes"/>
      <point x="103.23684210526315" y="513.2105263157895"/>
      <point x="34.368421052631575" y="398.63157894736844"/>
      <point x="34.368421052631575" y="250.31578947368422" type="curve" smooth="yes"/>
      <point x="34.368421052631575" y="111.3157894736842"/>
      <point x="97.52631578947368" y="-13.605263157894736"/>
      <point x="233.6578947368421" y="-13.605263157894736" type="curve" smooth="yes"/>
      <point x="269.1578947368421" y="-13.605263157894736"/>
      <point x="315.7894736842106" y="8.605263157894738"/>
      <point x="367.7631578947368" y="49.94736842105264" type="curve"/>
      <point x="377.0526315789474" y="49.94736842105264" type="line"/>
      <point x="377.0526315789474" y="15.184210526315788" type="line"/>
      <point x="372.7631578947369" y="-59.23684210526316"/>
      <point x="368.47368421052636" y="-125.57894736842105"/>
    </contour>
    <contour>
      <point x="293.5263157894737" y="119.05263157894737" type="curve"/>
      <point x="227.28947368421052" y="122.05263157894737"/>
      <point x="194.31578947368422" y="182.31578947368422"/>
      <point x="194.31578947368422" y="249.0" type="curve" smooth="yes"/>
      <point x="194.31578947368422" y="319.36842105263156"/>
      <point x="229.6578947368421" y="375.57894736842104"/>
      <point x="294.2105263157895" y="378.57894736842104" type="curve"/>
      <point x="317.47368421052636" y="376.2631578947368"/>
      <point x="350.9473684210526" y="361.39473684210526"/>
      <point x="377.0526315789474" y="336.63157894736844" type="curve"/>
      <point x="377.0526315789474" y="169.28947368421055" type="line"/>
      <point x="354.3684210526316" y="143.34210526315792"/>
      <point x="320.2368421052632" y="121.71052631578948"/>
    </contour>
  </outline>
</glyph>
<glyph name="r" format="2">
  <advance width="422.94736842105266"/>
  <unicode hex="0072"/>
  <anchor x="137.10526315789474" y="0.0" name="bottom"/>
  <anchor x="235.28947368421052" y="499.2631578947368" name="top"/>
  <outline>
    <contour>
      <point x="54.05263157894737" y="0.0" type="curve"/>
      <point x="235.76315789473685" y="0.0" type="line"/>
      <point x="231.4736842105263" y="71.05263157894737"/>
      <point x="227.18421052631578" y="132.76315789473685"/>
      <point x="222.89473684210526" y="207.18421052631578" type="curve"/>
      <point x="222.89473684210526" y="291.2894736842105" type="line"/>
      <point x="266.50000000000006" y="336.39473684210526"/>
      <point x="305.86842105263156" y="355.55263157894734"/>
      <point x="323.7631578947369" y="355.55263157894734" type="curve" smooth="yes"/>
      <point x="330.10526315789474" y="355.55263157894734"/>
      <point x="357.0526315789474" y="348.89473684210526"/>
      <point x="392.5789473684211" y="340.2631578947369" type="curve"/>
      <point x="406.10526315789474" y="504.2368421052632" type="line"/>
      <point x="388.7631578947368" y="509.2105263157894"/>
      <point x="364.02631578947376" y="513.2105263157895"/>
      <point x="353.0263157894737" y="513.2105263157895" type="curve" smooth="yes"/>
      <point x="323.5789473684211" y="513.2105263157895"/>
      <point x="281.4736842105263" y="489.7631578947369"/>
      <point x="216.6842105263158" y="422.1842105263158" type="curve"/>
      <point x="203.78947368421052" y="422.1842105263158" type="line"/>
      <point x="195.5" y="506.86842105263156" type="line"/>
      <point x="44.421052631578945" y="499.2631578947368" type="line"/>
      <point x="52.68421052631579" y="427.2105263157895"/>
      <point x="59.973684210526315" y="358.42105263157896"/>
      <point x="66.57894736842105" y="290.0263157894737" type="curve"/>
      <point x="66.57894736842105" y="215.73684210526315" type="line"/>
      <point x="61.631578947368425" y="132.76315789473685"/>
      <point x="58.34210526315789" y="71.71052631578948"/>
    </contour>
  </outline>
</glyph>
<glyph name="u" format="2">
  <advance width="579.2631578947368"/>
  <unicode hex="0075"/>
  <anchor x="286.1842105263158" y="0.0" name="bottom"/>
  <anchor x="528.4473684210526" y="0.0" name="ogonek"/>
  <anchor x="286.1842105263158" y="499.2631578947368" name="top"/>
  <anchor x="555.5" y="499.2631578947368" name="topright"/>
  <outline>
    <contour>
      <point x="203.84210526315792" y="-13.605263157894736" type="curve" smooth="yes"/>
      <point x="254.89473684210526" y="-13.605263157894736"/>
      <point x="322.7894736842105" y="31.026315789473678"/>
      <point x="365.10526315789474" y="79.55263157894736" type="curve"/>
      <point x="378.3421052631579" y="79.55263157894736" type="line"/>
      <point x="385.9473684210526" y="0.0" type="line"/>
      <point x="532.3947368421053" y="0.0" type="line"/>
      <point x="528.1052631578948" y="71.71052631578948"/>
      <point x="524.4736842105262" y="132.76315789473685"/>
      <point x="519.5263157894736" y="215.73684210526315" type="curve"/>
      <point x="519.5263157894736" y="272.3157894736842" type="line"/>
      <point x="525.1315789473683" y="366.15789473684214"/>
      <point x="529.421052631579" y="427.86842105263156"/>
      <point x="533.7105263157895" y="499.2631578947368" type="curve"/>
      <point x="351.6578947368421" y="499.2631578947368" type="line"/>
      <point x="355.94736842105266" y="428.2105263157895"/>
      <point x="359.57894736842104" y="366.15789473684214"/>
      <point x="363.2105263157895" y="292.0526315789474" type="curve"/>
      <point x="363.2105263157895" y="184.78947368421052" type="line"/>
      <point x="332.7105263157895" y="152.94736842105266"/>
      <point x="290.2105263157895" y="125.63157894736842"/>
      <point x="271.2894736842105" y="125.63157894736842" type="curve" smooth="yes"/>
      <point x="223.6842105263158" y="125.63157894736842"/>
      <point x="208.15789473684214" y="159.18421052631578"/>
      <point x="208.15789473684214" y="228.21052631578948" type="curve"/>
      <point x="208.15789473684214" y="292.0526315789474" type="line"/>
      <point x="211.78947368421055" y="366.5"/>
      <point x="215.421052631579" y="432.5"/>
      <point x="219.0526315789474" y="503.89473684210526" type="curve"/>
      <point x="37.65789473684211" y="499.2631578947368" type="line"/>
      <point x="42.60526315789473" y="428.2105263157895"/>
      <point x="46.23684210526316" y="366.15789473684214"/>
      <point x="51.8421052631579" y="272.3157894736842" type="curve"/>
      <point x="51.8421052631579" y="236.73684210526315"/>
      <point x="49.526315789473685" y="207.39473684210526"/>
      <point x="49.526315789473685" y="163.73684210526315" type="curve" smooth="yes"/>
      <point x="49.526315789473685" y="45.78947368421053"/>
      <point x="102.71052631578948" y="-13.605263157894736"/>
    </contour>
  </outline>
</glyph>
<glyph name="v" format="2">
  <advance width="553.2368421052631"/>
  <unicode hex="0076"/>
  <outline>
    <contour>
      <point x="185.52631578947367" y="0.0" type="curve"/>
      <point x="367.68421052631584" y="0.0" type="line"/>
      <point x="387.7368421052632" y="62.6578947368421"/>
      <point x="406.7894736842105" y="124.3157894736842"/>
      <point x="426.5" y="187.6315789473684" type="curve"/>
      <point x="457.8684210526316" y="276.94736842105266" type="line"/>
      <point x="487.2105263157895" y="350.60526315789474"/>
      <point x="516.2105263157895" y="424.92105263157896"/>
      <point x="545.2368421052632" y="499.2631578947368" type="curve"/>
      <point x="363.4736842105263" y="499.2631578947368" type="line"/>
      <point x="348.2105263157895" y="435.2105263157895"/>
      <point x="333.2894736842105" y="367.89473684210526"/>
      <point x="317.6842105263158" y="298.5526315789474" type="curve"/>
      <point x="284.2105263157895" y="168.55263157894737" type="line"/>
      <point x="271.63157894736844" y="168.55263157894737" type="line"/>
      <point x="238.1578947368421" y="298.5526315789474" type="line"/>
      <point x="222.5526315789474" y="367.89473684210526"/>
      <point x="207.3157894736842" y="434.86842105263156"/>
      <point x="192.3684210526316" y="503.89473684210526" type="curve"/>
      <point x="8.0" y="499.2631578947368" type="line"/>
      <point x="36.99999999999999" y="425.94736842105266"/>
      <point x="66.0" y="350.94736842105266"/>
      <point x="94.99999999999999" y="277.63157894736844" type="curve"/>
      <point x="126.36842105263158" y="188.97368421052633" type="line"/>
      <point x="146.07894736842104" y="126.34210526315789"/>
      <point x="165.47368421052633" y="63.315789473684205"/>
    </contour>
  </outline>
</glyph>
<glyph name="w" format="2">
  <advance width="837.6315789473684"/>
  <unicode hex="0077"/>
  <anchor x="418.34210526315786" y="0.0" name="bottom"/>
  <anchor x="418.34210526315786" y="499.2631578947368" name="top"/>
  <outline>
    <contour>
      <point x="164.18421052631578" y="0.0" type="curve"/>
      <point x="344.3684210526316" y="0.0" type="line"/>
      <point x="356.2631578947368" y="58.76315789473684"/>
      <point x="369.5" y="122.89473684210526"/>
      <point x="380.7105263157895" y="178.94736842105263" type="curve"/>
      <point x="407.42105263157896" y="290.07894736842104" type="line"/>
      <point x="418.6842105263158" y="290.07894736842104" type="line"/>
      <point x="446.05263157894734" y="180.28947368421052" type="line"/>
      <point x="458.92105263157896" y="123.55263157894737"/>
      <point x="473.50000000000006" y="58.421052631578945"/>
      <point x="486.7105263157894" y="0.0" type="curve"/>
      <point x="674.4736842105262" y="0.0" type="line"/>
      <point x="691.1842105263158" y="61.0"/>
      <point x="708.5526315789474" y="125.97368421052632"/>
      <point x="726.2631578947369" y="190.97368421052633" type="curve"/>
      <point x="753.9473684210526" y="278.63157894736844" type="line"/>
      <point x="779.6052631578947" y="351.94736842105266"/>
      <point x="805.6052631578948" y="424.94736842105266"/>
      <point x="832.2631578947368" y="499.2631578947368" type="curve"/>
      <point x="646.8947368421052" y="499.2631578947368" type="line"/>
      <point x="635.6842105263158" y="437.9736842105263"/>
      <point x="622.4210526315788" y="361.94736842105266"/>
      <point x="609.5263157894736" y="294.2894736842105" type="curve"/>
      <point x="580.1315789473684" y="161.6578947368421" type="line"/>
      <point x="568.5526315789474" y="161.6578947368421" type="line"/>
      <point x="539.1578947368421" y="292.63157894736844" type="line"/>
      <point x="525.6052631578947" y="361.63157894736844"/>
      <point x="511.7105263157895" y="432.94736842105266"/>
      <point x="498.5" y="499.2631578947368" type="curve"/>
      <point x="342.7368421052632" y="499.2631578947368" type="line"/>
      <point x="329.1842105263158" y="429.92105263157896"/>
      <point x="315.63157894736844" y="360.92105263157896"/>
      <point x="302.42105263157896" y="291.9473684210526" type="curve"/>
      <point x="273.7105263157895" y="161.6578947368421" type="line"/>
      <point x="262.13157894736844" y="161.6578947368421" type="line"/>
      <point x="232.42105263157896" y="290.2368421052632" type="line"/>
      <point x="218.8684210526316" y="358.5526315789474"/>
      <point x="203.94736842105266" y="435.57894736842104"/>
      <point x="190.39473684210526" y="503.89473684210526" type="curve"/>
      <point x="5.368421052631579" y="499.2631578947368" type="line"/>
      <point x="32.02631578947368" y="424.60526315789474"/>
      <point x="57.68421052631578" y="352.94736842105266"/>
      <point x="84.34210526315789" y="278.63157894736844" type="curve"/>
      <point x="111.71052631578948" y="189.97368421052633" type="line"/>
      <point x="129.42105263157893" y="125.65789473684211"/>
      <point x="146.47368421052633" y="62.6578947368421"/>
    </contour>
  </outline>
</glyph>
<glyph name="x" format="2">
  <advance width="577.7631578947369"/>
  <unicode hex="0078"/>
  <outline>
    <contour>
      <point x="11.973684210526311" y="0.0" type="curve"/>
      <point x="201.3684210526316" y="0.0" type="line"/>
      <point x="216.3157894736842" y="38.473684210526315"/>
      <point x="227.1842105263158" y="65.26315789473685"/>
      <point x="242.13157894736844" y="103.07894736842105" type="curve"/>
      <point x="275.2894736842105" y="174.36842105263156" type="line"/>
      <point x="285.5526315789474" y="174.36842105263156" type="line"/>
      <point x="323.07894736842104" y="99.07894736842105" type="line"/>
      <point x="339.02631578947376" y="63.92105263157894"/>
      <point x="351.57894736842104" y="35.13157894736842"/>
      <point x="366.84210526315786" y="0.0" type="curve"/>
      <point x="569.078947368421" y="0.0" type="line"/>
      <point x="521.6842105263157" y="66.28947368421052"/>
      <point x="492.3157894736842" y="107.92105263157895"/>
      <point x="457.60526315789474" y="156.55263157894737" type="curve"/>
      <point x="380.44736842105266" y="275.7894736842105" type="line"/>
      <point x="388.6842105263158" y="242.71052631578948" type="line"/>
      <point x="457.8157894736842" y="351.0" type="line"/>
      <point x="491.86842105263156" y="401.9736842105263"/>
      <point x="513.8947368421052" y="433.2894736842105"/>
      <point x="558.6315789473683" y="499.2631578947368" type="curve"/>
      <point x="368.2368421052632" y="499.2631578947368" type="line"/>
      <point x="352.63157894736844" y="460.13157894736844"/>
      <point x="341.1052631578948" y="432.0263157894737"/>
      <point x="325.86842105263156" y="394.92105263157896" type="curve"/>
      <point x="292.7631578947368" y="326.6578947368421" type="line"/>
      <point x="281.5263157894737" y="326.6578947368421" type="line"/>
      <point x="247.10526315789474" y="395.89473684210526" type="line"/>
      <point x="231.8684210526316" y="431.68421052631584"/>
      <point x="218.6842105263158" y="463.7368421052632"/>
      <point x="201.07894736842107" y="503.89473684210526" type="curve"/>
      <point x="10.052631578947366" y="499.2631578947368" type="line"/>
      <point x="52.473684210526315" y="436.60526315789474"/>
      <point x="77.84210526315789" y="398.6315789473684"/>
      <point x="111.57894736842104" y="348.9736842105263" type="curve"/>
      <point x="177.42105263157896" y="241.3421052631579" type="line"/>
      <point x="177.07894736842104" y="275.10526315789474" type="line"/>
      <point x="111.52631578947368" y="158.8684210526316" type="line"/>
      <point x="78.78947368421053" y="106.57894736842105"/>
      <point x="55.39473684210527" y="69.26315789473685"/>
    </contour>
  </outline>
</glyph>
<glyph name="y" format="2">
  <advance width="554.6052631578948"/>
  <unicode hex="0079"/>
  <anchor x="444.7368421052632" y="0.0" name="bottom"/>
  <anchor x="278.94736842105266" y="499.2631578947368" name="top"/>
  <outline>
    <contour>
      <point x="98.68421052631578" y="-196.6315789473684" type="curve"/>
      <point x="284.39473684210526" y="-192.0" type="line"/>
      <point x="310.10526315789474" y="-120.0"/>
      <point x="339.47368421052636" y="-37.02631578947368"/>
      <point x="384.86842105263156" y="90.63157894736842" type="curve"/>
      <point x="438.89473684210526" y="230.94736842105263" type="line"/>
      <point x="489.57894736842104" y="356.60526315789474"/>
      <point x="513.921052631579" y="418.2631578947368"/>
      <point x="546.6052631578947" y="499.2631578947368" type="curve"/>
      <point x="366.1578947368421" y="499.2631578947368" type="line"/>
      <point x="350.5526315789474" y="430.2631578947368"/>
      <point x="335.2894736842105" y="364.60526315789474"/>
      <point x="318.6842105263158" y="295.2631578947369" type="curve"/>
      <point x="282.5263157894737" y="163.28947368421055" type="line"/>
      <point x="269.94736842105266" y="163.28947368421055" type="line"/>
      <point x="237.1578947368421" y="295.57894736842104" type="line"/>
      <point x="221.89473684210526" y="366.57894736842104"/>
      <point x="206.9736842105263" y="432.89473684210526"/>
      <point x="191.71052631578948" y="503.89473684210526" type="curve"/>
      <point x="8.0" y="499.2631578947368" type="line"/>
      <point x="35.34210526315789" y="428.2631578947368"/>
      <point x="65.34210526315789" y="352.2631578947368"/>
      <point x="93.34210526315789" y="279.94736842105266" type="curve"/>
      <point x="124.71052631578948" y="189.94736842105263" type="line"/>
      <point x="145.76315789473685" y="123.94736842105263"/>
      <point x="168.81578947368422" y="52.94736842105263"/>
      <point x="190.18421052631578" y="-16.36842105263158" type="curve"/>
      <point x="197.44736842105263" y="12.447368421052634" type="line"/>
      <point x="165.18421052631578" y="-55.47368421052631"/>
      <point x="130.94736842105263" y="-128.3684210526316"/>
    </contour>
  </outline>
</glyph>
<glyph name="braceleft" format="2">
  <advance width="449.63157894736844"/>
  <unicode hex="007B"/>
  <outline>
    <contour>
      <point x="324.4736842105263" y="-123.84210526315789" type="curve" smooth="yes"/>
      <point x="426.4736842105263" y="-123.84210526315789" type="line"/>
      <point x="426.4736842105263" y="3.868421052631586" type="line"/>
      <point x="395.89473684210526" y="2.5526315789473752"/>
      <point x="365.8157894736842" y="0.8947368421052699"/>
      <point x="348.8157894736842" y="0.23684210526316463" type="curve"/>
      <point x="301.7894736842105" y="3.2105263157894806"/>
      <point x="280.57894736842104" y="24.684210526315795"/>
      <point x="279.2631578947368" y="70.23684210526316" type="curve" smooth="yes"/>
      <point x="273.6578947368421" y="229.8421052631579" type="line" smooth="yes"/>
      <point x="273.0" y="243.76315789473682"/>
      <point x="220.76315789473682" y="293.4473684210526"/>
      <point x="184.28947368421052" y="319.6842105263158" type="curve"/>
      <point x="184.28947368421052" y="331.60526315789474" type="line"/>
      <point x="220.76315789473682" y="358.1578947368421"/>
      <point x="273.0" y="405.55263157894734"/>
      <point x="273.6578947368421" y="421.10526315789474" type="curve" smooth="yes"/>
      <point x="279.2631578947368" y="581.0526315789474" type="line" smooth="yes"/>
      <point x="280.57894736842104" y="626.6052631578947"/>
      <point x="301.7894736842105" y="648.0789473684212"/>
      <point x="348.8157894736842" y="651.0526315789474" type="curve"/>
      <point x="366.1578947368421" y="650.3947368421053"/>
      <point x="395.92105263157896" y="648.7368421052632"/>
      <point x="423.1842105263158" y="647.421052631579" type="curve"/>
      <point x="423.1842105263158" y="775.1315789473684" type="line"/>
      <point x="324.4736842105263" y="775.1315789473684" type="line" smooth="yes"/>
      <point x="205.8684210526316" y="775.1315789473684"/>
      <point x="129.81578947368422" y="715.6578947368421"/>
      <point x="129.81578947368422" y="609.3421052631579" type="curve"/>
      <point x="129.81578947368422" y="602.6315789473684"/>
      <point x="134.10526315789474" y="475.07894736842104"/>
      <point x="134.10526315789474" y="468.36842105263156" type="curve"/>
      <point x="134.10526315789474" y="414.94736842105266"/>
      <point x="99.47368421052632" y="380.7631578947368"/>
      <point x="59.84210526315789" y="380.7631578947368" type="curve" smooth="yes"/>
      <point x="16.578947368421055" y="380.7631578947368" type="line"/>
      <point x="16.578947368421055" y="270.1842105263158" type="line"/>
      <point x="59.84210526315789" y="270.1842105263158" type="line" smooth="yes"/>
      <point x="99.47368421052632" y="270.1842105263158"/>
      <point x="134.10526315789474" y="236.0"/>
      <point x="134.10526315789474" y="182.57894736842104" type="curve"/>
      <point x="134.10526315789474" y="175.8684210526316"/>
      <point x="129.81578947368422" y="48.65789473684211"/>
      <point x="129.81578947368422" y="41.94736842105263" type="curve"/>
      <point x="129.81578947368422" y="-64.36842105263158"/>
      <point x="205.8684210526316" y="-123.84210526315789"/>
    </contour>
  </outline>
</glyph>
<glyph name="asciitilde" format="2">
  <advance width="579.7368421052631"/>
  <unicode hex="007E"/>
  <outline>
    <contour>
      <point x="404.8157894736842" y="204.05263157894737" type="curve" smooth="yes"/>
      <point x="480.2105263157895" y="204.05263157894737"/>
      <point x="529.4736842105264" y="273.3157894736842"/>
      <point x="529.4736842105264" y="387.42105263157896" type="curve"/>
      <point x="437.3157894736842" y="387.42105263157896" type="line"/>
      <point x="429.05263157894734" y="356.42105263157896"/>
      <point x="413.89473684210526" y="341.0"/>
      <point x="387.6842105263158" y="338.3421052631579" type="curve"/>
      <point x="335.10526315789474" y="342.3157894736842"/>
      <point x="264.47368421052636" y="406.3421052631579"/>
      <point x="180.5263157894737" y="406.3421052631579" type="curve" smooth="yes"/>
      <point x="101.18421052631578" y="406.3421052631579"/>
      <point x="50.26315789473684" y="336.42105263157896"/>
      <point x="50.26315789473684" y="222.9736842105263" type="curve"/>
      <point x="142.42105263157896" y="222.9736842105263" type="line"/>
      <point x="150.6842105263158" y="253.9736842105263"/>
      <point x="168.1578947368421" y="269.39473684210526"/>
      <point x="195.6842105263158" y="272.05263157894734" type="curve"/>
      <point x="244.97368421052633" y="268.07894736842104"/>
      <point x="318.89473684210526" y="204.05263157894737"/>
    </contour>
  </outline>
</glyph>
<glyph name="cent" format="2">
  <advance width="483.57894736842104"/>
  <unicode hex="00A2"/>
  <outline>
    <contour>
      <point x="216.92105263157896" y="-137.0" type="curve"/>
      <point x="342.6842105263158" y="-137.0" type="line"/>
      <point x="340.7105263157895" y="-66.28947368421053"/>
      <point x="338.39473684210526" y="8.710526315789473"/>
      <point x="336.42105263157896" y="68.21052631578948" type="curve"/>
      <point x="223.18421052631578" y="68.21052631578948" type="line"/>
      <point x="221.21052631578948" y="8.71052631578948"/>
      <point x="218.89473684210526" y="-66.28947368421052"/>
    </contour>
    <contour>
      <point x="222.52631578947367" y="436.60526315789474" type="curve"/>
      <point x="337.07894736842104" y="436.60526315789474" type="line"/>
      <point x="338.39473684210526" y="492.7894736842106"/>
      <point x="340.7105263157895" y="561.5263157894736"/>
      <point x="342.6842105263158" y="626.2894736842105" type="curve"/>
      <point x="216.92105263157893" y="626.2894736842105" type="line"/>
      <point x="218.89473684210526" y="561.5263157894736"/>
      <point x="221.21052631578948" y="492.7894736842106"/>
    </contour>
    <contour>
      <point x="296.7631578947368" y="-10.973684210526315" type="curve" smooth="yes"/>
      <point x="325.15789473684214" y="-10.973684210526315"/>
      <point x="408.6315789473684" y="2.447368421052631"/>
      <point x="450.3157894736842" y="13.842105263157894" type="curve"/>
      <point x="442.6578947368421" y="146.5526315789474" type="line"/>
      <point x="405.8157894736842" y="132.10526315789474"/>
      <point x="351.0" y="117.07894736842105"/>
      <point x="336.2368421052631" y="117.07894736842105" type="curve" smooth="yes"/>
      <point x="244.8947368421053" y="118.76315789473685"/>
      <point x="192.34210526315792" y="172.0"/>
      <point x="192.34210526315792" y="253.26315789473685" type="curve" smooth="yes"/>
      <point x="192.34210526315792" y="331.05263157894734"/>
      <point x="238.1315789473684" y="377.55263157894734"/>
      <point x="303.89473684210526" y="380.55263157894734" type="curve"/>
      <point x="317.2894736842106" y="380.55263157894734"/>
      <point x="381.63157894736844" y="363.2105263157895"/>
      <point x="439.6842105263158" y="342.1842105263158" type="curve"/>
      <point x="451.2631578947368" y="477.5263157894737" type="line"/>
      <point x="398.13157894736844" y="493.47368421052636"/>
      <point x="314.1578947368421" y="512.5526315789474"/>
      <point x="285.7894736842105" y="512.5526315789474" type="curve" smooth="yes"/>
      <point x="119.73684210526316" y="512.5526315789474"/>
      <point x="33.05263157894737" y="400.2368421052632"/>
      <point x="33.05263157894737" y="248.6578947368421" type="curve" smooth="yes"/>
      <point x="33.05263157894737" y="98.07894736842105"/>
      <point x="129.92105263157896" y="-10.973684210526315"/>
    </contour>
  </outline>
</glyph>
<glyph name="sterling" format="2">
  <advance width="607.9473684210526"/>
  <unicode hex="00A3"/>
  <outline>
    <contour>
      <point x="48.68421052631579" y="0.0" type="line"/>
      <point x="576.2368421052631" y="0.0" type="line"/>
      <point x="576.2368421052631" y="156.6842105263158" type="line"/>
      <point x="501.5" y="152.3947368421053"/>
      <point x="389.57894736842104" y="146.78947368421055"/>
      <point x="302.5526315789474" y="141.84210526315792" type="curve"/>
      <point x="168.3684210526316" y="141.84210526315792" type="line"/>
      <point x="199.68421052631578" y="115.60526315789474" type="line"/>
      <point x="271.0" y="225.2105263157895"/>
      <point x="286.6578947368421" y="257.9473684210526"/>
      <point x="286.6578947368421" y="292.0263157894737" type="curve" smooth="yes"/>
      <point x="286.6578947368421" y="432.3421052631579" type="line" smooth="yes"/>
      <point x="286.6578947368421" y="522.3684210526316"/>
      <point x="327.5526315789474" y="561.6842105263157"/>
      <point x="402.4736842105263" y="564.6578947368421" type="curve"/>
      <point x="423.10526315789474" y="564.6578947368421"/>
      <point x="474.94736842105266" y="551.2631578947368"/>
      <point x="536.9473684210527" y="525.6315789473684" type="curve"/>
      <point x="552.4736842105262" y="667.8684210526316" type="line"/>
      <point x="511.8421052631579" y="682.1842105263157"/>
      <point x="443.0" y="702.578947368421"/>
      <point x="388.9736842105263" y="702.578947368421" type="curve" smooth="yes"/>
      <point x="208.05263157894737" y="702.578947368421"/>
      <point x="118.47368421052632" y="610.1578947368421"/>
      <point x="118.47368421052632" y="438.3157894736842" type="curve" smooth="yes"/>
      <point x="118.47368421052632" y="372.4473684210526"/>
      <point x="121.44736842105263" y="307.57894736842104"/>
      <point x="121.44736842105263" y="242.3684210526316" type="curve"/>
      <point x="121.44736842105263" y="218.28947368421055"/>
      <point x="108.76315789473685" y="185.8421052631579"/>
      <point x="48.68421052631579" y="88.1842105263158" type="curve"/>
    </contour>
    <contour>
      <point x="50.868421052631575" y="305.81578947368416" type="line"/>
      <point x="120.05263157894737" y="308.13157894736844"/>
      <point x="192.9736842105263" y="310.4473684210526"/>
      <point x="242.44736842105263" y="311.7631578947368" type="curve"/>
      <point x="281.6578947368421" y="311.7631578947368" type="line"/>
      <point x="331.13157894736844" y="310.4473684210526"/>
      <point x="404.0526315789474" y="308.13157894736844"/>
      <point x="473.2368421052632" y="305.81578947368416" type="curve"/>
      <point x="473.2368421052632" y="425.97368421052636" type="line"/>
      <point x="404.0526315789474" y="423.6578947368421"/>
      <point x="331.13157894736844" y="421.3421052631579"/>
      <point x="281.6578947368421" y="420.0263157894737" type="curve"/>
      <point x="242.44736842105263" y="420.0263157894737" type="line"/>
      <point x="192.9736842105263" y="421.3421052631579"/>
      <point x="120.05263157894737" y="423.6578947368421"/>
      <point x="50.868421052631575" y="425.97368421052636" type="curve"/>
    </contour>
  </outline>
</glyph>
<glyph name="currency" format="2">
  <advance width="655.2631578947369"/>
  <unicode hex="00A4"/>
  <outline>
    <contour>
      <point x="326.2894736842105" y="95.13157894736841" type="curve" smooth="yes"/>
      <point x="465.2105263157895" y="95.13157894736841"/>
      <point x="563.3157894736842" y="174.39473684210526"/>
      <point x="563.3157894736842" y="321.3157894736842" type="curve" smooth="yes"/>
      <point x="563.3157894736842" y="452.7368421052632"/>
      <point x="465.5526315789474" y="545.2105263157895"/>
      <point x="328.2894736842105" y="545.2105263157895" type="curve" smooth="yes"/>
      <point x="189.02631578947367" y="545.2105263157895"/>
      <point x="91.26315789473685" y="455.6842105263158"/>
      <point x="91.26315789473685" y="321.3157894736842" type="curve" smooth="yes"/>
      <point x="91.26315789473685" y="175.05263157894737"/>
      <point x="189.02631578947367" y="95.13157894736841"/>
    </contour>
    <contour>
      <point x="131.6315789473684" y="17.447368421052623" type="line"/>
      <point x="178.8684210526316" y="67.6578947368421"/>
      <point x="228.50000000000003" y="120.92105263157895"/>
      <point x="262.36842105263156" y="157.10526315789474" type="curve"/>
      <point x="164.39473684210526" y="255.07894736842104" type="line"/>
      <point x="128.21052631578948" y="221.21052631578948"/>
      <point x="74.94736842105263" y="171.57894736842107"/>
      <point x="24.736842105263154" y="124.3421052631579" type="curve"/>
    </contour>
    <contour>
      <point x="326.94736842105266" y="221.8684210526316" type="curve"/>
      <point x="271.86842105263156" y="226.5"/>
      <point x="229.84210526315792" y="257.39473684210526"/>
      <point x="229.84210526315792" y="320.6578947368421" type="curve" smooth="yes"/>
      <point x="229.84210526315792" y="377.9210526315789"/>
      <point x="272.2105263157895" y="414.5"/>
      <point x="327.63157894736844" y="419.13157894736844" type="curve"/>
      <point x="383.3684210526316" y="414.5"/>
      <point x="424.7368421052632" y="376.60526315789474"/>
      <point x="424.7368421052632" y="320.6578947368421" type="curve" smooth="yes"/>
      <point x="424.7368421052632" y="257.39473684210526"/>
      <point x="382.7105263157895" y="226.5"/>
    </contour>
    <contour>
      <point x="165.71052631578948" y="386.92105263157896" type="curve"/>
      <point x="261.0526315789474" y="482.2631578947368" type="line"/>
      <point x="227.1842105263158" y="518.4473684210526"/>
      <point x="177.55263157894737" y="571.7105263157894"/>
      <point x="130.31578947368422" y="621.921052631579" type="curve"/>
      <point x="26.052631578947366" y="517.6578947368421" type="line"/>
      <point x="76.26315789473684" y="470.42105263157896"/>
      <point x="129.52631578947367" y="420.7894736842105"/>
    </contour>
    <contour>
      <point x="524.9473684210526" y="18.763157894736835" type="curve"/>
      <point x="629.2105263157895" y="123.02631578947368" type="line"/>
      <point x="578.9999999999999" y="170.26315789473685"/>
      <point x="525.7368421052631" y="219.8947368421053"/>
      <point x="489.5526315789474" y="253.76315789473685" type="curve"/>
      <point x="394.2105263157895" y="158.42105263157896" type="line"/>
      <point x="428.07894736842104" y="122.23684210526315"/>
      <point x="477.7105263157895" y="68.97368421052632"/>
    </contour>
    <contour>
      <point x="490.86842105263156" y="385.60526315789474" type="line"/>
      <point x="527.0526315789474" y="419.47368421052636"/>
      <point x="580.3157894736842" y="469.10526315789474"/>
      <point x="630.5263157894736" y="516.3421052631579" type="curve"/>
      <point x="523.6315789473684" y="623.2368421052631" type="line"/>
      <point x="476.39473684210526" y="573.0263157894736"/>
      <point x="426.7631578947369" y="519.7631578947368"/>
      <point x="392.89473684210526" y="483.57894736842104" type="curve"/>
    </contour>
  </outline>
</glyph>
<glyph name="yen" format="2">
  <advance width="655.6315789473684"/>
  <unicode hex="00A5"/>
  <outline>
    <contour>
      <point x="250.1578947368421" y="243.26315789473682" type="line"/>
      <point x="408.10526315789474" y="243.26315789473682" type="line"/>
      <point x="545.6578947368421" y="513.5263157894736" type="line"/>
      <point x="579.3157894736842" y="570.7631578947368"/>
      <point x="615.0" y="630.7105263157895"/>
      <point x="648.6578947368421" y="687.9473684210526" type="curve"/>
      <point x="442.84210526315786" y="687.9473684210526" type="line"/>
      <point x="414.7105263157894" y="610.3157894736843"/>
      <point x="401.1315789473684" y="576.1052631578947"/>
      <point x="379.10526315789474" y="514.5526315789474" type="curve"/>
      <point x="336.2368421052632" y="414.1578947368421" type="line"/>
      <point x="322.3421052631579" y="414.1578947368421" type="line"/>
      <point x="281.13157894736844" y="513.5526315789474" type="line"/>
      <point x="260.07894736842104" y="571.8421052631578"/>
      <point x="247.18421052631578" y="608.6578947368422"/>
      <point x="219.36842105263162" y="687.9473684210526" type="curve"/>
      <point x="5.657894736842103" y="687.9473684210526" type="line"/>
      <point x="58.63157894736841" y="600.0789473684212"/>
      <point x="80.63157894736842" y="563.7894736842105"/>
      <point x="111.28947368421052" y="512.8684210526316" type="curve"/>
    </contour>
    <contour>
      <point x="234.65789473684208" y="0.0" type="curve"/>
      <point x="424.60526315789474" y="0.0" type="line"/>
      <point x="420.3157894736842" y="74.05263157894737"/>
      <point x="416.68421052631584" y="137.10526315789474"/>
      <point x="411.7368421052632" y="222.73684210526315" type="curve"/>
      <point x="411.7368421052632" y="377.4736842105263" type="line"/>
      <point x="247.18421052631578" y="377.4736842105263" type="line"/>
      <point x="247.18421052631578" y="222.73684210526315" type="line"/>
      <point x="242.23684210526315" y="137.10526315789474"/>
      <point x="238.94736842105263" y="74.05263157894737"/>
    </contour>
    <contour>
      <point x="71.21052631578947" y="111.92105263157895" type="line"/>
      <point x="140.39473684210526" y="114.23684210526315"/>
      <point x="213.31578947368422" y="116.55263157894737"/>
      <point x="262.7894736842105" y="117.86842105263158" type="curve"/>
      <point x="395.15789473684214" y="117.86842105263158" type="line"/>
      <point x="444.63157894736844" y="116.55263157894737"/>
      <point x="517.5526315789473" y="114.23684210526315"/>
      <point x="586.7368421052631" y="111.92105263157895" type="curve"/>
      <point x="586.7368421052631" y="215.63157894736844" type="line"/>
      <point x="517.5526315789473" y="214.63157894736844"/>
      <point x="444.63157894736844" y="213.63157894736844"/>
      <point x="395.15789473684214" y="212.97368421052633" type="curve"/>
      <point x="262.7894736842105" y="212.97368421052633" type="line"/>
      <point x="213.31578947368422" y="213.63157894736844"/>
      <point x="140.39473684210526" y="214.63157894736844"/>
      <point x="71.21052631578947" y="215.63157894736844" type="curve"/>
    </contour>
    <contour>
      <point x="71.21052631578947" y="277.44736842105266" type="line"/>
      <point x="140.39473684210526" y="278.44736842105266"/>
      <point x="213.31578947368422" y="279.44736842105266"/>
      <point x="262.7894736842105" y="280.10526315789474" type="curve"/>
      <point x="395.15789473684214" y="280.10526315789474" type="line"/>
      <point x="444.63157894736844" y="279.44736842105266"/>
      <point x="517.5526315789473" y="278.44736842105266"/>
      <point x="586.7368421052631" y="277.44736842105266" type="curve"/>
      <point x="586.7368421052631" y="381.15789473684214" type="line"/>
      <point x="517.5526315789473" y="378.84210526315786"/>
      <point x="444.63157894736844" y="376.5263157894737"/>
      <point x="395.15789473684214" y="375.2105263157895" type="curve"/>
      <point x="262.7894736842105" y="375.2105263157895" type="line"/>
      <point x="213.31578947368422" y="376.5263157894737"/>
      <point x="140.39473684210526" y="378.84210526315786"/>
      <point x="71.21052631578947" y="381.15789473684214" type="curve"/>
    </contour>
  </outline>
</glyph>
<glyph name="brokenbar" format="2">
  <advance width="284.2105263157895"/>
  <unicode hex="00A6"/>
  <outline>
    <contour>
      <point x="74.47368421052632" y="359.42105263157896" type="line"/>
      <point x="209.73684210526318" y="359.42105263157896" type="line"/>
      <point x="209.73684210526318" y="450.42105263157896" type="line"/>
      <point x="210.3947368421053" y="488.42105263157896"/>
      <point x="214.6842105263158" y="641.421052631579"/>
      <point x="218.31578947368422" y="779.421052631579" type="curve"/>
      <point x="65.89473684210526" y="779.421052631579" type="line"/>
      <point x="69.52631578947368" y="641.421052631579"/>
      <point x="73.8157894736842" y="488.42105263157896"/>
      <point x="74.47368421052632" y="450.42105263157896" type="curve"/>
    </contour>
    <contour>
      <point x="65.89473684210526" y="-160.57894736842104" type="curve"/>
      <point x="218.31578947368422" y="-160.57894736842104" type="line"/>
      <point x="214.6842105263158" y="-22.578947368421055"/>
      <point x="210.3947368421053" y="130.42105263157896"/>
      <point x="209.73684210526318" y="168.42105263157896" type="curve"/>
      <point x="209.73684210526318" y="259.42105263157896" type="line"/>
      <point x="74.47368421052632" y="259.42105263157896" type="line"/>
      <point x="74.47368421052632" y="168.42105263157896" type="line"/>
      <point x="73.8157894736842" y="130.42105263157896"/>
      <point x="69.52631578947368" y="-22.578947368421055"/>
    </contour>
  </outline>
</glyph>
<glyph name="section" format="2">
  <advance width="583.5533980582525"/>
  <unicode hex="00A7"/>
  <outline>
    <contour>
      <point x="248.10679611650485" y="-130.95145631067962" type="curve" smooth="yes"/>
      <point x="417.1747572815534" y="-130.95145631067962"/>
      <point x="488.97087378640776" y="-58.42718446601941"/>
      <point x="488.97087378640776" y="47.10679611650485" type="curve" smooth="yes"/>
      <point x="488.97087378640776" y="149.36893203883497"/>
      <point x="429.50485436893206" y="189.5339805825243"/>
      <point x="300.7087378640777" y="225.53398058252426" type="curve" smooth="yes"/>
      <point x="221.8252427184466" y="247.58252427184468"/>
      <point x="193.72815533980585" y="268.26213592233006"/>
      <point x="193.72815533980585" y="311.5145631067961" type="curve" smooth="yes"/>
      <point x="193.72815533980585" y="352.9805825242718"/>
      <point x="228.93203883495147" y="381.4466019417476"/>
      <point x="260.7669902912622" y="385.3398058252427" type="curve"/>
      <point x="190.4368932038835" y="477.63106796116506" type="line"/>
      <point x="89.26213592233009" y="454.0"/>
      <point x="33.252427184466015" y="385.631067961165"/>
      <point x="33.252427184466015" y="306.20388349514565" type="curve" smooth="yes"/>
      <point x="33.252427184466015" y="218.35922330097088"/>
      <point x="87.30097087378641" y="169.14563106796115"/>
      <point x="196.88349514563106" y="137.62135922330097" type="curve" smooth="yes"/>
      <point x="298.6601941747573" y="108.04854368932038"/>
      <point x="330.2330097087379" y="95.5242718446602"/>
      <point x="330.2330097087379" y="53.53398058252427" type="curve" smooth="yes"/>
      <point x="330.2330097087379" y="4.815533980582533"/>
      <point x="288.0873786407767" y="-9.970873786407758"/>
      <point x="237.7864077669903" y="-11.970873786407758" type="curve"/>
      <point x="208.2135922330097" y="-11.970873786407758"/>
      <point x="125.41747572815534" y="13.766990291262147"/>
      <point x="41.20388349514564" y="43.50485436893205" type="curve"/>
      <point x="31.097087378640772" y="-91.16504854368932" type="line"/>
      <point x="110.57281553398057" y="-111.6893203883495"/>
      <point x="206.10679611650488" y="-130.95145631067962"/>
    </contour>
    <contour>
      <point x="406.16504854368935" y="123.7864077669903" type="line"/>
      <point x="509.81553398058253" y="155.15533980582524"/>
      <point x="555.7184466019418" y="220.4757281553398"/>
      <point x="555.7184466019418" y="296.4757281553398" type="curve" smooth="yes"/>
      <point x="555.7184466019418" y="386.84466019417476"/>
      <point x="496.25242718446606" y="427.7378640776699"/>
      <point x="367.4563106796117" y="463.7378640776699" type="curve" smooth="yes"/>
      <point x="288.5728155339806" y="485.7864077669903"/>
      <point x="260.4757281553398" y="506.4660194174757"/>
      <point x="260.4757281553398" y="542.1941747572815" type="curve" smooth="yes"/>
      <point x="260.4757281553398" y="591.9126213592233"/>
      <point x="308.9320388349514" y="603.4368932038834"/>
      <point x="341.6601941747573" y="605.4368932038834" type="curve"/>
      <point x="357.92233009708735" y="605.4368932038834"/>
      <point x="436.0291262135923" y="582.4368932038834"/>
      <point x="510.24271844660194" y="554.0679611650485" type="curve"/>
      <point x="520.0873786407767" y="691.3203883495147" type="line"/>
      <point x="459.9223300970874" y="703.9514563106796"/>
      <point x="358.49514563106794" y="727.7378640776699"/>
      <point x="311.43689320388347" y="727.7378640776699" type="curve" smooth="yes"/>
      <point x="177.3203883495146" y="727.7378640776699"/>
      <point x="99.36893203883496" y="657.8932038834951"/>
      <point x="99.36893203883496" y="549.3592233009708" type="curve" smooth="yes"/>
      <point x="99.36893203883496" y="455.83495145631065"/>
      <point x="159.72815533980582" y="402.93203883495147"/>
      <point x="263.63106796116506" y="375.1941747572816" type="curve" smooth="yes"/>
      <point x="364.77669902912623" y="348.1456310679612"/>
      <point x="396.9805825242719" y="326.252427184466"/>
      <point x="396.9805825242719" y="281.73786407766994" type="curve" smooth="yes"/>
      <point x="396.9805825242719" y="241.0582524271845"/>
      <point x="367.8252427184466" y="213.28155339805826"/>
      <point x="327.1456310679612" y="205.86407766990294" type="curve"/>
    </contour>
  </outline>
</glyph>
<glyph name="ordfeminine" format="2">
  <advance width="405.16504854368935"/>
  <unicode hex="00AA"/>
  <outline>
    <contour>
      <point x="137.35922330097085" y="329.15533980582524" type="curve" smooth="yes"/>
      <point x="168.14563106796118" y="329.15533980582524"/>
      <point x="217.66990291262138" y="360.4174757281554"/>
      <point x="256.1941747572816" y="392.3106796116505" type="curve"/>
      <point x="265.30097087378635" y="392.3106796116505" type="line"/>
      <point x="278.56310679611653" y="337.8932038834952" type="line"/>
      <point x="387.1747572815534" y="337.8932038834952" type="line"/>
      <point x="377.17475728155347" y="388.68932038834953"/>
      <point x="370.54368932038835" y="423.4271844660194"/>
      <point x="363.1747572815534" y="463.4854368932039" type="curve"/>
      <point x="363.1747572815534" y="498.8932038834951" type="line" smooth="yes"/>
      <point x="363.1747572815534" y="527.0485436893204"/>
      <point x="365.54368932038835" y="566.7864077669904"/>
      <point x="365.54368932038835" y="591.5242718446601" type="curve" smooth="yes"/>
      <point x="365.54368932038835" y="687.3689320388349"/>
      <point x="307.9611650485437" y="727.7378640776699"/>
      <point x="216.16504854368932" y="727.7378640776699" type="curve" smooth="yes"/>
      <point x="193.27184466019418" y="727.7378640776699"/>
      <point x="87.0485436893204" y="709.7378640776699"/>
      <point x="49.310679611650485" y="700.1067961165048" type="curve"/>
      <point x="54.04854368932038" y="593.5533980582524" type="line"/>
      <point x="114.78640776699028" y="614.4466019417475"/>
      <point x="178.89320388349515" y="631.8155339805826"/>
      <point x="188.41747572815532" y="631.8155339805826" type="curve" smooth="yes"/>
      <point x="229.72815533980582" y="631.8155339805826"/>
      <point x="261.56310679611653" y="619.9223300970874"/>
      <point x="259.30097087378635" y="580.7281553398059" type="curve"/>
      <point x="149.5728155339806" y="559.2038834951456" type="line" smooth="yes"/>
      <point x="105.2135922330097" y="550.6796116504854"/>
      <point x="32.310679611650485" y="523.1067961165048"/>
      <point x="32.310679611650485" y="433.8932038834952" type="curve" smooth="yes"/>
      <point x="32.310679611650485" y="375.63106796116506"/>
      <point x="68.09708737864077" y="329.15533980582524"/>
    </contour>
    <contour>
      <point x="187.74757281553397" y="419.2330097087379" type="curve" smooth="yes"/>
      <point x="162.49514563106797" y="419.2330097087379"/>
      <point x="140.92233009708738" y="432.0194174757281"/>
      <point x="140.92233009708738" y="461.747572815534" type="curve" smooth="yes"/>
      <point x="140.92233009708738" y="493.1067961165048"/>
      <point x="167.91262135922332" y="505.8932038834951"/>
      <point x="194.5339805825243" y="512.1553398058252" type="curve" smooth="yes"/>
      <point x="235.99029126213594" y="522.3106796116505"/>
      <point x="246.66990291262135" y="527.2038834951456"/>
      <point x="256.56310679611653" y="534.5728155339806" type="curve"/>
      <point x="256.56310679611653" y="458.6407766990291" type="line"/>
      <point x="232.46601941747576" y="436.1747572815534"/>
      <point x="201.58252427184468" y="419.2330097087379"/>
    </contour>
  </outline>
</glyph>
<glyph name="logicalnot" format="2">
  <advance width="579.7368421052631"/>
  <unicode hex="00AC"/>
  <outline>
    <contour>
      <point x="384.31578947368416" y="51.18421052631579" type="curve"/>
      <point x="535.421052631579" y="51.18421052631579" type="line"/>
      <point x="533.1052631578948" y="120.36842105263158"/>
      <point x="530.7894736842105" y="193.28947368421052"/>
      <point x="529.4736842105264" y="242.76315789473685" type="curve"/>
      <point x="529.4736842105264" y="377.7894736842106" type="line"/>
      <point x="460.2894736842105" y="375.4736842105263"/>
      <point x="387.36842105263156" y="373.15789473684214"/>
      <point x="337.89473684210526" y="371.8421052631579" type="curve"/>
      <point x="241.8421052631579" y="371.8421052631579" type="line"/>
      <point x="192.3684210526316" y="373.15789473684214"/>
      <point x="119.44736842105263" y="375.4736842105263"/>
      <point x="50.26315789473684" y="377.7894736842106" type="curve"/>
      <point x="50.26315789473684" y="230.6315789473684" type="line"/>
      <point x="119.44736842105263" y="232.9473684210526"/>
      <point x="192.3684210526316" y="235.26315789473682"/>
      <point x="241.8421052631579" y="236.57894736842104" type="curve"/>
      <point x="337.89473684210526" y="236.57894736842104" type="line"/>
      <point x="381.42105263157896" y="235.26315789473682"/>
      <point x="445.7368421052632" y="232.9473684210526"/>
      <point x="506.3157894736842" y="230.6315789473684" type="curve"/>
      <point x="390.2631578947368" y="332.89473684210526" type="line"/>
      <point x="390.2631578947368" y="242.76315789473685" type="line"/>
      <point x="388.9473684210526" y="193.28947368421052"/>
      <point x="386.63157894736844" y="120.36842105263158"/>
    </contour>
  </outline>
</glyph>
<glyph name="plusminus" format="2">
  <advance width="579.7368421052631"/>
  <unicode hex="00B1"/>
  <outline>
    <contour>
      <point x="50.26315789473684" y="-5.947368421052632" type="line"/>
      <point x="119.44736842105263" y="-3.6315789473684212"/>
      <point x="192.3684210526316" y="-1.3157894736842106"/>
      <point x="241.8421052631579" y="0.0" type="curve"/>
      <point x="337.89473684210526" y="0.0" type="line"/>
      <point x="387.36842105263156" y="-1.3157894736842106"/>
      <point x="460.2894736842105" y="-3.6315789473684212"/>
      <point x="529.4736842105264" y="-5.947368421052632" type="curve"/>
      <point x="529.4736842105264" y="141.21052631578948" type="line"/>
      <point x="460.2894736842105" y="138.8947368421053"/>
      <point x="387.36842105263156" y="136.57894736842107"/>
      <point x="337.89473684210526" y="135.26315789473685" type="curve"/>
      <point x="241.8421052631579" y="135.26315789473685" type="line"/>
      <point x="192.3684210526316" y="136.57894736842107"/>
      <point x="119.44736842105263" y="138.8947368421053"/>
      <point x="50.26315789473684" y="141.21052631578948" type="curve"/>
    </contour>
    <contour>
      <point x="50.26315789473684" y="360.86842105263156" type="line"/>
      <point x="119.44736842105263" y="363.18421052631584"/>
      <point x="192.3684210526316" y="365.5"/>
      <point x="241.8421052631579" y="366.8157894736842" type="curve"/>
      <point x="337.89473684210526" y="366.8157894736842" type="line"/>
      <point x="387.36842105263156" y="365.5"/>
      <point x="460.2894736842105" y="363.18421052631584"/>
      <point x="529.4736842105264" y="360.86842105263156" type="curve"/>
      <point x="529.4736842105264" y="508.0263157894737" type="line"/>
      <point x="460.2894736842105" y="505.7105263157894"/>
      <point x="387.36842105263156" y="503.39473684210526"/>
      <point x="337.89473684210526" y="502.07894736842104" type="curve"/>
      <point x="241.8421052631579" y="502.07894736842104" type="line"/>
      <point x="192.3684210526316" y="503.39473684210526"/>
      <point x="119.44736842105263" y="505.7105263157894"/>
      <point x="50.26315789473684" y="508.0263157894737" type="curve"/>
    </contour>
    <contour>
      <point x="214.3157894736842" y="194.57894736842104" type="curve"/>
      <point x="365.42105263157896" y="194.57894736842104" type="line"/>
      <point x="363.1052631578947" y="263.7631578947369"/>
      <point x="360.7894736842105" y="336.6842105263158"/>
      <point x="359.4736842105263" y="386.1578947368421" type="curve"/>
      <point x="359.4736842105263" y="482.7368421052632" type="line"/>
      <point x="360.7894736842105" y="532.2105263157895"/>
      <point x="363.1052631578947" y="605.1315789473684"/>
      <point x="365.42105263157896" y="674.3157894736842" type="curve"/>
      <point x="214.3157894736842" y="674.3157894736842" type="line"/>
      <point x="216.63157894736838" y="605.1315789473684"/>
      <point x="218.9473684210526" y="532.2105263157895"/>
      <point x="220.26315789473682" y="482.7368421052632" type="curve"/>
      <point x="220.26315789473682" y="386.1578947368421" type="line"/>
      <point x="218.9473684210526" y="336.6842105263158"/>
      <point x="216.63157894736838" y="263.7631578947369"/>
    </contour>
  </outline>
</glyph>
<glyph name="micro" format="2">
  <advance width="576.6315789473683"/>
  <unicode hex="00B5"/>
  <outline>
    <contour>
      <point x="38.97368421052631" y="-196.6315789473684" type="curve"/>
      <point x="224.31578947368422" y="-192.0" type="line"/>
      <point x="218.71052631578948" y="-120.94736842105263"/>
      <point x="214.42105263157896" y="-59.23684210526316"/>
      <point x="208.1578947368421" y="15.184210526315788" type="curve" smooth="yes"/>
      <point x="208.1578947368421" y="29.263157894736842" type="line"/>
      <point x="139.36842105263156" y="29.263157894736842" type="line"/>
      <point x="160.07894736842104" y="-0.18421052631579116"/>
      <point x="190.52631578947367" y="-13.605263157894736"/>
      <point x="231.4736842105263" y="-13.605263157894736" type="curve" smooth="yes"/>
      <point x="275.94736842105266" y="-13.605263157894736"/>
      <point x="337.3157894736843" y="31.684210526315795"/>
      <point x="373.7105263157895" y="80.86842105263158" type="curve"/>
      <point x="384.9736842105263" y="80.86842105263158" type="line"/>
      <point x="405.0263157894737" y="0.0" type="line"/>
      <point x="551.1842105263158" y="0.0" type="line"/>
      <point x="538.8421052631578" y="62.44736842105263"/>
      <point x="529.5263157894736" y="113.21052631578947"/>
      <point x="519.5263157894736" y="166.39473684210526" type="curve"/>
      <point x="519.8684210526316" y="272.3157894736842" type="line"/>
      <point x="521.1842105263157" y="365.8157894736842"/>
      <point x="522.1842105263158" y="420.9736842105263"/>
      <point x="523.5" y="499.2631578947368" type="curve"/>
      <point x="351.6578947368421" y="499.2631578947368" type="line"/>
      <point x="355.94736842105266" y="428.2105263157895"/>
      <point x="359.57894736842104" y="364.8421052631579"/>
      <point x="363.2105263157895" y="292.0526315789474" type="curve"/>
      <point x="363.2105263157895" y="182.73684210526315" type="line"/>
      <point x="332.7105263157895" y="152.94736842105266"/>
      <point x="290.2105263157895" y="125.63157894736842"/>
      <point x="271.2894736842105" y="125.63157894736842" type="curve" smooth="yes"/>
      <point x="223.68421052631578" y="125.63157894736842"/>
      <point x="208.1578947368421" y="159.18421052631578"/>
      <point x="208.1578947368421" y="228.21052631578948" type="curve"/>
      <point x="208.5" y="292.0526315789474" type="line"/>
      <point x="209.81578947368422" y="359.89473684210526"/>
      <point x="211.78947368421055" y="442.7105263157895"/>
      <point x="213.44736842105266" y="503.89473684210526" type="curve"/>
      <point x="37.657894736842096" y="499.2631578947368" type="line"/>
      <point x="42.60526315789473" y="428.2105263157895"/>
      <point x="46.23684210526315" y="366.15789473684214"/>
      <point x="51.84210526315789" y="272.3157894736842" type="curve"/>
      <point x="51.84210526315789" y="23.736842105263158" type="line"/>
      <point x="46.89473684210526" y="-59.23684210526316"/>
      <point x="43.263157894736835" y="-125.57894736842105"/>
    </contour>
  </outline>
</glyph>
<glyph name="paragraph" format="2">
  <advance width="582.5263157894736"/>
  <unicode hex="00B6"/>
  <outline>
    <contour>
      <point x="217.10526315789474" y="280.7631578947368" type="curve" smooth="yes"/>
      <point x="237.76315789473685" y="280.7631578947368" type="line"/>
      <point x="237.76315789473685" y="713.0" type="line"/>
      <point x="217.10526315789474" y="713.0" type="line"/>
      <point x="96.26315789473685" y="713.0"/>
      <point x="23.552631578947366" y="623.7631578947369"/>
      <point x="23.552631578947366" y="500.2105263157895" type="curve" smooth="yes"/>
      <point x="23.552631578947366" y="383.6578947368421"/>
      <point x="88.60526315789474" y="280.7631578947368"/>
    </contour>
    <contour>
      <point x="213.78947368421055" y="-194.10526315789474" type="curve"/>
      <point x="324.7631578947368" y="-194.10526315789474" type="line"/>
      <point x="321.78947368421046" y="-56.105263157894726"/>
      <point x="318.81578947368416" y="96.89473684210526"/>
      <point x="318.1578947368421" y="134.89473684210526" type="curve"/>
      <point x="318.1578947368421" y="384.0" type="line"/>
      <point x="318.81578947368416" y="422.0"/>
      <point x="323.1052631578947" y="575.0"/>
      <point x="326.7368421052631" y="713.0" type="curve"/>
      <point x="222.3684210526316" y="713.0" type="line"/>
      <point x="222.3684210526316" y="575.0"/>
      <point x="222.3684210526316" y="422.0"/>
      <point x="222.3684210526316" y="384.0" type="curve"/>
      <point x="222.3684210526316" y="134.89473684210526" type="line"/>
      <point x="221.71052631578948" y="96.89473684210526"/>
      <point x="217.42105263157896" y="-56.105263157894726"/>
    </contour>
    <contour>
      <point x="385.2368421052632" y="-194.10526315789474" type="curve"/>
      <point x="496.2105263157895" y="-194.10526315789474" type="line"/>
      <point x="492.57894736842104" y="-56.105263157894726"/>
      <point x="488.2894736842105" y="96.89473684210526"/>
      <point x="487.63157894736844" y="134.89473684210526" type="curve"/>
      <point x="487.63157894736844" y="384.0" type="line"/>
      <point x="488.2894736842105" y="422.0"/>
      <point x="492.57894736842104" y="575.0"/>
      <point x="496.2105263157895" y="713.0" type="curve"/>
      <point x="383.2631578947369" y="713.0" type="line"/>
      <point x="386.8947368421053" y="575.0"/>
      <point x="391.18421052631584" y="422.0"/>
      <point x="391.8421052631579" y="384.0" type="curve"/>
      <point x="391.8421052631579" y="134.89473684210526" type="line"/>
      <point x="391.18421052631584" y="96.89473684210526"/>
      <point x="388.21052631578954" y="-56.105263157894726"/>
    </contour>
    <contour>
      <point x="271.4736842105263" y="623.7894736842105" type="line"/>
      <point x="367.5263157894737" y="623.7894736842105" type="line"/>
      <point x="417.0" y="622.4736842105264"/>
      <point x="489.92105263157896" y="620.1578947368421"/>
      <point x="559.1052631578948" y="617.8421052631579" type="curve"/>
      <point x="559.1052631578948" y="713.0" type="line"/>
      <point x="489.92105263157896" y="713.0"/>
      <point x="417.0" y="713.0"/>
      <point x="367.5263157894737" y="713.0" type="curve"/>
      <point x="271.4736842105263" y="713.0" type="line"/>
    </contour>
  </outline>
</glyph>
<glyph name="ordmasculine" format="2">
  <advance width="459.89473684210526"/>
  <unicode hex="00BA"/>
  <outline>
    <contour>
      <point x="231.60526315789474" y="327.7631578947368" type="curve" smooth="yes"/>
      <point x="358.6842105263158" y="327.7631578947368"/>
      <point x="431.3421052631579" y="414.4473684210526"/>
      <point x="431.3421052631579" y="529.0526315789474" type="curve" smooth="yes"/>
      <point x="431.3421052631579" y="640.6842105263158"/>
      <point x="363.6578947368421" y="727.6315789473684"/>
      <point x="228.97368421052633" y="727.6315789473684" type="curve" smooth="yes"/>
      <point x="97.94736842105263" y="727.6315789473684"/>
      <point x="28.552631578947366" y="641.7105263157895"/>
      <point x="28.552631578947366" y="529.0526315789474" type="curve" smooth="yes"/>
      <point x="28.552631578947366" y="422.7368421052632"/>
      <point x="92.92105263157896" y="327.7631578947368"/>
    </contour>
    <contour>
      <point x="230.94736842105263" y="422.89473684210526" type="curve"/>
      <point x="176.28947368421052" y="426.2105263157895"/>
      <point x="146.71052631578948" y="471.6578947368421"/>
      <point x="146.71052631578948" y="529.0526315789474" type="curve" smooth="yes"/>
      <point x="146.71052631578948" y="585.8421052631579"/>
      <point x="176.0" y="629.1842105263158"/>
      <point x="230.94736842105263" y="632.5" type="curve"/>
      <point x="283.84210526315786" y="627.8684210526316"/>
      <point x="312.5263157894737" y="588.5526315789474"/>
      <point x="312.5263157894737" y="529.0526315789474" type="curve" smooth="yes"/>
      <point x="312.5263157894737" y="472.0"/>
      <point x="284.9473684210526" y="426.2105263157895"/>
    </contour>
  </outline>
</glyph>
<glyph name="AE" format="2">
  <advance width="1001.6504854368932"/>
  <unicode hex="00C6"/>
  <anchor x="556.9223300970874" y="0.0" name="bottom"/>
  <anchor x="556.9223300970874" y="713.0" name="top"/>
  <outline>
    <contour>
      <point x="2.941747572815533" y="0.0" type="curve"/>
      <point x="206.27184466019418" y="0.0" type="line"/>
      <point x="235.2621359223301" y="75.94174757281553"/>
      <point x="266.5145631067961" y="159.14563106796115"/>
      <point x="294.24271844660194" y="232.5631067961165" type="curve"/>
      <point x="446.9417475728156" y="575.5339805825242" type="line"/>
      <point x="473.2621359223301" y="575.5339805825242" type="line"/>
      <point x="585.0873786407767" y="575.5339805825242" type="line"/>
      <point x="603.2524271844661" y="713.0" type="line"/>
      <point x="338.74757281553394" y="713.0" type="line"/>
      <point x="309.43689320388347" y="641.3689320388349"/>
      <point x="281.0194174757281" y="572.1553398058253"/>
      <point x="245.8155339805825" y="487.0" type="curve"/>
      <point x="129.66990291262132" y="242.0" type="line"/>
      <point x="89.88349514563107" y="166.36893203883494"/>
      <point x="43.72815533980582" y="77.63106796116504"/>
    </contour>
    <contour>
      <point x="219.3398058252427" y="145.66019417475727" type="line"/>
      <point x="544.8640776699029" y="145.66019417475727" type="line"/>
      <point x="529.4368932038835" y="274.54368932038835" type="line"/>
      <point x="237.87378640776697" y="274.54368932038835" type="line"/>
    </contour>
    <contour>
      <point x="458.9417475728156" y="0.0" type="curve"/>
      <point x="654.9029126213592" y="0.0" type="line"/>
      <point x="654.9029126213592" y="27.378640776699033" type="line"/>
      <point x="650.1650485436893" y="103.90291262135923"/>
      <point x="646.0582524271846" y="170.4271844660194"/>
      <point x="640.9514563106796" y="259.5339805825243" type="curve"/>
      <point x="640.9514563106796" y="447.252427184466" type="line"/>
      <point x="646.0582524271846" y="539.0970873786407"/>
      <point x="650.1650485436893" y="606.0970873786407"/>
      <point x="654.9029126213592" y="685.6213592233009" type="curve"/>
      <point x="654.9029126213592" y="713.0" type="line"/>
      <point x="458.9417475728156" y="713.0" type="line"/>
      <point x="463.0485436893204" y="639.7864077669902"/>
      <point x="466.78640776699035" y="568.8446601941748"/>
      <point x="472.2621359223301" y="474.63106796116506" type="curve"/>
      <point x="472.2621359223301" y="232.15533980582524" type="line"/>
      <point x="467.1553398058253" y="142.04854368932038"/>
      <point x="463.0485436893204" y="75.52427184466019"/>
    </contour>
    <contour>
      <point x="621.8932038834952" y="0.0" type="line"/>
      <point x="953.4466019417475" y="0.0" type="line"/>
      <point x="953.4466019417475" y="153.57281553398062" type="line"/>
      <point x="893.7669902912621" y="149.83495145631073"/>
      <point x="804.621359223301" y="144.0970873786408"/>
      <point x="740.252427184466" y="139.99029126213594" type="curve"/>
      <point x="621.8932038834952" y="139.99029126213594" type="line"/>
    </contour>
    <contour>
      <point x="601.621359223301" y="294.3495145631068" type="line"/>
      <point x="731.1941747572816" y="294.3495145631068" type="line"/>
      <point x="795.1456310679612" y="292.24271844660194"/>
      <point x="886.9708737864079" y="288.873786407767"/>
      <point x="934.1844660194175" y="287.1359223300971" type="curve"/>
      <point x="934.1844660194175" y="432.91262135922335" type="line"/>
      <point x="880.8737864077672" y="430.5436893203884"/>
      <point x="814.0873786407767" y="427.8058252427185"/>
      <point x="731.8252427184467" y="424.0679611650486" type="curve"/>
      <point x="601.621359223301" y="424.0679611650486" type="line"/>
    </contour>
    <contour>
      <point x="611.5728155339806" y="573.0097087378641" type="line"/>
      <point x="728.6699029126213" y="573.0097087378641" type="line"/>
      <point x="803.5145631067961" y="568.5339805825242"/>
      <point x="887.9223300970874" y="563.1650485436894"/>
      <point x="948.9708737864079" y="559.4271844660195" type="curve"/>
      <point x="948.9708737864079" y="713.0" type="line"/>
      <point x="611.5728155339806" y="713.0" type="line"/>
    </contour>
  </outline>
</glyph>
<glyph name="multiply" format="2">
  <advance width="582.9473684210526"/>
  <unicode hex="00D7"/>
  <outline>
    <contour>
      <point x="437.57894736842104" y="54.5" type="curve"/>
      <point x="541.1842105263158" y="158.1052631578947" type="line"/>
      <point x="490.6315789473684" y="205.34210526315792"/>
      <point x="437.36842105263156" y="255.63157894736844"/>
      <point x="401.8421052631579" y="289.8421052631579" type="curve"/>
      <point x="277.10526315789474" y="414.57894736842104" type="line"/>
      <point x="242.8947368421053" y="450.10526315789474"/>
      <point x="192.60526315789477" y="503.36842105263156"/>
      <point x="145.3684210526316" y="553.921052631579" type="curve"/>
      <point x="41.763157894736835" y="450.31578947368416" type="line"/>
      <point x="92.3157894736842" y="403.07894736842104"/>
      <point x="145.57894736842104" y="352.7894736842105"/>
      <point x="181.10526315789474" y="318.57894736842104" type="curve"/>
      <point x="305.8421052631579" y="193.8421052631579" type="line"/>
      <point x="340.05263157894734" y="158.31578947368422"/>
      <point x="390.3421052631579" y="105.05263157894737"/>
    </contour>
    <contour>
      <point x="145.3684210526316" y="54.5" type="line"/>
      <point x="192.60526315789477" y="105.05263157894737"/>
      <point x="242.8947368421053" y="158.31578947368422"/>
      <point x="277.10526315789474" y="193.8421052631579" type="curve"/>
      <point x="401.8421052631579" y="318.57894736842104" type="line"/>
      <point x="437.36842105263156" y="352.7894736842105"/>
      <point x="490.6315789473684" y="403.07894736842104"/>
      <point x="541.1842105263158" y="450.31578947368416" type="curve"/>
      <point x="437.57894736842104" y="553.921052631579" type="line"/>
      <point x="390.3421052631579" y="503.36842105263156"/>
      <point x="340.05263157894734" y="450.10526315789474"/>
      <point x="305.8421052631579" y="414.57894736842104" type="curve"/>
      <point x="181.10526315789474" y="289.8421052631579" type="line"/>
      <point x="145.57894736842104" y="255.63157894736844"/>
      <point x="92.3157894736842" y="205.34210526315792"/>
      <point x="41.763157894736835" y="158.1052631578947" type="curve"/>
    </contour>
  </outline>
</glyph>
<glyph name="Thorn" format="2">
  <advance width="654.6504854368932"/>
  <unicode hex="00DE"/>
  <outline>
    <contour>
      <point x="57.87378640776698" y="0.0" type="curve"/>
      <point x="254.20388349514562" y="0.0" type="line"/>
      <point x="250.0970873786408" y="76.52427184466019"/>
      <point x="245.35922330097085" y="142.41747572815532"/>
      <point x="240.88349514563106" y="232.15533980582524" type="curve"/>
      <point x="240.88349514563106" y="474.63106796116506" type="line"/>
      <point x="246.35922330097085" y="568.8446601941748"/>
      <point x="250.0970873786408" y="634.7378640776699"/>
      <point x="254.20388349514562" y="713.0" type="curve"/>
      <point x="57.87378640776698" y="713.0" type="line"/>
      <point x="61.980582524271846" y="634.7378640776699"/>
      <point x="65.71844660194175" y="568.8446601941748"/>
      <point x="71.19417475728156" y="474.63106796116506" type="curve"/>
      <point x="71.19417475728156" y="232.15533980582524" type="line"/>
      <point x="66.0873786407767" y="142.04854368932038"/>
      <point x="61.980582524271846" y="75.52427184466019"/>
    </contour>
    <contour>
      <point x="370.873786407767" y="136.0388349514563" type="curve"/>
      <point x="554.2330097087379" y="136.0388349514563"/>
      <point x="624.5533980582524" y="235.88349514563106"/>
      <point x="624.5533980582524" y="378.15533980582524" type="curve" smooth="yes"/>
      <point x="624.5533980582524" y="547.5436893203884"/>
      <point x="534.6504854368932" y="607.3300970873786"/>
      <point x="360.37864077669906" y="607.3300970873786" type="curve"/>
      <point x="303.6019417475729" y="606.3300970873786"/>
      <point x="258.9805825242719" y="605.3300970873786"/>
      <point x="220.0873786407767" y="604.9611650485436" type="curve"/>
      <point x="220.0873786407767" y="470.4466019417476" type="line"/>
      <point x="348.42718446601947" y="470.4466019417476" type="line" smooth="yes"/>
      <point x="397.8349514563107" y="470.4466019417476"/>
      <point x="449.3883495145631" y="452.75728155339806"/>
      <point x="449.3883495145631" y="374.20388349514565" type="curve" smooth="yes"/>
      <point x="449.3883495145631" y="300.33009708737865"/>
      <point x="413.4563106796117" y="268.126213592233"/>
      <point x="331.0679611650486" y="268.126213592233" type="curve" smooth="yes"/>
      <point x="220.0873786407767" y="268.126213592233" type="line"/>
      <point x="220.0873786407767" y="138.40776699029126" type="line"/>
      <point x="257.71844660194176" y="138.03883495145632"/>
      <point x="322.61165048543694" y="137.0388349514563"/>
    </contour>
  </outline>
</glyph>
